<svg xmlns="http://www.w3.org/2000/svg" width="58.428" height="59.96" viewBox="0 0 58.428 59.96">
  <g id="admins-active" transform="translate(-4 -2)">
    <path id="Path_1" data-name="Path 1" d="M46,43V16h-.051A15.007,15.007,0,0,0,31,2H5A1,1,0,0,0,4,3,14.961,14.961,0,0,0,9.222,14.351,18.866,18.866,0,0,0,8,21V39a1,1,0,0,0,1,1h4V50a1,1,0,0,0,1,1H28v4.25L11.573,60.04l.56,1.92L28.9,57.07l7.65,3.825a1,1,0,0,0,.893,0L45.1,57.07l16.771,4.89.56-1.92L46,55.25ZM44,17V41.951A9.907,9.907,0,0,1,36.181,36.7c.046-.013.089-.03.134-.044s.107-.035.161-.052c.2-.065.4-.137.59-.216l.081-.034a7.971,7.971,0,0,0,4.476-4.932c.013-.04.024-.081.036-.122.057-.191.107-.384.15-.581.014-.066.029-.131.042-.2.035-.182.062-.367.085-.553.008-.069.019-.137.026-.207.023-.25.038-.5.038-.76a7.868,7.868,0,0,0-.04-.787c-.009-.087-.025-.172-.036-.258-.022-.17-.045-.341-.078-.508-.02-.1-.047-.2-.07-.3-.035-.149-.071-.3-.114-.444-.031-.1-.068-.2-.1-.3-.047-.137-.1-.274-.149-.407-.042-.1-.087-.2-.133-.3-.058-.128-.118-.254-.182-.378-.051-.1-.106-.195-.161-.291-.069-.12-.14-.237-.215-.353-.06-.094-.123-.185-.187-.276-.079-.112-.161-.221-.246-.328-.069-.087-.138-.174-.21-.258-.09-.1-.183-.2-.278-.305-.075-.079-.15-.159-.228-.235-.1-.1-.206-.191-.312-.283-.08-.07-.159-.142-.242-.209-.114-.092-.233-.177-.352-.263-.082-.059-.161-.121-.245-.177-.134-.089-.274-.17-.413-.251-.075-.044-.147-.091-.224-.133-.21-.113-.426-.218-.647-.312-.009,0-.017-.009-.026-.012-.23-.1-.467-.183-.707-.259-.077-.024-.157-.041-.235-.063-.166-.047-.332-.093-.5-.13-.1-.02-.194-.033-.29-.05-.125-.022-.248-.049-.375-.065V4.636A13.019,13.019,0,0,1,44,17ZM34,23a5.97,5.97,0,0,1,5.9,7.048c-.007.038-.01.076-.017.113a6.032,6.032,0,0,1-.257.9c-.024.066-.046.134-.073.2a5.9,5.9,0,0,1-.376.755c-.049.084-.1.167-.151.248a6.137,6.137,0,0,1-.469.628c-.071.083-.145.164-.221.243a5.865,5.865,0,0,1-.566.526c-.079.064-.163.124-.246.184a5.876,5.876,0,0,1-.694.443c-.064.034-.131.062-.2.1a5.927,5.927,0,0,1-.868.352c-.023.007-.047.011-.07.018a6.128,6.128,0,0,1-1.057.213h0A6.163,6.163,0,0,1,34,35a6,6,0,0,1,0-12ZM6.038,4H31a13.056,13.056,0,0,1,2,.17V16H19A13.017,13.017,0,0,1,6.038,4ZM37,58.882l-7-3.5V50a1,1,0,0,0-1-1H15V39a1,1,0,0,0-1-1H10V21a16.9,16.9,0,0,1,.893-5.4A14.9,14.9,0,0,0,19,18H33v3.069a7.993,7.993,0,0,0,0,15.862V42H23.816A3,3,0,0,0,21,40H20a3,3,0,0,0,0,6h1a3,3,0,0,0,2.816-2H34a1,1,0,0,0,1-1V38.619a11.879,11.879,0,0,0,9,5.338V55.382ZM22,43a1,1,0,0,1-1,1H20a1,1,0,0,1,0-2h1A1,1,0,0,1,22,43Z" fill="#ffb11d"/>
    <path id="Path_2" data-name="Path 2" d="M34,33a4,4,0,1,0-4-4A4,4,0,0,0,34,33Zm0-6a2,2,0,1,1-2,2A2,2,0,0,1,34,27Z" fill="#ffb11d"/>
  </g>
</svg>
