<svg id="profile" xmlns="http://www.w3.org/2000/svg" width="59.385" height="59.384" viewBox="0 0 59.385 59.384">
  <path id="Path_513" data-name="Path 513" d="M36.047,19.523A12.023,12.023,0,1,1,24.023,7.5,12.023,12.023,0,0,1,36.047,19.523Zm-6.012,0a6.012,6.012,0,1,1-6.012-6.012,6.012,6.012,0,0,1,6.012,6.012Z" transform="translate(5.669 2.596)" fill="#f7f7f7" fill-rule="evenodd"/>
  <path id="Path_514" data-name="Path 514" d="M31.192,1.5A29.692,29.692,0,1,0,60.884,31.192,29.692,29.692,0,0,0,31.192,1.5ZM6.9,31.192a24.2,24.2,0,0,0,5.15,14.959,24.3,24.3,0,0,1,38.463-.227A24.294,24.294,0,1,0,6.9,31.192ZM31.192,55.486a24.193,24.193,0,0,1-15.31-5.431,18.9,18.9,0,0,1,30.844-.184A24.2,24.2,0,0,1,31.192,55.486Z" transform="translate(-1.5 -1.5)" fill="#f7f7f7" fill-rule="evenodd"/>
</svg>
