<svg xmlns="http://www.w3.org/2000/svg" width="41.302" height="39.68" viewBox="0 0 41.302 39.68">
  <g id="Group_96" data-name="Group 96" transform="translate(-1829.142 -2617.32)">
    <g id="ios-game-controller-b" transform="translate(1826.893 2620.75)">
      <path id="Path_442" data-name="Path 442" d="M9.924,14.384A1.792,1.792,0,1,0,11.7,16.176,1.788,1.788,0,0,0,9.924,14.384Z" transform="translate(1.833 2.375)" fill="none"/>
      <path id="Path_443" data-name="Path 443" d="M42.285,20.842c-1.951-8.156-4.022-12.491-8.154-13.721a8.256,8.256,0,0,0-2.374-.371C29.213,6.75,27.43,8.1,22.9,8.1S16.583,6.75,14.044,6.75a8.207,8.207,0,0,0-2.372.372c-4.137,1.23-6.208,5.564-8.155,13.721s-1.6,14.046.708,15.146a2.654,2.654,0,0,0,1.15.261c2,0,4.161-2.2,6.237-4.8,2.365-2.959,2.96-3.038,10.166-3.038h2.245c7.2,0,7.8.077,10.166,3.038,2.077,2.6,4.238,4.795,6.238,4.795a2.642,2.642,0,0,0,1.149-.26c2.3-1.1,2.66-6.987.711-15.143ZM11.766,22.2a3.654,3.654,0,1,1,3.619-3.653A3.638,3.638,0,0,1,11.766,22.2Zm15.934-1.8a1.854,1.854,0,1,1,1.858-1.854A1.855,1.855,0,0,1,27.7,20.405Zm4.049,4.045a1.849,1.849,0,1,1,1.858-1.845A1.847,1.847,0,0,1,31.749,24.45Zm0-8.095A1.853,1.853,0,1,1,33.607,14.5a1.85,1.85,0,0,1-1.858,1.851ZM35.8,20.407a1.854,1.854,0,1,1,1.849-1.854A1.854,1.854,0,0,1,35.8,20.407Z" transform="translate(0 0)" fill="none"/>
    </g>
    <g id="Group_60" data-name="Group 60" transform="translate(14471.805 -18963.926)">
      <g id="ios-game-controller-b-outline" transform="translate(-12642.25 21591.582)">
        <path id="Path_444" data-name="Path 444" d="M22.083,14.339a1.835,1.835,0,1,0,1.839,1.835,1.836,1.836,0,0,0-1.839-1.835Z" transform="translate(3.115 -4.488)" fill="#fff"/>
        <path id="Path_445" data-name="Path 445" d="M25.169,17.429a1.831,1.831,0,1,0,1.839,1.835A1.83,1.83,0,0,0,25.169,17.429Z" transform="translate(4.036 -3.568)" fill="#fff"/>
        <path id="Path_446" data-name="Path 446" d="M10.331,12.963a3.618,3.618,0,1,0,3.582,3.619,3.6,3.6,0,0,0-3.582-3.619Zm-.01,5.393a1.774,1.774,0,1,1,1.761-1.774A1.77,1.77,0,0,1,10.321,18.356Z" transform="translate(-0.908 -4.899)" fill="#fff"/>
        <path id="Path_447" data-name="Path 447" d="M25.169,11.25a1.834,1.834,0,1,0,1.839,1.835A1.834,1.834,0,0,0,25.169,11.25Z" transform="translate(4.036 -5.409)" fill="#fff"/>
        <path id="Path_448" data-name="Path 448" d="M28.261,14.339a1.835,1.835,0,1,0,1.83,1.835,1.835,1.835,0,0,0-1.83-1.835Z" transform="translate(4.956 -4.488)" fill="#fff"/>
        <path id="Path_449" data-name="Path 449" d="M41.885,20.7C39.953,12.626,37.9,8.335,33.812,7.117a8.174,8.174,0,0,0-2.351-.367c-2.518,0-4.283,1.34-8.769,1.34S16.44,6.75,13.926,6.75a8.125,8.125,0,0,0-2.348.369C7.483,8.336,5.432,12.627,3.5,20.7s-1.582,13.906.7,14.995a2.627,2.627,0,0,0,1.138.258c1.979,0,4.12-2.175,6.175-4.751,2.342-2.93,2.931-3.007,10.065-3.007H23.8c7.133,0,7.723.077,10.065,3.007,2.056,2.574,4.2,4.747,6.176,4.747a2.616,2.616,0,0,0,1.137-.257c2.282-1.089,2.634-6.917.7-14.992ZM40.552,34.377a1.131,1.131,0,0,1-.508.117,3.8,3.8,0,0,1-2.126-1.068A21.446,21.446,0,0,1,35.009,30.3c-1.182-1.48-2.16-2.577-3.973-3.1-1.519-.437-3.525-.466-7.234-.466H21.58c-3.708,0-5.714.029-7.234.466-1.812.522-2.789,1.613-3.972,3.094a21.635,21.635,0,0,1-2.908,3.127,3.8,3.8,0,0,1-2.126,1.07,1.148,1.148,0,0,1-.508-.117c-.872-.415-2.06-4.351.091-13.337,1.952-8.176,3.868-11.57,7.069-12.522a6.717,6.717,0,0,1,1.931-.308,10.612,10.612,0,0,1,2.721.479,21.741,21.741,0,0,0,6.046.861,21.785,21.785,0,0,0,6.043-.861,10.649,10.649,0,0,1,2.726-.479,6.779,6.779,0,0,1,1.934.308c3.2.951,5.114,4.346,7.069,12.523,2.147,8.986.959,12.92.087,13.337Z" transform="translate(-2.249 -6.75)" fill="#fff"/>
      </g>
      <g id="game-wireless" transform="translate(-12629.831 21581.246)">
        <path id="Path_456" data-name="Path 456" d="M15.565,10.318,13.781,8.737a5.945,5.945,0,0,1,8.917,0l-1.784,1.581a3.567,3.567,0,0,0-5.351,0Z" transform="translate(-10.213 -1.999)" fill="#fff"/>
        <path id="Path_457" data-name="Path 457" d="M24.673,7.445a8.322,8.322,0,0,0-12.484,0L10.405,5.876a10.7,10.7,0,0,1,16.051,0Z" transform="translate(-10.405 -2.253)" fill="#fff"/>
      </g>
    </g>
  </g>
</svg>
