<?xml version="1.0" encoding="UTF-8" standalone="no" ?>
<!DOCTYPE svg PUBLIC "-//W3C//DTD SVG 1.1//EN" "http://www.w3.org/Graphics/SVG/1.1/DTD/svg11.dtd">
<svg xmlns="http://www.w3.org/2000/svg" xmlns:xlink="http://www.w3.org/1999/xlink" version="1.1" width="1080" height="1080" viewBox="0 0 1080 1080" xml:space="preserve">
<desc>Created with Fabric.js 5.2.4</desc>
<defs>
</defs>
<g transform="matrix(1 0 0 1 540 540)" id="0d1ee4b6-3e21-488e-b7c1-72ed6a983222"  >
</g>
<g transform="matrix(1 0 0 1 540 540)" id="28469094-40f3-48da-8fc8-dbd9b991a8a9"  >
<rect style="stroke: none; stroke-width: 1; stroke-dasharray: none; stroke-linecap: butt; stroke-dashoffset: 0; stroke-linejoin: miter; stroke-miterlimit: 4; fill: rgb(255,255,255); fill-rule: nonzero; opacity: 1; visibility: hidden;" vector-effect="non-scaling-stroke"  x="-540" y="-540" rx="0" ry="0" width="1080" height="1080" />
</g>
<g transform="matrix(12.97 0 0 12.97 559.32 513.72)"  >
<path style="stroke: rgb(0,0,0); stroke-width: 0; stroke-dasharray: none; stroke-linecap: butt; stroke-dashoffset: 0; stroke-linejoin: miter; stroke-miterlimit: 4; fill: rgb(255,255,255); fill-rule: nonzero; opacity: 1;" vector-effect="non-scaling-stroke"  transform=" translate(-32, -30)" d="M 32 8 C 31.08875 8 30.178047 8.3091875 29.435547 8.9296875 L 8.8007812 26.171875 C 8.0357812 26.810875 7.7634844 27.925203 8.2714844 28.783203 C 8.9184844 29.875203 10.35025 30.088547 11.28125 29.310547 L 31.677734 12.269531 C 31.864734 12.113531 32.135266 12.113531 32.322266 12.269531 L 52.71875 29.3125 C 53.09275 29.6255 53.546047 29.777344 53.998047 29.777344 C 54.693047 29.777344 55.382672 29.416656 55.763672 28.722656 C 56.228672 27.874656 55.954891 26.803594 55.212891 26.183594 L 52 23.498047 L 52 15 C 52 13.895 51.105 13 50 13 L 48 13 C 46.895 13 46 13.895 46 15 L 46 18.484375 L 34.564453 8.9296875 C 33.821953 8.3091875 32.91125 8 32 8 z M 32 16 L 12 32.710938 L 12 47 C 12 49.76 14.24 52 17 52 L 25 52 C 26.66 52 28 50.66 28 49 L 28 39 C 28 37.9 28.9 37 30 37 L 34 37 C 35.1 37 36 37.9 36 39 L 36 49 C 36 50.66 37.34 52 39 52 L 47 52 C 49.76 52 52 49.76 52 47 L 52 32.710938 L 32 16 z" stroke-linecap="round" />
</g>
</svg>