<svg xmlns="http://www.w3.org/2000/svg" width="44" height="49.029" viewBox="0 0 44 49.029">
  <path id="check-lock" d="M25,1A12.013,12.013,0,0,0,13,13v5H9a3,3,0,0,0-3,3V45a3,3,0,0,0,3,3H31.074a12.013,12.013,0,0,1-1.457-2H9a1,1,0,0,1-1-1V21a1,1,0,0,1,1-1H41a1,1,0,0,1,1,1v7.18a11.907,11.907,0,0,1,2,.518V21a3,3,0,0,0-3-3H37V13A12.013,12.013,0,0,0,25,1Zm0,2A10.011,10.011,0,0,1,35,13v5H15V13A10.011,10.011,0,0,1,25,3Zm0,25a2.946,2.946,0,0,0-3,3,2.864,2.864,0,0,0,1,2.2V36a2,2,0,0,0,4,0V33.2A2.864,2.864,0,0,0,28,31,2.946,2.946,0,0,0,25,28Zm15,2.029a10,10,0,1,0,10,10A10.029,10.029,0,0,0,40,30.029Zm0,2a8,8,0,1,1-8,8A8.024,8.024,0,0,1,40,32.029Zm4.3,3.4-5.4,6.3-3.3-2.5-1.2,1.6,4.7,3.6,6.7-7.7Z" transform="translate(-6 -1)" fill="#fff"/>
</svg>
