<svg xmlns="http://www.w3.org/2000/svg" width="30.889" height="44.245" viewBox="0 0 30.889 44.245"><g transform="translate(-38.171)"><path d="M53.616,44.245a1.966,1.966,0,0,1-1.693-.967l-2.156-3.646c-4.426-7.483-8.607-14.55-10.035-17.417a15.3,15.3,0,0,1-1.561-6.771A15.444,15.444,0,1,1,67.508,22.2c-.012.026-.026.051-.039.076-1.456,2.9-5.609,9.927-10.006,17.358l-2.154,3.644A1.966,1.966,0,0,1,53.616,44.245Z" fill="#fff"/><path d="M90.819,57.095a7.555,7.555,0,1,1,7.555-7.555A7.564,7.564,0,0,1,90.819,57.095Z" transform="translate(-37.203 -34.639)" fill="#7cb243"/></g></svg>