<svg xmlns="http://www.w3.org/2000/svg" width="30.544" height="19.636" viewBox="0 0 30.544 19.636"><g transform="translate(23.804 1179.218)"><path d="M4.558-1169.4a16.755,16.755,0,0,0-6.494-6.017,7.449,7.449,0,0,1,1.04,3.835,7.354,7.354,0,0,1-2.241,5.395,7.355,7.355,0,0,1-5.395,2.241,7.354,7.354,0,0,1-5.395-2.241,7.355,7.355,0,0,1-2.241-5.395,7.449,7.449,0,0,1,1.04-3.835,16.755,16.755,0,0,0-6.494,6.017,17.6,17.6,0,0,0,5.684,5.565,14.033,14.033,0,0,0,7.406,2.071,14.034,14.034,0,0,0,7.406-2.071A17.6,17.6,0,0,0,4.558-1169.4Zm-12.272-6.545a.789.789,0,0,0-.239-.579.789.789,0,0,0-.579-.239,4.987,4.987,0,0,0-3.656,1.526,4.987,4.987,0,0,0-1.525,3.656.789.789,0,0,0,.239.579.789.789,0,0,0,.579.239.789.789,0,0,0,.579-.239.789.789,0,0,0,.239-.579,3.415,3.415,0,0,1,1.04-2.506,3.415,3.415,0,0,1,2.506-1.04.789.789,0,0,0,.579-.239A.789.789,0,0,0-7.714-1175.945ZM6.74-1169.4a2.359,2.359,0,0,1-.341,1.176,18.083,18.083,0,0,1-6.417,6.281,16.591,16.591,0,0,1-8.514,2.361,16.545,16.545,0,0,1-8.514-2.369,18.2,18.2,0,0,1-6.417-6.273,2.359,2.359,0,0,1-.341-1.176,2.359,2.359,0,0,1,.341-1.176,18.2,18.2,0,0,1,6.417-6.272,16.544,16.544,0,0,1,8.514-2.369,16.544,16.544,0,0,1,8.514,2.369,18.2,18.2,0,0,1,6.417,6.272A2.36,2.36,0,0,1,6.74-1169.4Z" fill="#fff"/></g></svg>