<svg xmlns="http://www.w3.org/2000/svg" xmlns:xlink="http://www.w3.org/1999/xlink" width="147" height="148" viewBox="0 0 147 148">
  <defs>
    <linearGradient id="linear-gradient" x1="1.192" y1="-0.182" x2="0.045" y2="0.968" gradientUnits="objectBoundingBox">
      <stop offset="0" stop-color="#baff80"/>
      <stop offset="1" stop-color="#11d101"/>
    </linearGradient>
    <filter id="Rectangle_849" x="0" y="0" width="147" height="148" filterUnits="userSpaceOnUse">
      <feOffset input="SourceAlpha"/>
      <feGaussianBlur stdDeviation="5" result="blur"/>
      <feFlood flood-color="#a8f275"/>
      <feComposite operator="in" in2="blur"/>
      <feComposite in="SourceGraphic"/>
    </filter>
    <filter id="Rectangle_849-2" x="0" y="0" width="147" height="148" filterUnits="userSpaceOnUse">
      <feOffset dy="-3" input="SourceAlpha"/>
      <feGaussianBlur stdDeviation="3" result="blur-2"/>
      <feFlood flood-opacity="0.161" result="color"/>
      <feComposite operator="out" in="SourceGraphic" in2="blur-2"/>
      <feComposite operator="in" in="color"/>
      <feComposite operator="in" in2="SourceGraphic"/>
    </filter>
  </defs>
  <g id="Group_16" data-name="Group 16" transform="translate(2631 -269)">
    <g data-type="innerShadowGroup">
      <g transform="matrix(1, 0, 0, 1, -2631, 269)" filter="url(#Rectangle_849)">
        <rect id="Rectangle_849-3" data-name="Rectangle 849" width="117" height="118" rx="18" transform="translate(15 15)" fill="url(#linear-gradient)"/>
      </g>
      <g transform="matrix(1, 0, 0, 1, -2631, 269)" filter="url(#Rectangle_849-2)">
        <rect id="Rectangle_849-4" data-name="Rectangle 849" width="117" height="118" rx="18" transform="translate(15 15)" fill="#fff"/>
      </g>
    </g>
    <path id="amar" d="M61.375,55.524a1.544,1.544,0,0,1-.617,1.233l-6.17,4.63a1.543,1.543,0,1,1-1.851-2.469l2.468-1.852H5.847A1.542,1.542,0,0,1,4.3,55.522V6.138L2.449,8.608A1.542,1.542,0,1,1-.014,6.755L4.618.582a1.6,1.6,0,0,1,2.467,0l4.627,6.173A1.544,1.544,0,1,1,9.241,8.608L7.39,6.138V53.986H55.206l-2.468-1.852a1.543,1.543,0,0,1,1.851-2.469l6.17,4.63a1.544,1.544,0,0,1,.617,1.23ZM12.017,38.548a4.626,4.626,0,0,1,6.9-4.036l5.773-5.054a4.626,4.626,0,1,1,8.715-.328l5.359,4.021a4.626,4.626,0,0,1,3.884-.584l7.207-9.913a4.624,4.624,0,1,1,2.494,1.808l-7.207,9.916a4.626,4.626,0,1,1-8.224,1.241L31.554,31.6a4.624,4.624,0,0,1-4.832.182l-5.773,5.055a4.627,4.627,0,1,1-8.926,1.714Zm40.1-18.52a1.542,1.542,0,1,0,1.542-1.542,1.542,1.542,0,0,0-1.542,1.542ZM39.781,37a1.542,1.542,0,1,0,1.542-1.544A1.542,1.542,0,0,0,39.781,37Zm-12.34-9.259A1.542,1.542,0,1,0,28.984,26.2,1.542,1.542,0,0,0,27.442,27.745ZM15.1,38.548A1.542,1.542,0,1,0,16.644,37,1.542,1.542,0,0,0,15.1,38.548Z" transform="translate(-2588.004 312.152)" fill="#fff"/>
  </g>
</svg>
