<svg xmlns="http://www.w3.org/2000/svg" xmlns:xlink="http://www.w3.org/1999/xlink" width="147" height="147" viewBox="0 0 147 147">
  <defs>
    <linearGradient id="linear-gradient" x1="1.111" y1="-0.063" x2="0.045" y2="0.968" gradientUnits="objectBoundingBox">
      <stop offset="0" stop-color="#8dffff"/>
      <stop offset="1" stop-color="#0045ff"/>
    </linearGradient>
    <filter id="Rectangle_56" x="0" y="0" width="147" height="147" filterUnits="userSpaceOnUse">
      <feOffset input="SourceAlpha"/>
      <feGaussianBlur stdDeviation="5" result="blur"/>
      <feFlood flood-color="#72dcff"/>
      <feComposite operator="in" in2="blur"/>
      <feComposite in="SourceGraphic"/>
    </filter>
    <filter id="Rectangle_56-2" x="0" y="0" width="147" height="147" filterUnits="userSpaceOnUse">
      <feOffset dy="-3" input="SourceAlpha"/>
      <feGaussianBlur stdDeviation="3" result="blur-2"/>
      <feFlood flood-opacity="0.161" result="color"/>
      <feComposite operator="out" in="SourceGraphic" in2="blur-2"/>
      <feComposite operator="in" in="color"/>
      <feComposite operator="in" in2="SourceGraphic"/>
    </filter>
  </defs>
  <g id="Group_16" data-name="Group 16" transform="translate(-1259 -157)">
    <g data-type="innerShadowGroup">
      <g transform="matrix(1, 0, 0, 1, 1259, 157)" filter="url(#Rectangle_56)">
        <rect id="Rectangle_56-3" data-name="Rectangle 56" width="117" height="117" rx="18" transform="translate(15 15)" fill="url(#linear-gradient)"/>
      </g>
      <g transform="matrix(1, 0, 0, 1, 1259, 157)" filter="url(#Rectangle_56-2)">
        <rect id="Rectangle_56-4" data-name="Rectangle 56" width="117" height="117" rx="18" transform="translate(15 15)" fill="#fff"/>
      </g>
    </g>
    <g id="Table" transform="translate(1292.5 199.164)">
      <path id="Path_504" data-name="Path 504" d="M76.667,8H3.333A3.333,3.333,0,0,0,0,11.333v5a3.333,3.333,0,0,0,3.333,3.333H5V58a3.333,3.333,0,0,0,3.333,3.333h1.833a3.333,3.333,0,0,0,3.315-2.965L16.5,31.333h47l3,27.033a3.333,3.333,0,0,0,3.333,2.967h1.833A3.333,3.333,0,0,0,75,58V19.667h1.667A3.333,3.333,0,0,0,80,16.333v-5A3.333,3.333,0,0,0,76.667,8Zm-5,50H69.833L66.667,29.483A1.667,1.667,0,0,0,65,28H15a1.667,1.667,0,0,0-1.657,1.483L10.167,58H8.333V19.667H71.667ZM3.333,16.333v-5H76.667v5Z" transform="translate(0 0)" fill="#fff"/>
    </g>
  </g>
</svg>
