<?xml version="1.0" encoding="utf-8"?>
<!-- Generator: Adobe Illustrator 27.0.0, SVG Export Plug-In . SVG Version: 6.00 Build 0)  -->
<svg version="1.1" id="Layer_1" xmlns="http://www.w3.org/2000/svg" xmlns:xlink="http://www.w3.org/1999/xlink" x="0px" y="0px"
	 viewBox="0 0 256 256" style="enable-background:new 0 0 256 256;" xml:space="preserve">
<style type="text/css">
	.st0{fill:#FFFFFF;}
</style>
<g>
	<g>
		<g>
			<path class="st0" d="M197.2,13.6c-1.7,0.3-4.8,1.5-6.9,2.5c-3.7,1.8-4.6,2.5-16.1,14.1l-12.3,12.2H99.2c-70.1,0-63-0.2-70.1,3.3
				c-6.9,3.4-12,6.5-14.9,14.4l-1.1,3L13,140.8c-0.1,86.3-0.3,81.7,2.9,88.3c4.1,8.4,8.5,11.2,17.7,13.1c3.1,0.6,12,0.7,79.7,0.7
				c84.4,0,79.9,0.1,86.5-3c8.5-4.1,11.3-8.6,13.1-17.8c0.6-3.2,0.7-10,0.6-59.9l-0.1-56.3l-0.4-2.5c-0.6-2.1-1.9-3-3.8-4.1
				c-2.6-1.4-3.8-1.3-7.3-1.4c-7.2,0-4.3-1.5-33.4,27.4c-22.6,22.6-27.1,25.8-29.1,26.6s-3.6,0.9-12.5,0.9c-9.8,0-12.4,0.1-14.7-1
				c-2.9-1.5-6.5-4.4-8-7.3c-1.1-2.2-1.1-2.6-1.1-12.5c0-8.9,0.1-13.4,0.9-15.5c0.7-1.9,2.6-6.1,10.7-14.3
				c10.5-10.7,10.8-9.2,10.1-13c-0.4-2.2-0.4-5.1-2.5-5.5c-4-0.7-4.3-0.5-15.5,10.8c-9.6,9.7-10.6,10.7-12.3,14.3
				c-3.2,6.5-3.4,8.1-3.2,27.6l0.1,14.2c0,1.9,0.4,3.8,1.2,5.5l0.8,1.8c1.2,2.6,3.4,4.6,6,5.6h0c2,0.7,4.1,1.1,6.3,1.1l13.9,0.1
				c19.5,0.1,21.1,0,27.6-3.2c3.6-1.8,4.5-2.6,26.4-24.4c12.5-12.4,24.1-25.6,24.7-25.8c1.4-0.4,2.5,0.5,3.2,1.8
				c0.4,0.7,0.5,16.7,0.4,54.1l-0.1,50l-1.8,3.5c-2.6,5.3-6.9,8.8-12.4,10.1c-1.2,0.3-28.3,0.5-74.5,0.5c-72.4,0-72.6,0-75.5-1
				c-5.6-1.8-10.2-6.5-11.9-11.9c-0.9-3-0.9-4.2-0.8-76.6c0.1-72,0.1-73.5,1-75.7c2.1-5.1,6.7-9.4,11.7-10.9
				c2.9-0.9,4.4-0.9,66.6-0.9h63.7l13.6-13.6c8.6-8.6,14.3-13.9,15.7-14.6c1.8-0.9,2.8-1.1,6.5-1.1s4.7,0.2,6.5,1.1
				c2.9,1.5,18,16.6,19.7,19.6c1.2,2.1,2.1,3.2,2,6.8c-0.1,2.6-0.8,4.5-2,6.7c-1.8,3.2-4,5.2-5.9,5.2c-1.2,0-2.6-1.2-10.7-9.2
				c-7.6-7.5-9.6-9.3-11.2-9.8c-5.4-1.6-8.5,2.6-6.9,7.9c0.5,1.7,2.4,3.8,11.2,12.7c11.5,9.9,13.5,10.6,19.7,10.3
				c2.6-0.1,2.6,0,8-5.6c6.6-6.9,9.5-11.3,9-20c-0.3-4.9-0.5-4.7-2-9.2c-1.4-3.2-1.6-5.1-10-13.5c-9.4-9.4-10.2-10.1-13.9-11.9
				C210.6,13,203.9,12.2,197.2,13.6z"/>
			<path class="st0" d="M136.1,65.9c-1.9,0.8-3.8,3.2-4.2,5.1c-0.5,2.7,0.2,4.8,2.1,6.7c1.1,1.1,2.4,1.9,3.4,2.1
				c2.7,0.5,4.8-0.1,6.7-2.1C149.9,72,143.5,62.7,136.1,65.9z"/>
		</g>
	</g>
</g>
</svg>
