<svg xmlns="http://www.w3.org/2000/svg" width="50" height="38" viewBox="0 0 50 38">
  <path id="meeting-room" d="M25,6a4,4,0,1,0,4,4A4.015,4.015,0,0,0,25,6Zm0,2a2,2,0,1,1-2,2A1.985,1.985,0,0,1,25,8ZM8,9a4,4,0,1,0,4,4A4.015,4.015,0,0,0,8,9ZM42,9a4,4,0,1,0,4,4A4.015,4.015,0,0,0,42,9ZM8,11a2,2,0,1,1-2,2A1.985,1.985,0,0,1,8,11Zm34,0a2,2,0,1,1-2,2A1.985,1.985,0,0,1,42,11ZM24,15a6.016,6.016,0,0,0-6,6v4H15a1,1,0,1,0,0,2H35a1,1,0,1,0,0-2H32V21a6.016,6.016,0,0,0-6-6Zm0,2h2a3.986,3.986,0,0,1,4,4v4H20V21A3.986,3.986,0,0,1,24,17ZM8,18a4.015,4.015,0,0,0-4,4s0,0,0,0l.01,9.248q0,.041,0,.082A4.014,4.014,0,0,0,8,35h5v6a3,3,0,0,0,6,0V33a4.016,4.016,0,0,0-4-4H12V22a1,1,0,0,0-.006-.111A4.166,4.166,0,0,0,8,18Zm34,0a4.166,4.166,0,0,0-3.994,3.889A1,1,0,0,0,38,22v7H35a4.016,4.016,0,0,0-4,4v8a3,3,0,0,0,6,0V35h5a4.014,4.014,0,0,0,3.986-3.668q0-.041,0-.082L46,22v0A4.015,4.015,0,0,0,42,18ZM8,20c1.124,0,1.851.811,2,2.1V30a1,1,0,0,0,1,1h4a1.991,1.991,0,0,1,2,2v8a1,1,0,0,1-2,0V34a1,1,0,0,0-1-1H8a1.987,1.987,0,0,1-1.99-1.826L6,22A1.985,1.985,0,0,1,8,20Zm34,0a1.985,1.985,0,0,1,2,2l-.01,9.174A1.987,1.987,0,0,1,42,33H36a1,1,0,0,0-1,1v7a1,1,0,0,1-2,0V33a1.991,1.991,0,0,1,2-2h4a1,1,0,0,0,1-1V22.1C40.149,20.811,40.876,20,42,20ZM.984,22.986A1,1,0,0,0,0,24v8a7.015,7.015,0,0,0,7,7h3a1,1,0,1,0,0-2H7a4.984,4.984,0,0,1-5-5V24A1,1,0,0,0,.984,22.986Zm48,0A1,1,0,0,0,48,24v8a4.984,4.984,0,0,1-5,5H40a1,1,0,1,0,0,2h3a7.015,7.015,0,0,0,7-7V24a1,1,0,0,0-1.016-1.014Z" transform="translate(0 -6)" fill="#ffb11d"/>
</svg>
