<svg xmlns="http://www.w3.org/2000/svg"  viewBox="0 0 50 50" width="100px" height="100px"><path d="M 25 6 C 22.802706 6 21 7.8027056 21 10 C 21 12.197294 22.802706 14 25 14 C 27.197294 14 29 12.197294 29 10 C 29 7.8027056 27.197294 6 25 6 z M 25 8 C 26.116414 8 27 8.8835859 27 10 C 27 11.116414 26.116414 12 25 12 C 23.883586 12 23 11.116414 23 10 C 23 8.8835859 23.883586 8 25 8 z M 8 9 C 5.8027056 9 4 10.802706 4 13 C 4 15.197294 5.8027056 17 8 17 C 10.197294 17 12 15.197294 12 13 C 12 10.802706 10.197294 9 8 9 z M 42 9 C 39.802706 9 38 10.802706 38 13 C 38 15.197294 39.802706 17 42 17 C 44.197294 17 46 15.197294 46 13 C 46 10.802706 44.197294 9 42 9 z M 8 11 C 9.1164141 11 10 11.883586 10 13 C 10 14.116414 9.1164141 15 8 15 C 6.8835859 15 6 14.116414 6 13 C 6 11.883586 6.8835859 11 8 11 z M 42 11 C 43.116414 11 44 11.883586 44 13 C 44 14.116414 43.116414 15 42 15 C 40.883586 15 40 14.116414 40 13 C 40 11.883586 40.883586 11 42 11 z M 24 15 C 20.698375 15 18 17.698375 18 21 L 18 25 L 15 25 A 1.0001 1.0001 0 1 0 15 27 L 18 27 L 32 27 L 35 27 A 1.0001 1.0001 0 1 0 35 25 L 32 25 L 32 21 C 32 17.698375 29.301625 15 26 15 L 24 15 z M 24 17 L 26 17 C 28.220375 17 30 18.779625 30 21 L 30 25 L 20 25 L 20 21 C 20 18.779625 21.779625 17 24 17 z M 8 18 C 5.8026661 18 4 19.802666 4 22 A 1.0001 1.0001 0 0 0 4 22.001953 L 4.0097656 31.25 A 1.0001 1.0001 0 0 0 4.0136719 31.332031 C 4.1862319 33.39616 5.9288889 35 8 35 L 13 35 L 13 41 C 13 42.645063 14.354937 44 16 44 C 17.645063 44 19 42.645063 19 41 L 19 33 C 19 30.803477 17.196523 29 15 29 L 12 29 L 12 22 A 1.0001 1.0001 0 0 0 11.994141 21.888672 C 11.762618 19.809522 10.184862 18 8 18 z M 42 18 C 39.815138 18 38.237423 19.809522 38.005859 21.888672 A 1.0001 1.0001 0 0 0 38 22 L 38 29 L 35 29 C 32.803477 29 31 30.803477 31 33 L 31 41 C 31 42.645063 32.354937 44 34 44 C 35.645063 44 37 42.645063 37 41 L 37 35 L 42 35 C 44.071111 35 45.813764 33.396159 45.986328 31.332031 A 1.0001 1.0001 0 0 0 45.990234 31.25 L 46 22.001953 A 1.0001 1.0001 0 0 0 46 22 C 46 19.802666 44.197334 18 42 18 z M 8 20 C 9.1241035 20 9.8509903 20.810884 10 22.097656 L 10 30 A 1.0001 1.0001 0 0 0 11 31 L 15 31 C 16.111477 31 17 31.888523 17 33 L 17 41 C 17 41.562937 16.562937 42 16 42 C 15.437063 42 15 41.562937 15 41 L 15 34 A 1.0001 1.0001 0 0 0 14 33 L 8 33 C 6.9542587 33 6.10154 32.215016 6.0097656 31.173828 L 6 21.998047 C 6.0010404 20.882314 6.8839921 20 8 20 z M 42 20 C 43.116666 20 44 20.883334 44 22 L 43.990234 31.173828 C 43.898494 32.215016 43.045741 33 42 33 L 36 33 A 1.0001 1.0001 0 0 0 35 34 L 35 41 C 35 41.562937 34.562937 42 34 42 C 33.437063 42 33 41.562937 33 41 L 33 33 C 33 31.888523 33.888523 31 35 31 L 39 31 A 1.0001 1.0001 0 0 0 40 30 L 40 22.097656 C 40.14901 20.810884 40.875897 20 42 20 z M 0.984375 22.986328 A 1.0001 1.0001 0 0 0 0 24 L 0 32 C 0 35.854334 3.1456661 39 7 39 L 10 39 A 1.0001 1.0001 0 1 0 10 37 L 7 37 C 4.2263339 37 2 34.773666 2 32 L 2 24 A 1.0001 1.0001 0 0 0 0.984375 22.986328 z M 48.984375 22.986328 A 1.0001 1.0001 0 0 0 48 24 L 48 32 C 48 34.773666 45.773666 37 43 37 L 40 37 A 1.0001 1.0001 0 1 0 40 39 L 43 39 C 46.854334 39 50 35.854334 50 32 L 50 24 A 1.0001 1.0001 0 0 0 48.984375 22.986328 z"/></svg>