<svg xmlns="http://www.w3.org/2000/svg" xmlns:xlink="http://www.w3.org/1999/xlink" width="87" height="87" viewBox="0 0 87 87">
  <defs>
    <linearGradient id="linear-gradient" x1="1.19" y1="-0.18" x2="0.045" y2="0.968" gradientUnits="objectBoundingBox">
      <stop offset="0" stop-color="#ff8d8d"/>
      <stop offset="1" stop-color="red"/>
    </linearGradient>
    <filter id="Rectangle_689" x="0" y="0" width="87" height="87" filterUnits="userSpaceOnUse">
      <feOffset input="SourceAlpha"/>
      <feGaussianBlur stdDeviation="5" result="blur"/>
      <feFlood flood-color="#ff6e6e"/>
      <feComposite operator="in" in2="blur"/>
      <feComposite in="SourceGraphic"/>
    </filter>
    <filter id="Rectangle_689-2" x="0" y="0" width="87" height="87" filterUnits="userSpaceOnUse">
      <feOffset dy="-3" input="SourceAlpha"/>
      <feGaussianBlur stdDeviation="3" result="blur-2"/>
      <feFlood flood-opacity="0.161" result="color"/>
      <feComposite operator="out" in="SourceGraphic" in2="blur-2"/>
      <feComposite operator="in" in="color"/>
      <feComposite operator="in" in2="SourceGraphic"/>
    </filter>
  </defs>
  <g id="Group_16" data-name="Group 16" transform="translate(-508 -191.505)">
    <g data-type="innerShadowGroup">
      <g transform="matrix(1, 0, 0, 1, 508, 191.5)" filter="url(#Rectangle_689)">
        <rect id="Rectangle_689-3" data-name="Rectangle 689" width="57" height="57" rx="12" transform="translate(15 15)" fill="url(#linear-gradient)"/>
      </g>
      <g transform="matrix(1, 0, 0, 1, 508, 191.5)" filter="url(#Rectangle_689-2)">
        <rect id="Rectangle_689-4" data-name="Rectangle 689" width="57" height="57" rx="12" transform="translate(15 15)" fill="#fff"/>
      </g>
    </g>
    <g id="alert-triangle-outline" transform="translate(533.491 217.757)">
      <path id="Path_439" data-name="Path 439" d="M33.84,24.45,22.335,5.37a5.145,5.145,0,0,0-8.67,0L2.16,24.45a4.5,4.5,0,0,0-.075,4.5A5.055,5.055,0,0,0,6.5,31.5h23.01a5.055,5.055,0,0,0,4.41-2.49,4.5,4.5,0,0,0-.075-4.56Zm-2.55,3.075a1.965,1.965,0,0,1-1.785.975H6.495a1.965,1.965,0,0,1-1.785-.975,1.5,1.5,0,0,1,0-1.5L16.23,6.93a2.22,2.22,0,0,1,3.54,0l11.5,19.08A1.5,1.5,0,0,1,31.29,27.525Z" fill="#fff"/>
      <path id="Path_440" data-name="Path 440" d="M19.5,24A1.5,1.5,0,1,1,18,22.5,1.5,1.5,0,0,1,19.5,24Z" fill="#fff"/>
      <path id="Path_441" data-name="Path 441" d="M18,12a1.5,1.5,0,0,0-1.5,1.5v6a1.5,1.5,0,0,0,3,0v-6A1.5,1.5,0,0,0,18,12Z" fill="#fff"/>
    </g>
  </g>
</svg>
