<svg id="exit" xmlns="http://www.w3.org/2000/svg" width="31.499" height="24.751" viewBox="0 0 31.499 24.751">
  <path id="Path_383" data-name="Path 383" d="M2.251,26.438V19.125h10.2a1.125,1.125,0,1,0,0-2.25H2.251V9.563A3.942,3.942,0,0,1,6.189,5.625h13.5a3.942,3.942,0,0,1,3.938,3.938V26.438a3.942,3.942,0,0,1-3.938,3.938H6.188A3.942,3.942,0,0,1,2.25,26.438Z" transform="translate(7.873 -5.625)" fill="#fff"/>
  <path id="Path_384" data-name="Path 384" d="M27.465,19.125l3.7,3.7a1.125,1.125,0,0,1-1.59,1.59L23.954,18.8a1.125,1.125,0,0,1,0-1.59l5.625-5.625a1.125,1.125,0,0,1,1.59,1.59l-3.7,3.7h6.284v2.25Z" transform="translate(-23.625 -5.625)" fill="#fff"/>
</svg>
