<svg xmlns="http://www.w3.org/2000/svg" width="47.998" height="48" viewBox="0 0 47.998 48">
  <g id="Layer_1" transform="translate(-1.001 -1)">
    <path id="Path_507" data-name="Path 507" d="M44,19.09V1H42V19.09a5.993,5.993,0,0,0,0,11.82V49h2V30.91a5.993,5.993,0,0,0,0-11.82ZM43,29a4,4,0,1,1,4-4A4,4,0,0,1,43,29Z" fill="#fff"/>
    <path id="Path_508" data-name="Path 508" d="M6,1V8.09A5.993,5.993,0,0,0,6,19.91V49H8V19.91A5.993,5.993,0,0,0,8,8.09V1Zm5,13a4,4,0,1,1-4-4A4,4,0,0,1,11,14Z" fill="#fff"/>
    <path id="Path_509" data-name="Path 509" d="M24,1V31.09a5.993,5.993,0,0,0,0,11.82V49h2V42.91a5.993,5.993,0,0,0,0-11.82V1Zm5,36a4,4,0,1,1-4-4A4,4,0,0,1,29,37Z" fill="#fff"/>
  </g>
</svg>
