<svg xmlns="http://www.w3.org/2000/svg" width="50.024" height="50.059" viewBox="0 0 50.024 50.059">
  <path id="download_3_" data-name="download (3)" d="M7,0a1,1,0,0,0-.9,1.4C6,1.5,9,7.3,9,12a12.6,12.6,0,0,1-1.5,5.7L6.9,19H4a4,4,0,0,0-4,4V48.461a1.905,1.905,0,0,0,.271,1.271c.373.385,1.22.268,1.22.268H48.85s.659.116.946-.15.2-.915.2-.915V23a4,4,0,0,0-4-4H40.9l.5-1A12,12,0,0,0,43,12C43,6.8,40,.8,40,.6a1,1,0,0,0-.8-.6,1,1,0,0,0-1,.3L35.8,2.7,31.5.3a1,1,0,0,0-1.2,0L27.8,2.8,23.5.3a1,1,0,0,0-1.2,0L19.8,2.8,15.5.3a1,1,0,0,0-1.2,0L11.8,2.8,7.5.3A1,1,0,0,0,6.9.1Zm8.2,2.3,4.3,2.5a1,1,0,0,0,1.2,0l2.5-2.5,4.3,2.5a1,1,0,0,0,1.2,0l2.5-2.5,4.3,2.5a1,1,0,0,0,1.2,0l2-2A25.119,25.119,0,0,1,41,12a10.2,10.2,0,0,1-1.4,5A12,12,0,0,0,38,23a28,28,0,0,0,2.4,10H10.7C9.9,31.2,8,26,8,23a10.1,10.1,0,0,1,1.3-4.4A14.5,14.5,0,0,0,11,12,27.281,27.281,0,0,0,8.723,3.235L11.581,6.25c.356.267.764-1.183,1.119-1.45ZM2,23a2.677,2.677,0,0,1,.4-1.626c.476-.552,1.6-.4,1.6-.4H6.434a19.532,19.532,0,0,0,.359,6.488,56.847,56.847,0,0,0,2.933,8.506L44.1,36s-3.025-7.116-3.454-10.526,1.31-4.113,1.31-4.113h4.222s.959-.1,1.278.413A2.42,2.42,0,0,1,47.735,23c0,12.307.073,13.582.073,14.3v7.5a1.5,1.5,0,0,1-1.4,1.2H3.3A1.3,1.3,0,0,1,2,44.7V23ZM15,39a1,1,0,0,0-1,1v2a1,1,0,0,0,1,1h2a1,1,0,0,0,1-1V40a1,1,0,0,0-1-1Zm9,0a1,1,0,0,0-1,1v2a1,1,0,0,0,1,1h2a1,1,0,0,0,1-1V40a1,1,0,0,0-1-1Zm9,0a1,1,0,0,0-1,1v2a1,1,0,0,0,1,1h2a1,1,0,0,0,1-1V40a1,1,0,0,0-1-1Z" transform="translate(0.013 0.033)" fill="#bc0745"/>
</svg>
