<svg xmlns="http://www.w3.org/2000/svg" xmlns:xlink="http://www.w3.org/1999/xlink" width="148" height="148" viewBox="0 0 148 148"><defs><linearGradient id="a" x1="1.192" y1="-0.182" x2="0.045" y2="0.968" gradientUnits="objectBoundingBox"><stop offset="0" stop-color="#8de9ff"/><stop offset="1" stop-color="#00b1ff"/></linearGradient><filter id="b" x="0" y="0" width="148" height="148" filterUnits="userSpaceOnUse"><feOffset input="SourceAlpha"/><feGaussianBlur stdDeviation="5" result="c"/><feFlood flood-color="#60e0ff"/><feComposite operator="in" in2="c"/><feComposite in="SourceGraphic"/></filter><filter id="d" x="0" y="0" width="148" height="148" filterUnits="userSpaceOnUse"><feOffset dy="-3" input="SourceAlpha"/><feGaussianBlur stdDeviation="3" result="e"/><feFlood flood-opacity="0.161" result="f"/><feComposite operator="out" in="SourceGraphic" in2="e"/><feComposite operator="in" in="f"/><feComposite operator="in" in2="SourceGraphic"/></filter></defs><g transform="translate(14166 18579)"><g data-type="innerShadowGroup"><g transform="matrix(1, 0, 0, 1, -14166, -18579)" filter="url(#b)"><rect width="118" height="118" rx="18" transform="translate(15 15)" fill="url(#a)"/></g><g transform="matrix(1, 0, 0, 1, -14166, -18579)" filter="url(#d)"><rect width="118" height="118" rx="18" transform="translate(15 15)" fill="#fff"/></g></g><g transform="translate(-27.661 224.605)"><g transform="translate(-14094 -18761.211)" fill="none"><path d="M4.81,0h49.7a4.81,4.81,0,0,1,4.81,4.81V67.339a4.81,4.81,0,0,1-4.81,4.81H4.81A4.81,4.81,0,0,1,0,67.339V4.81A4.81,4.81,0,0,1,4.81,0Z" stroke="none"/><path d="M 4.809917449951172 3 C 3.811927795410156 3 3 3.811927795410156 3 4.809921264648438 L 3 67.33885955810547 C 3 68.33685302734375 3.811927795410156 69.14878082275391 4.809917449951172 69.14878082275391 L 54.51240921020508 69.14878082275391 C 55.51039886474609 69.14878082275391 56.32232666015625 68.33685302734375 56.32232666015625 67.33885955810547 L 56.32232666015625 4.809921264648438 C 56.32232666015625 3.811927795410156 55.51039886474609 3 54.51240921020508 3 L 4.809917449951172 3 M 4.809917449951172 0 L 54.51240921020508 0 C 57.16884613037109 0 59.32232666015625 2.153472900390625 59.32232666015625 4.809921264648438 L 59.32232666015625 67.33885955810547 C 59.32232666015625 69.99529266357422 57.16884613037109 72.14878082275391 54.51240921020508 72.14878082275391 L 4.809917449951172 72.14878082275391 C 2.153469085693359 72.14878082275391 0 69.99529266357422 0 67.33885955810547 L 0 4.809921264648438 C 0 2.153472900390625 2.153469085693359 0 4.809917449951172 0 Z" stroke="none" fill="#fff"/></g><line x1="36.074" transform="translate(-14082.376 -18714.314)" fill="none" stroke="#fff" stroke-linecap="round" stroke-width="3"/><line x1="36.074" transform="translate(-14082.376 -18703.092)" fill="none" stroke="#fff" stroke-linecap="round" stroke-width="3"/><g transform="translate(-14080.372 -18763)" fill="#56d6ff" stroke-linecap="round" stroke-linejoin="round"><path d="M 28.05785942077637 7.503621101379395 L 4.809919357299805 7.503621101379395 C 2.984819412231445 7.503621101379395 1.499999403953552 6.018801212310791 1.499999403953552 4.193701267242432 L 1.499999403953552 3.392050981521606 C 1.499999403953552 1.566951036453247 2.984819412231445 0.08213108777999878 4.809919357299805 0.08213108777999878 L 8.361309051513672 0.08213108777999878 L 9.517489433288574 0.08213108777999878 L 9.806267738342285 -1.015048265457153 C 9.830253601074219 -1.094784379005432 10.19616889953613 -2.273356199264526 11.16065979003906 -3.410248994827271 C 12.42060947418213 -4.89539909362793 14.12049961090088 -5.648438930511475 16.21311950683594 -5.648438930511475 C 18.33584022521973 -5.648438930511475 20.03221893310547 -4.87372875213623 21.25514984130859 -3.345829010009766 C 22.17294883728027 -2.199148893356323 22.47871017456055 -1.060868859291077 22.48153877258301 -1.049698948860168 L 22.76811027526855 0.08213108777999878 L 23.93564987182617 0.08213108777999878 L 28.05785942077637 0.08213108777999878 C 29.88295936584473 0.08213108777999878 31.36777877807617 1.566951036453247 31.36777877807617 3.392050981521606 L 31.36777877807617 4.193701267242432 C 31.36777877807617 6.018801212310791 29.88295936584473 7.503621101379395 28.05785942077637 7.503621101379395 Z" stroke="none"/><path d="M 16.21311950683594 -4.148439884185791 C 14.59264945983887 -4.148439884185791 13.33430862426758 -3.612939834594727 12.36618995666504 -2.511329650878906 C 11.61148452758789 -1.652549505233765 11.29270172119141 -0.7360568046569824 11.24873924255371 -0.6020164489746094 C 10.90971183776855 0.7244507074356079 9.732702255249023 1.582130193710327 8.361309051513672 1.582130193710327 L 4.809919357299805 1.582130193710327 C 3.811929702758789 1.582130193710327 3 2.394060134887695 3 3.392050266265869 L 3 4.193699836730957 C 3 5.191690444946289 3.811929702758789 6.003620147705078 4.809919357299805 6.003620147705078 L 28.05785942077637 6.003620147705078 C 29.05584907531738 6.003620147705078 29.86777877807617 5.191690444946289 29.86777877807617 4.193699836730957 L 29.86777877807617 3.392050266265869 C 29.86777877807617 2.394060134887695 29.05584907531738 1.582130193710327 28.05785942077637 1.582130193710327 L 23.93564987182617 1.582130193710327 C 22.56240844726562 1.582130193710327 21.36447906494141 0.6497101783752441 21.02742004394531 -0.6815199851989746 C 21.025390625 -0.689539909362793 20.75748825073242 -1.567149877548218 20.08407974243164 -2.408499717712402 C 19.14696884155273 -3.579299926757812 17.88076972961426 -4.148439884185791 16.21311950683594 -4.148439884185791 M 16.21311950683594 -7.148439884185791 C 22.48469924926758 -7.148439884185791 23.93564987182617 -1.417869806289673 23.93564987182617 -1.417869806289673 L 28.05785942077637 -1.417869806289673 C 30.71430015563965 -1.417869806289673 32.86777877807617 0.7356001138687134 32.86777877807617 3.392050266265869 L 32.86777877807617 4.193699836730957 C 32.86777877807617 6.850150108337402 30.71430015563965 9.003620147705078 28.05785942077637 9.003620147705078 L 4.809919357299805 9.003620147705078 C 2.153469085693359 9.003620147705078 0 6.850150108337402 0 4.193699836730957 L 0 3.392050266265869 C 0 0.7356001138687134 2.153469085693359 -1.417869806289673 4.809919357299805 -1.417869806289673 L 8.361309051513672 -1.417869806289673 C 8.361309051513672 -1.417869806289673 9.941539764404297 -7.148439884185791 16.21311950683594 -7.148439884185791 Z" stroke="none" fill="#fff"/></g><path d="M-14160.539-18942l8.434-11.379,10.914,10.885,14.291-17.242" transform="translate(79.735 218.78)" fill="none" stroke="#fff" stroke-linecap="round" stroke-linejoin="round" stroke-width="3"/><g transform="translate(-14083.579 -18726.74)" fill="#fff" stroke="#fff" stroke-width="1"><circle cx="2.806" cy="2.806" r="2.806" stroke="none"/><circle cx="2.806" cy="2.806" r="2.306" fill="none"/></g><g transform="translate(-14064.338 -18726.74)" fill="#fff" stroke="#fff" stroke-width="1"><circle cx="2.806" cy="2.806" r="2.806" stroke="none"/><circle cx="2.806" cy="2.806" r="2.306" fill="none"/></g><g transform="translate(-14075.563 -18737.162)" fill="#fff" stroke="#fff" stroke-width="1"><circle cx="2.806" cy="2.806" r="2.806" stroke="none"/><circle cx="2.806" cy="2.806" r="2.306" fill="none"/></g><g transform="translate(-14050.711 -18742.773)" fill="#fff" stroke="#fff" stroke-width="1"><circle cx="2.806" cy="2.806" r="2.806" stroke="none"/><circle cx="2.806" cy="2.806" r="2.306" fill="none"/></g></g></g></svg>