<svg xmlns="http://www.w3.org/2000/svg" width="29.255" height="33.433" viewBox="0 0 29.255 33.433">
  <path id="order" d="M28.693,23.658c-1.262-1.356-3.622-3.4-3.622-10.07A10.313,10.313,0,0,0,16.716,3.45V2.089a2.089,2.089,0,0,0-4.178,0V3.45A10.311,10.311,0,0,0,4.185,13.582c0,6.68-2.361,8.719-3.622,10.07A2.038,2.038,0,0,0,0,25.075a2.092,2.092,0,0,0,2.1,2.09H27.159a2.091,2.091,0,0,0,2.1-2.09,2.038,2.038,0,0,0-.561-1.417ZM4.407,24.03c1.386-1.827,2.9-4.853,2.908-10.411v-.039a7.314,7.314,0,1,1,14.627,0v.039c.007,5.558,1.522,8.589,2.908,10.411Zm10.218,9.4a4.179,4.179,0,0,0,4.182-4.179H10.451a4.178,4.178,0,0,0,4.178,4.179Z" transform="translate(0 0)" fill="#4caf50"/>
</svg>
