<svg id="_518fa236-f3e3-49ef-b716-ff27d64f6b18" data-name="518fa236-f3e3-49ef-b716-ff27d64f6b18" xmlns="http://www.w3.org/2000/svg" width="29.255" height="27.766" viewBox="0 0 29.255 27.766">
  <path id="Path_8" data-name="Path 8" d="M69.314,112.98a4.771,4.771,0,0,0-4.754,4.754v12.433a4.771,4.771,0,0,0,4.754,4.754h1.1v4.023a1.869,1.869,0,0,0,2.925,1.463l7.314-5.485h8.411a4.771,4.771,0,0,0,4.754-4.754V117.734a4.771,4.771,0,0,0-4.754-4.754Zm0,2.194H89.061a2.544,2.544,0,0,1,2.56,2.56v12.433a2.544,2.544,0,0,1-2.56,2.56H80.285a1.1,1.1,0,0,0-.659.22l-7.021,5.265v-4.388a1.1,1.1,0,0,0-1.1-1.1H69.314a2.544,2.544,0,0,1-2.56-2.56V117.734A2.544,2.544,0,0,1,69.314,115.174Zm3.657,5.118a1.1,1.1,0,1,0,0,2.194H85.4a1.1,1.1,0,1,0,0-2.194Zm0,5.12a1.1,1.1,0,1,0,0,2.194h9.508a1.1,1.1,0,1,0,0-2.194Z" transform="translate(-64.56 -112.98)" fill="#1ad3ff"/>
</svg>
