<svg xmlns="http://www.w3.org/2000/svg"  viewBox="0 0 100 100" width="200px" height="200px"><path fill="#c8ede6" d="M87.2,55.6c0.3-0.6,0.6-1.3,0.8-1.9c2.6-7.8-1.3-17.1-9.7-19.3c-0.9-11.4-8.9-19.2-17.9-20.5 c-10.3-1.5-19.8,5-23,15.5c-3.8-1.3-7.5-1.2-11,0.9c-1.6,0.7-3,1.8-4.3,3.2c-1.9,2.1-3.1,4.7-3.7,7.5c-0.7,0.1-1.5,0.2-2.2,0.5 c-4,1.4-6.6,4.4-7.3,8.9c-0.4,2.8,0.4,5.6,0.9,6.7c1.9,4.5,6.4,7,11,6.3c0.2,0,0.6,0.1,0.8,0.2c0.2,7.1,3.7,13.4,8.9,17 c8.3,5.8,19,4,25.8-3.9c2.9,3,6.3,4.4,10.4,3.9c4-0.5,7.1-2.7,9.4-6.3c1.1,0.3,2.1,0.7,3.1,0.8c4,0.4,7.3-1.2,9.7-4.8 c0.1-0.1,0.2-0.2,0.3-0.3c0.3-0.8,0.7-1.6,1-2.4c0.2-1.2,0.4-2.4,0.4-3.6C90.7,60.5,89.4,57.5,87.2,55.6z"/><path fill="#fdfcef" d="M69.5,37.4c0,0-11.7,0-11.8,0c-2.7,0-4.9-2.2-4.9-4.9c0-2.4,1.7-4.3,3.9-4.8c0-0.2,0-0.4,0-0.6 c0-2.8,2.3-5.1,5.1-5.1c1.7,0,3.1,0.8,4,2c0.2-3.1,3-5.5,6.3-5.1c2.4,0.3,4.3,2.1,4.8,4.5c0.1,0.8,0.1,1.5,0,2.2 c0.6-0.7,1.5-1.1,2.6-1.1c1.8,0,3.4,1.4,3.5,3.3c0.8-0.2,1.8-0.2,2.7,0.2c1.8,0.7,3.2,2.4,3.2,4.4c0.1,2.8-2.1,5.1-4.9,5.1 c-0.2,0-0.9,0-1.1,0H72.7"/><path fill="#472b29" d="M57.7,37.9h11.8c0.3,0,0.5-0.2,0.5-0.5s-0.2-0.5-0.5-0.5H57.7c-2.4,0-4.4-2-4.4-4.4c0-2.1,1.5-3.9,3.5-4.3 c0.3-0.1,0.4-0.3,0.4-0.6c0-0.2,0-0.4,0-0.6c0-2.5,2-4.6,4.6-4.6c1.4,0,2.8,0.7,3.6,1.8c0.1,0.2,0.3,0.2,0.5,0.2 c0.2-0.1,0.3-0.2,0.4-0.4c0.1-1.4,0.8-2.7,1.8-3.5c1.1-0.9,2.5-1.3,3.9-1.1c2.2,0.3,4,1.9,4.4,4.1c0.1,0.7,0.1,1.3,0,2 c0,0.2,0.1,0.4,0.3,0.5c0.2,0.1,0.4,0.1,0.6-0.1c0.6-0.6,1.4-1,2.2-1c1.6,0,2.9,1.2,3,2.8c0,0.1,0.1,0.3,0.2,0.4 c0.1,0.1,0.3,0.1,0.4,0.1c0.8-0.2,1.6-0.1,2.4,0.2c1.7,0.6,2.8,2.2,2.9,3.9c0,1.2-0.4,2.3-1.2,3.2c-0.8,0.9-2,1.3-3.2,1.3H72.7 c-0.3,0-0.5,0.2-0.5,0.5s0.2,0.5,0.5,0.5h11.3c1.5,0,2.9-0.6,3.9-1.7c1-1.1,1.6-2.5,1.5-4c-0.1-2.1-1.5-4.1-3.6-4.8 c-0.8-0.3-1.6-0.4-2.5-0.3c-0.4-1.8-2-3.2-3.9-3.2c-0.7,0-1.4,0.2-1.9,0.5c0-0.4,0-0.8-0.1-1.2c-0.5-2.6-2.6-4.6-5.2-4.9 c-1.7-0.2-3.3,0.3-4.6,1.3c-1,0.8-1.7,2-2,3.2c-1-0.9-2.3-1.4-3.7-1.4c-3.1,0-5.6,2.5-5.6,5.6c0,0.1,0,0.2,0,0.2 c-2.3,0.7-3.8,2.8-3.8,5.2C52.4,35.5,54.8,37.9,57.7,37.9z"/><path fill="#fdfcef" d="M72.3,26.7c1.8-0.1,3.4,1.1,3.5,2.8c0,0.2,0,0.4,0,0.6c0.3-0.4,0.9-0.7,1.5-0.7c1.1-0.1,2,0.6,2.2,1.6 c0.2-0.1,0.4-0.1,0.6-0.1c1.6-0.1,2.9,1,3,2.4"/><path fill="#472b29" d="M83.1,33.6C83.1,33.6,83.1,33.6,83.1,33.6c0.2,0,0.3-0.1,0.3-0.3c-0.1-1.6-1.6-2.8-3.3-2.7 c-0.1,0-0.3,0-0.4,0.1c-0.3-1-1.3-1.6-2.4-1.6c-0.4,0-0.8,0.2-1.2,0.4c0,0,0,0,0-0.1c-0.1-1.8-1.8-3.2-3.7-3 c-0.1,0-0.2,0.1-0.2,0.3c0,0.1,0.1,0.3,0.3,0.2c1.7-0.1,3.1,1,3.2,2.6c0,0.2,0,0.4,0,0.6c0,0.1,0,0.2,0.1,0.3s0.2,0,0.3-0.1 c0.3-0.4,0.8-0.6,1.3-0.6c1,0,1.8,0.6,1.9,1.4c0,0.1,0.1,0.1,0.1,0.2c0.1,0,0.1,0.1,0.2,0c0.2-0.1,0.4-0.1,0.6-0.1 c1.4-0.1,2.7,0.9,2.8,2.2C82.8,33.5,82.9,33.6,83.1,33.6z"/><path fill="#fdfcef" d="M55.8,28.3c1.7-0.8,3.7-0.2,4.4,1.3c0.1,0.2,0.2,0.4,0.2,0.6"/><path fill="#472b29" d="M60.4,30.4C60.4,30.4,60.4,30.4,60.4,30.4c0.2,0,0.3-0.2,0.2-0.3c0-0.2-0.1-0.4-0.2-0.6 c-0.8-1.6-2.9-2.2-4.7-1.4c-0.1,0.1-0.2,0.2-0.1,0.3c0.1,0.1,0.2,0.2,0.3,0.1c1.6-0.7,3.4-0.2,4.1,1.1c0.1,0.2,0.1,0.3,0.2,0.5 C60.1,30.3,60.2,30.4,60.4,30.4z"/><g><path fill="#fabf82" d="M75.5,63.7c-0.5-0.3-6.8-2.5-6.8-2.5c-0.4-0.1-0.6-0.4-0.7-0.8c-0.2-1-0.2-3.5-0.2-3.9c0,0,0-0.1-0.1-0.1 h-0.2h-5.8h-0.2c0,0-0.1,0-0.1,0.1c0,0.4,0,2.8-0.2,3.9c-0.1,0.4-0.3,0.7-0.7,0.8l-5.2,1.8c-0.5,0.1-1,0.3-1.4,0.6 c-2.3,1.5-2.3,3.9-2.4,4.3c0,0,0,0.1,0.1,0.1h13.1h13.1c0,0,0.1,0,0.1-0.1C77.7,67.4,77.6,65.2,75.5,63.7z"/><path fill="#472b29" d="M67.8,56.4C67.8,56.4,67.9,56.4,67.8,56.4c0.1,0.5,0,3,0.2,4c0.1,0.4,0.3,0.7,0.7,0.8c0,0,6.3,2.2,6.8,2.5 c2.1,1.5,2.1,3.8,2.2,4.2c0,0,0,0.1-0.1,0.1H64.6H51.6c0,0-0.1,0-0.1-0.1c0.1-0.4,0.2-2.9,2.4-4.3c0.4-0.3,0.9-0.5,1.4-0.6 l5.2-1.8c0.4-0.1,0.6-0.4,0.7-0.8c0.2-1.1,0.2-3.5,0.2-3.9c0,0,0-0.1,0.1-0.1h0.2h5.8L67.8,56.4 M67.8,55.6h-0.2h-5.8h-0.2 c-0.2,0-0.4,0.1-0.6,0.2c-0.1,0.2-0.2,0.3-0.2,0.6c0,1.3,0,3-0.2,3.8c0,0.2-0.1,0.2-0.2,0.2l0,0l0,0l-5.1,1.8 c-0.6,0.2-1.2,0.4-1.6,0.7c-2.3,1.5-2.6,3.8-2.7,4.6c0,0.1,0,0.1,0,0.2c0,0.2,0,0.5,0.2,0.7c0.2,0.2,0.4,0.3,0.6,0.3h13.1h13.1 c0.2,0,0.5-0.1,0.6-0.3c0.2-0.2,0.2-0.4,0.2-0.7c0,0,0-0.1,0-0.2c-0.1-0.8-0.4-3-2.5-4.5c-0.5-0.3-4.6-1.8-7-2.6l0,0l0,0 c0,0-0.1,0-0.2-0.2c-0.1-0.7-0.2-2.4-0.2-3.8c0-0.2-0.1-0.4-0.2-0.6C68.2,55.7,68,55.6,67.8,55.6L67.8,55.6z"/><path fill="#fddbbc" d="M74.6,48.7c0.1-0.4,0.2-0.8,0.3-1.1c0.2-0.5,0.1-0.8-0.5-1.1c0,0,0,0-0.1,0c-0.1,0-0.2,0-0.2,0 c-0.5-0.1-1.4-0.1-1.6-0.6c-0.3-0.6-0.1-1.2-0.1-1.8c0.1-0.7-0.2-1.3-0.2-2c0-0.1-0.1-0.1-0.1-0.2c-0.1-1-0.4-1.9-0.8-2.8 c-1.4-1.8-3.9-3-6.8-3c-4.3,0-7.8,2.7-7.8,5.9c0,0.2,0,0.3,0,0.5c0,0.6-0.1,1.1-0.1,1.8c0,0.6-0.1,1,0,1.8c0,0.4-0.2,0.2-0.9,0.2 c-0.1,0-0.2,0-0.3,0c-0.8,0-1.4,0.5-1.5,1.1c0.1,0.1,0.2,0.1,0.2,0.3c0.3,1.1,0.2,2.4,0.8,3.4c0.3,0.6,0.8,0.7,1.3,1 c0.3,0.2,0.3,0.4,0.4,0.7c0.3,1.1,1.1,2.1,1.9,2.9c0.4,0.4,0.9,0.8,1.4,1.2c0.4,0.3,0.8,0.7,1.3,0.9c0.2,0.1,0.3,0.2,0.3,0.3 c0.3,0.2,0.8,0.4,0.8,0.4c1.5,0.6,3,0.7,4.6,0c0,0,0,0,0,0c0,0,0.8-0.4,1.1-0.5c0,0,0.1-0.1,0.1-0.1c0.5-0.4,1-0.7,1.5-1.1 c0.4-0.3,0.7-0.7,1-1c-0.1-0.2,0.1,0,0.2-0.2c0.7-0.8,1.3-2,1.4-3.1c0-0.1,0-0.1,0.1-0.1c-0.1-0.3,0.1-0.4,0.5-0.4 c0.4,0,0.6-0.4,0.9-0.6C74.1,50.4,74.4,49.5,74.6,48.7z"/><path fill="#8e7469" d="M72.8,48c0-0.1,0-0.3,0-0.4l1,0.2l-0.4,1.8L73,49.5l0.3-1.4L72.8,48z" opacity=".8"/><path fill="#472b29" d="M74.1,46.2c-0.3-0.1-0.7-0.1-1.1-0.1c0,0-0.1,0-0.1,0c-0.2,0-0.4-0.3-0.4-0.6c0-0.6-0.1-1.2,0-1.8 c0-0.6-0.1-0.9-0.2-1.3c0-0.2,0-0.3,0-0.5c0-3.4-3.5-6.1-7.8-6.1c-4.3,0-7.8,2.7-7.8,6.1c0,0.2,0,0.3,0,0.5c0,0.6-0.1,1.1-0.1,1.8 c0,0.6-0.1,1,0,1.8c0,0.4-0.2,0.2-0.9,0.2c-0.1,0-0.2,0-0.3,0c-0.9,0.1-1.7,0.8-1.5,1.6c0.2,0.9,0.4,1.9,0.6,2.8 c0.2,0.9,0.7,1.7,1.8,1.8c0.1,1.2,0.4,1.8,1.2,2.7c1,1.3,2.2,2.3,3.7,3.1c0.2,0.1,1.1,0.6,1.1,0.6c1.5,0.6,3,0.7,4.6,0 c0,0,0,0,0,0c0,0,1-0.5,1.2-0.6c0.7-0.5,1.5-1,2.1-1.6c1.3-1.2,2.5-2.4,2.6-4.2c1.1-0.1,1.5-0.8,1.8-1.7c0.2-0.9,0.4-1.8,0.6-2.6 C75.4,47,75,46.4,74.1,46.2z M56.5,51.6c-0.5,0-0.9-0.2-1.1-0.8c-0.3-0.8-0.7-2.6-0.7-2.6c-0.4-1.3,0.4-1.8,1.8-1.6v0.7 c0,0,0,0.6,0,0.6L56.5,51.6L56.5,51.6z M72.2,52.5c0,0.3-0.1,0.7-0.2,1c-1.5,2.5-3.7,4.4-6.7,5.1c-1.1,0.3-2.1-0.1-3-0.6 c-1.9-0.9-3.5-2.3-4.7-4c-0.4-0.6-0.6-1.2-0.6-1.9c0-0.9,0-1.8,0-2.7c0-0.1,0-0.2,0-0.3c-0.2-2.5,0.3-7.2,0.3-7.3 c0-3,3.2-5.5,7.2-5.5c4,0,7.3,2.5,7.3,5.5c0,0.1,0,0.1,0,0.2c0.3,0.3,0.1,2.7,0.4,3.9c0,0.1,0,0.3,0,0.4 C72.3,48.4,72.3,50.4,72.2,52.5z M74.7,47.7c-0.2,1.1-0.4,2.1-0.7,3.1c-0.2,0.6-0.5,0.8-1.1,0.8V48c0,0,0,0,0,0c0,0,0,0,0,0v-0.8 c0,0,0,0,0,0v-0.6c0.3,0,0.6,0,0.9,0C74.4,46.7,74.8,47.1,74.7,47.7z"/><path fill="#8e7469" d="M56.6,48.4c0-0.1,0-0.3,0-0.4l-1,0.2l0.4,1.8l0.4-0.1l-0.3-1.5L56.6,48.4z" opacity=".8"/><path fill="#472b29" d="M64.6 51.6c.5 0 1-.2 1.3-.6 0 0 0-.1 0-.1l0 0c0 0-.1 0-.1 0-.3.3-.7.5-1.2.5-.5 0-.9-.2-1.2-.5 0 0 0 0-.1 0 0 0 0 0-.1 0 0 0 0 .1 0 .1C63.6 51.4 64.1 51.6 64.6 51.6zM63 44.7l.3-.6c-1.4-.3-3-.3-4.3.1l.4.6C60.5 44.4 61.8 44.4 63 44.7zM69.9 44.7l.3-.6c-1.4-.3-3-.3-4.3.1l.4.6C67.4 44.4 68.8 44.4 69.9 44.7zM61 45.6c-.3 0-.6.2-.8.5 0 0 .1 0 .1 0 .3 0 .5.2.5.5 0 .3-.2.5-.5.5-.1 0-.2 0-.2-.1.1.5.5.9.9.9.5 0 1-.5 1-1.2C61.9 46.1 61.5 45.6 61 45.6zM68.2 45.6c-.3 0-.5.2-.7.4.1 0 .1 0 .2 0 .3 0 .5.2.5.5 0 .3-.2.5-.5.5-.2 0-.3-.1-.4-.2 0 .7.4 1.2.9 1.2.5 0 .9-.5.9-1.2C69.2 46.1 68.7 45.6 68.2 45.6zM68.6 53c0 0 0-.1 0-.1l0 0c0 0-.1 0-.1 0-.9.7-2.3 1.1-3.9 1.1-1.6 0-3-.4-3.9-1.1 0 0 0 0-.1 0 0 0-.1 0-.1 0 0 0 0 .1 0 .1 1 .8 2.5 1.2 4 1.2C66.2 54.2 67.7 53.8 68.6 53z"/><path fill="#ee3e54" d="M75.6,63.6c-0.5-0.3-1.1-0.6-1.7-0.8l-0.6-0.2c0,0,0,0,0,0L70,61.6c-1.7,0.5-3.5,0.7-5.3,0.7S61,62,59.3,61.6 L56,62.7c0,0,0,0,0,0l-0.6,0.2c-0.5,0.1-1,0.3-1.5,0.6c-2.3,1.5-2.3,3.9-2.4,4.4c0,0,0,0.1,0.1,0.1h13.1h13.1c0,0,0.1,0,0.1-0.1 C77.8,67.4,77.7,65.1,75.6,63.6z"/><path fill="#472b29" d="M64.6 62.5c-1.8 0-3.8-.3-5.7-.8-.1 0-.2-.1-.1-.2 0-.1.1-.2.2-.1 1.8.5 3.8.8 5.6.8.7 0 1.4 0 2-.1.1 0 .2.1.2.2 0 .1-.1.2-.2.2C66 62.4 65.3 62.5 64.6 62.5zM68 62.2c-.1 0-.2-.1-.2-.2 0-.1.1-.2.2-.2.1 0 .3 0 .4-.1.1 0 .3 0 .4-.1.1 0 .2 0 .2.1 0 .1 0 .2-.1.2-.1 0-.3 0-.4.1C68.3 62.1 68.2 62.2 68 62.2 68 62.2 68 62.2 68 62.2zM51.6 68.1C51.6 68.1 51.5 68 51.6 68.1c-.1 0-.1-.1-.1-.2l3.5-5.3c0 0 .1-.1.2 0s.1.1 0 .2L51.6 68.1C51.7 68 51.6 68.1 51.6 68.1zM52.7 68.2C52.7 68.2 52.6 68.2 52.7 68.2c-.1 0-.1-.1-.1-.2l3.9-6c0-.1.1-.1.2 0s.1.1 0 .2L52.7 68.2C52.7 68.2 52.7 68.2 52.7 68.2zM54 68.1C54 68.1 54 68 54 68.1c-.1 0-.1-.1-.1-.2l3.9-6c0 0 .1-.1.2 0 .1 0 .1.1 0 .2L54 68.1C54.1 68 54.1 68.1 54 68.1zM55.1 68.2C55.1 68.2 55.1 68.2 55.1 68.2c-.1 0-.1-.1-.1-.2l3.9-6c0-.1.1-.1.2 0s.1.1 0 .2L55.1 68.2C55.2 68.2 55.2 68.2 55.1 68.2zM56.3 68.4C56.2 68.4 56.2 68.4 56.3 68.4c-.1 0-.1-.1-.1-.2L59 64c0 0 .1-.1.2 0 .1 0 .1.1 0 .1L56.3 68.4C56.3 68.3 56.3 68.4 56.3 68.4zM57.4 68.5C57.4 68.5 57.4 68.5 57.4 68.5c-.1 0-.1-.1-.1-.2l1.4-2.1c0-.1.1-.1.2 0 .1 0 .1.1 0 .2L57.4 68.5C57.5 68.5 57.5 68.5 57.4 68.5z"/><g><path fill="#512c2b" d="M65.5,56.4c0,0,0.1-0.1,0.1-0.1s0-0.1-0.1-0.1h-1.9c0,0-0.1,0.1-0.1,0.1s0,0.1,0.1,0.1H65.5z"/></g><g><path fill="#512c2b" d="M55.4,38.3c0.3-0.7,1.2-0.8,1.2-0.8s-0.8-1-0.5-1.5s3.2-3.8,10.2-3s7.9,5.2,7.9,5.2l-1.4,8.2 c0,0-2.8-8.2-14.1-6.6c0,0,0.5,1-1.9,5.2L55.4,38.3L55.4,38.3z"/></g></g><g><path fill="#be7841" d="M32.9,47.6c-0.1-0.3-2.8-6.2-0.8-10.3c0.9-1.7,2.4-2.9,4.7-3.4c1.3-0.9,2.8-1.3,4.3-1.3c1.3,0,2.5,0.3,3.7,1 c0.6,0.3,1.1,0.6,1.5,0.9c1.3,0.8,1.7,1,2.5,1c0.1,0,0.2,0,0.3,0c0.2,0,0.3,0,0.4,0c0.8,0,1,0.5,1,0.8c0.1,0.8-0.2,1.5-0.4,2.1 c-0.2,0.5-0.4,0.9-0.3,1.3c1.4,4.4-0.8,8-0.8,8.2L48,49.2l0-1.8c0,0,0-3.2-0.7-5.4c-1,0.5-2.3,0.8-3.6,0.8c-2.4,0-5-0.8-7.6-2.4 c-2.2,1.8-2.2,6.9-2.2,7l0,2.3L32.9,47.6z"/><path fill="#472b29" d="M41.1,33.1c1.1,0,2.3,0.3,3.4,0.9c2.6,1.4,3.1,1.9,4.2,1.9c0.1,0,0.2,0,0.3,0c0.1,0,0.3,0,0.4,0 c0.3,0,0.5,0.1,0.5,0.3c0.2,1.3-1,2.4-0.7,3.4c1.3,4.3-0.8,7.8-0.8,7.8s0-3.9-1-6.1c-1,0.7-2.4,1-3.9,1c-2.3,0-4.9-0.8-7.6-2.6 c-2.7,1.8-2.7,7.6-2.7,7.6s-5.1-11.1,3.6-13C38.1,33.6,39.5,33.1,41.1,33.1 M41.1,32.1v1V32.1c-1.6,0-3.2,0.5-4.5,1.4 c-2.3,0.5-4,1.8-4.9,3.6c-2.1,4.3,0.7,10.5,0.8,10.7l1.9,4.2l0-4.6c0-1.3,0.3-4.8,1.8-6.4c2.6,1.5,5.2,2.3,7.5,2.3 c1.2,0,2.3-0.2,3.3-0.6c0.6,2,0.5,4.6,0.5,4.7l0,3.6l1.9-3.1c0.1-0.2,2.3-3.9,0.9-8.6c-0.1-0.2,0.1-0.6,0.3-0.9 c0.3-0.6,0.6-1.4,0.4-2.3c0-0.2-0.2-1.2-1.5-1.2c-0.1,0-0.2,0-0.4,0l-0.1,0c-0.1,0-0.2,0-0.2,0c-0.6,0-0.9-0.2-2.2-0.9 c-0.4-0.2-0.9-0.5-1.5-0.9C43.8,32.4,42.5,32.1,41.1,32.1L41.1,32.1z"/><path fill="#fabf82" d="M51.8,63.6c-0.5-0.3-6.8-2.5-6.8-2.5c-0.4-0.1-0.6-0.4-0.7-0.8c-0.2-1-0.2-3.5-0.2-3.9c0,0,0-0.1-0.1-0.1 h-0.2H38h-0.2c0,0-0.1,0-0.1,0.1c0,0.4,0,2.8-0.2,3.9c-0.1,0.4-0.3,0.7-0.7,0.8l-5.1,1.8c-0.5,0.1-1,0.3-1.4,0.6 c-2.3,1.5-2.3,3.9-2.4,4.3c0,0,0,0.1,0.1,0.1h13.1H54c0,0,0.1,0,0.1-0.1C54,67.4,53.9,65.1,51.8,63.6z"/><path fill="#472b29" d="M44.1,56.3C44.1,56.3,44.2,56.3,44.1,56.3c0.1,0.5,0,3,0.2,4c0.1,0.4,0.3,0.7,0.7,0.8c0,0,6.3,2.2,6.8,2.5 c2.1,1.5,2.1,3.7,2.2,4.2c0,0,0,0.1-0.1,0.1H40.9H27.9c0,0-0.1,0-0.1-0.1c0.1-0.4,0.2-2.8,2.4-4.3c0.4-0.3,0.9-0.5,1.4-0.6 l5.2-1.8c0.4-0.1,0.6-0.4,0.7-0.8c0.2-1.1,0.2-3.5,0.2-3.9c0,0,0-0.1,0.1-0.1H38h5.8H44.1 M44.1,55.6h-0.2H38h-0.2 c-0.2,0-0.4,0.1-0.6,0.2C37.1,56,37,56.2,37,56.4c0,1.3,0,3-0.2,3.8c0,0.2-0.1,0.2-0.2,0.2l0,0l0,0l-5.1,1.8 c-0.6,0.2-1.2,0.4-1.6,0.7c-2.3,1.5-2.6,3.8-2.7,4.6c0,0.1,0,0.1,0,0.2c0,0.2,0,0.5,0.2,0.7c0.2,0.2,0.4,0.3,0.6,0.3h13.1H54 c0.2,0,0.5-0.1,0.6-0.3c0.2-0.2,0.2-0.4,0.2-0.7c0,0,0-0.1,0-0.2c-0.1-0.8-0.4-3-2.5-4.4c-0.5-0.3-4.6-1.8-7-2.6l0,0l0,0 c0,0-0.1,0-0.2-0.2c-0.1-0.7-0.2-2.4-0.2-3.8c0-0.2-0.1-0.4-0.2-0.6C44.5,55.7,44.3,55.6,44.1,55.6L44.1,55.6z"/><path fill="#fddbbc" d="M50.9,48.7c0.1-0.4,0.2-0.8,0.3-1.1c0.2-0.5,0.1-0.8-0.5-1.1c0,0,0,0-0.1,0c-0.1,0-0.2,0-0.2,0 c-0.5-0.1-1.4-0.1-1.6-0.6c-0.3-0.6-0.1-1.2-0.1-1.8c0.1-0.7-0.2-1.3-0.2-2c0-0.1-0.1-0.1-0.1-0.2c-0.1-1-0.4-1.9-0.8-2.8 c-1.4-1.8-3.9-3-6.8-3c-4.3,0-7.8,2.7-7.8,5.9c0,0.2,0,0.3,0,0.5c0,0.6-0.1,1.1-0.1,1.8c0,0.6-0.1,1,0,1.7c0,0.4-0.2,0.2-0.9,0.2 c-0.1,0-0.2,0-0.3,0c-0.8,0-1.4,0.5-1.5,1.1c0.1,0.1,0.2,0.1,0.2,0.3c0.3,1.1,0.2,2.4,0.8,3.4c0.3,0.6,0.8,0.7,1.3,1 c0.3,0.2,0.3,0.4,0.4,0.7c0.3,1.1,1.1,2.1,1.9,2.9c0.4,0.4,0.9,0.8,1.4,1.2c0.4,0.3,0.8,0.7,1.3,0.9c0.2,0.1,0.3,0.2,0.3,0.3 c0.3,0.2,0.8,0.4,0.8,0.4c1.5,0.6,3,0.7,4.6,0c0,0,0,0,0,0c0,0,0.8-0.4,1.1-0.5c0,0,0.1-0.1,0.1-0.1c0.5-0.4,1-0.7,1.5-1.1 c0.4-0.3,0.7-0.7,1-1c-0.1-0.2,0.1,0,0.2-0.2c0.7-0.8,1.3-2,1.4-3c0-0.1,0-0.1,0.1-0.1c-0.1-0.3,0.1-0.4,0.5-0.4 c0.4,0,0.6-0.4,0.9-0.6C50.4,50.3,50.7,49.5,50.9,48.7z"/><path fill="#8e7469" d="M49.1,48c0-0.1,0-0.3,0-0.4l1,0.2l-0.4,1.7l-0.4-0.1l0.3-1.4L49.1,48z" opacity=".8"/><path fill="#472b29" d="M50.4,46.1c-0.3-0.1-0.7-0.1-1.1-0.1c0,0-0.1,0-0.1,0c-0.2,0-0.4-0.3-0.4-0.6c0-0.6-0.1-1.2,0-1.8 c0-0.6-0.1-0.9-0.2-1.3c0-0.2,0-0.3,0-0.5c0-3.3-3.5-6.1-7.8-6.1S33,38.5,33,41.8c0,0.2,0,0.3,0,0.5c0,0.6-0.1,1.1-0.1,1.8 c0,0.6-0.1,1,0,1.8c0,0.4-0.2,0.2-0.9,0.2c-0.1,0-0.2,0-0.3,0c-0.9,0.1-1.6,0.8-1.5,1.6c0.2,0.9,0.4,1.9,0.6,2.8 c0.2,0.9,0.7,1.6,1.8,1.8c0.1,1.2,0.4,1.8,1.2,2.7c1,1.3,2.2,2.3,3.7,3.1c0.2,0.1,1.1,0.6,1.1,0.6c1.5,0.6,3,0.7,4.6,0 c0,0,0,0,0,0c0,0,1-0.5,1.2-0.6c0.7-0.5,1.5-1,2.1-1.6c1.3-1.2,2.5-2.4,2.6-4.2c1.1-0.1,1.5-0.8,1.8-1.7c0.2-0.9,0.4-1.8,0.6-2.6 C51.7,47,51.3,46.4,50.4,46.1z M32.8,51.6c-0.5,0-0.9-0.2-1.1-0.8c-0.3-0.8-0.7-2.5-0.7-2.6c-0.4-1.3,0.4-1.8,1.8-1.5v0.7 c0,0,0,0.6,0,0.6L32.8,51.6L32.8,51.6z M48.5,52.4c0,0.3-0.1,0.7-0.2,1c-1.5,2.5-3.7,4.4-6.7,5.1c-1.1,0.3-2.1-0.1-3-0.5 c-1.9-0.9-3.5-2.3-4.7-4c-0.4-0.6-0.6-1.2-0.6-1.9c0-0.9,0-1.8,0-2.7c0-0.1,0-0.2,0-0.3c-0.2-2.5,0.3-7.2,0.3-7.3 c0-3,3.2-5.5,7.2-5.5s7.3,2.5,7.3,5.5c0,0.1,0,0.1,0,0.2c0.3,0.3,0.1,2.7,0.4,3.9c0,0.1,0,0.3,0,0.4 C48.6,48.4,48.6,50.4,48.5,52.4z M51,47.6c-0.2,1.1-0.4,2.1-0.7,3.1c-0.2,0.6-0.5,0.8-1.1,0.8V48c0,0,0,0,0,0c0,0,0,0,0,0v-0.8 c0,0,0,0,0,0v-0.6c0.3,0,0.6,0,0.9,0C50.7,46.6,51.1,47.1,51,47.6z"/><path fill="#8e7469" d="M32.9,48.3c0-0.1,0-0.3,0-0.4l-1,0.2l0.4,1.8l0.4-0.1l-0.3-1.5L32.9,48.3z" opacity=".8"/><path fill="#472b29" d="M40.9 51.5c.5 0 1-.2 1.3-.6 0 0 0-.1 0-.1l0 0c0 0-.1 0-.1 0-.3.3-.7.5-1.2.5-.5 0-.9-.2-1.2-.5 0 0 0 0-.1 0 0 0 0 0-.1 0 0 0 0 .1 0 .1C39.9 51.3 40.4 51.5 40.9 51.5zM39.3 44.6l.3-.6c-1.4-.3-3-.3-4.3.1l.4.6C36.8 44.4 38.1 44.4 39.3 44.6zM46.2 44.6l.3-.6c-1.4-.3-3-.3-4.3.1l.4.6C43.7 44.4 45.1 44.4 46.2 44.6zM37.3 45.5c-.3 0-.6.2-.8.5 0 0 .1 0 .1 0 .3 0 .5.2.5.5 0 .3-.2.5-.5.5-.1 0-.2 0-.2-.1.1.5.5.9.9.9.5 0 1-.5 1-1.2C38.2 46.1 37.8 45.5 37.3 45.5zM44.5 45.5c-.3 0-.5.2-.7.4.1 0 .1 0 .2 0 .3 0 .5.2.5.5 0 .3-.2.5-.5.5-.2 0-.3-.1-.4-.2 0 .6.4 1.2.9 1.2.5 0 1-.5 1-1.2S45 45.5 44.5 45.5zM44.9 52.9c0 0 0-.1 0-.1l0 0c0 0-.1 0-.1 0-.9.7-2.3 1.1-3.9 1.1s-3-.4-3.9-1.1c0 0 0 0-.1 0 0 0-.1 0-.1 0 0 0 0 .1 0 .1 1 .8 2.5 1.2 4 1.2C42.5 54.2 44 53.7 44.9 52.9z"/><path fill="#68c8d0" d="M51.9,63.5c-0.5-0.3-1.1-0.6-1.7-0.8l-0.6-0.2c0,0,0,0,0,0l-3.3-1.1c-1.7,0.5-3.5,0.7-5.3,0.7 c-1.9,0-3.7-0.2-5.3-0.7l-3.3,1.1c0,0,0,0,0,0l-0.6,0.2c-0.5,0.1-1,0.3-1.5,0.6c-2.3,1.5-2.3,3.9-2.4,4.4c0,0,0,0.1,0.1,0.1H41 h13.1c0,0,0.1,0,0.1-0.1C54.1,67.3,54,65,51.9,63.5z"/><path fill="#472b29" d="M40.9 62.4c-1.8 0-3.8-.3-5.7-.8-.1 0-.2-.1-.1-.2 0-.1.1-.2.2-.1 1.8.5 3.8.8 5.6.8.7 0 1.4 0 2-.1.1 0 .2.1.2.2 0 .1-.1.2-.2.2C42.3 62.4 41.6 62.4 40.9 62.4zM44.3 62.1c-.1 0-.2-.1-.2-.2 0-.1.1-.2.2-.2.1 0 .3 0 .4-.1.1 0 .3 0 .4-.1.1 0 .2 0 .2.1 0 .1 0 .2-.1.2-.1 0-.3 0-.4.1C44.6 62.1 44.5 62.1 44.3 62.1 44.3 62.1 44.3 62.1 44.3 62.1zM27.9 68C27.9 68 27.8 68 27.9 68c-.1 0-.1-.1-.1-.2l3.5-5.3c0 0 .1-.1.2 0s.1.1 0 .2L27.9 68C28 68 27.9 68 27.9 68zM29 68.2C29 68.2 28.9 68.1 29 68.2c-.1 0-.1-.1-.1-.2l3.9-6c0-.1.1-.1.2 0s.1.1 0 .2L29 68.2C29 68.1 29 68.2 29 68.2zM30.3 68C30.3 68 30.3 68 30.3 68c-.1 0-.1-.1-.1-.2l3.9-6c0 0 .1-.1.2 0 .1 0 .1.1 0 .2L30.3 68C30.4 68 30.4 68 30.3 68zM31.4 68.2C31.4 68.2 31.4 68.1 31.4 68.2c-.1 0-.1-.1-.1-.2l3.9-6c0-.1.1-.1.2 0s.1.1 0 .2L31.4 68.2C31.5 68.1 31.5 68.2 31.4 68.2zM32.6 68.3C32.5 68.3 32.5 68.3 32.6 68.3c-.1 0-.1-.1-.1-.2l2.8-4.2c0 0 .1-.1.2 0 .1 0 .1.1 0 .2L32.6 68.3C32.6 68.3 32.6 68.3 32.6 68.3zM33.7 68.4C33.7 68.4 33.7 68.4 33.7 68.4c-.1 0-.1-.1-.1-.2l1.4-2.1c0-.1.1-.1.2 0 .1 0 .1.1 0 .2L33.7 68.4C33.8 68.4 33.8 68.4 33.7 68.4z"/><g><path fill="#512c2b" d="M41.8,56.3c0,0,0.1-0.1,0.1-0.1s0-0.1-0.1-0.1h-1.9c0,0-0.1,0.1-0.1,0.1s0,0.1,0.1,0.1H41.8z"/></g><g><path fill="#be7841" d="M50,36.2c-0.1-0.4-0.5-0.3-0.9-0.3c-1.4,0.1-1.7-0.4-4.5-1.9c-2.8-1.5-5.6-0.9-7.5,0.4 c-8.7,1.9-3.6,13-3.6,13s0-5.8,2.7-7.6c4.5,2.9,8.9,3.2,11.5,1.5c1,2.2,1,6.1,1,6.1s2.1-3.5,0.8-7.8C49,38.6,50.2,37.6,50,36.2 L50,36.2z"/></g><g><path fill="#472b29" d="M33,47.4c0-0.2,0-6,2.8-7.8c0.1-0.1,0.2-0.1,0.3,0c4.3,2.7,8.7,3.3,11.4,1.5c0.1,0,0.1,0,0.2,0 c0.1,0,0.1,0.1,0.2,0.1c1,2.2,1,6,1,6.2l-0.5,0c0,0,0-3.6-0.9-5.7c-2.9,1.7-7.3,1.1-11.6-1.6c-2.5,1.8-2.5,7.3-2.5,7.3L33,47.4z"/></g></g><g><path fill="#fdfcef" d="M31.2,77.3c1.9,0,3.5,0,3.5,0c2.1,0,3.8-1.7,3.8-3.7c0-1.8-1.3-3.3-3-3.7c0-0.2,0-0.3,0-0.5 c0-2.1-1.8-3.9-4-3.9c-1.3,0-2.4,0.6-3.2,1.5c-0.2-2.4-2.4-4.2-4.9-3.9c-1.9,0.2-3.4,1.6-3.7,3.4c-0.1,0.6-0.1,1.1,0,1.7 c-0.5-0.5-1.2-0.9-2-0.9c-1.4,0-2.6,1.1-2.7,2.5c-0.7-0.1-1.4-0.1-2.1,0.1c-1.4,0.5-2.5,1.9-2.5,3.4c-0.1,2.1,1.7,3.9,3.8,3.9 c0.2,0,0.7,0,0.9,0h7.9 M24.7,77.3h0.4"/><path fill="#472b29" d="M34.7,77.8h-3.5c-0.3,0-0.5-0.2-0.5-0.5s0.2-0.5,0.5-0.5h3.5c1.8,0,3.3-1.5,3.3-3.2c0-1.5-1.1-2.9-2.6-3.2 c-0.3-0.1-0.4-0.3-0.4-0.6c0-0.1,0-0.3,0-0.4c0-1.9-1.6-3.4-3.5-3.4c-1.1,0-2.1,0.5-2.8,1.3c-0.1,0.2-0.3,0.2-0.5,0.2 c-0.2-0.1-0.3-0.2-0.4-0.4c-0.1-1-0.6-1.9-1.4-2.6c-0.8-0.7-1.9-1-3-0.9c-1.6,0.2-3,1.4-3.3,3c-0.1,0.5-0.1,1,0,1.5 c0,0.2-0.1,0.4-0.3,0.5c-0.2,0.1-0.4,0.1-0.6-0.1c-0.4-0.5-1-0.7-1.6-0.7c-1.2,0-2.1,0.9-2.2,2c0,0.1-0.1,0.3-0.2,0.4 c-0.1,0.1-0.3,0.1-0.4,0.1c-0.6-0.1-1.2-0.1-1.8,0.1c-1.3,0.5-2.1,1.6-2.2,2.9c0,0.9,0.3,1.7,0.9,2.3c0.6,0.7,1.5,1,2.4,1h8.8 c0.3,0,0.5,0.2,0.5,0.5s-0.2,0.5-0.5,0.5h-8.8c-1.2,0-2.3-0.5-3.1-1.3c-0.8-0.8-1.2-1.9-1.2-3.1c0.1-1.7,1.2-3.2,2.8-3.8 c0.6-0.2,1.2-0.3,1.9-0.2c0.3-1.4,1.6-2.4,3.1-2.4c0.5,0,1,0.1,1.4,0.3c0-0.2,0-0.5,0.1-0.7c0.4-2,2.1-3.6,4.2-3.8 c1.4-0.2,2.7,0.2,3.7,1.1c0.7,0.6,1.3,1.4,1.5,2.3c0.8-0.6,1.8-1,2.8-1c2.5,0,4.5,2,4.5,4.4c0,0,0,0.1,0,0.1c1.8,0.6,3,2.2,3,4 C39,75.9,37.1,77.8,34.7,77.8z M25.1,77.8h-0.4c-0.3,0-0.5-0.2-0.5-0.5s0.2-0.5,0.5-0.5h0.4c0.3,0,0.5,0.2,0.5,0.5 S25.3,77.8,25.1,77.8z"/><g><path fill="#472b29" d="M33,72C33,72,33,72,33,72c-0.2,0-0.3-0.2-0.2-0.3c0-0.2,0.1-0.3,0.2-0.5c0.6-1.2,2.3-1.7,3.7-1 c0.1,0.1,0.2,0.2,0.1,0.3c-0.1,0.1-0.2,0.2-0.3,0.1c-1.2-0.6-2.6-0.2-3.1,0.8c-0.1,0.1-0.1,0.2-0.1,0.4C33.2,71.9,33.1,72,33,72z"/></g><g><path fill="#472b29" d="M27.9,77.8h-1.1c-0.3,0-0.5-0.2-0.5-0.5s0.2-0.5,0.5-0.5h1.1c0.3,0,0.5,0.2,0.5,0.5S28.1,77.8,27.9,77.8z"/></g></g><g><path fill="#fff" d="M16.4 52H6.5C6.2 52 6 51.8 6 51.5S6.2 51 6.5 51h9.9c.3 0 .5.2.5.5S16.7 52 16.4 52zM19.5 52h-1c-.3 0-.5-.2-.5-.5s.2-.5.5-.5h1c.3 0 .5.2.5.5S19.8 52 19.5 52zM24.5 54h-9c-.3 0-.5-.2-.5-.5s.2-.5.5-.5h9c.3 0 .5.2.5.5S24.8 54 24.5 54zM13.5 54h-1c-.3 0-.5-.2-.5-.5s.2-.5.5-.5h1c.3 0 .5.2.5.5S13.8 54 13.5 54zM10.5 54h-2C8.2 54 8 53.8 8 53.5S8.2 53 8.5 53h2c.3 0 .5.2.5.5S10.8 54 10.5 54zM16.5 56h-2c-.3 0-.5-.2-.5-.5s.2-.5.5-.5h2c.3 0 .5.2.5.5S16.8 56 16.5 56zM19.5 47c-.2 0-.8 0-1 0-.3 0-.5.2-.5.5s.2.5.5.5c.2 0 .8 0 1 0 .3 0 .5-.2.5-.5S19.8 47 19.5 47zM19.5 49c-.2 0-4.8 0-5 0-.3 0-.5.2-.5.5s.2.5.5.5c.2 0 4.8 0 5 0 .3 0 .5-.2.5-.5S19.8 49 19.5 49zM24.5 51c-.2 0-2.8 0-3 0-.3 0-.5.2-.5.5s.2.5.5.5c.2 0 2.8 0 3 0 .3 0 .5-.2.5-.5S24.8 51 24.5 51z"/></g><g><path fill="#fff" d="M45.5 21h-10c-.3 0-.5-.2-.5-.5s.2-.5.5-.5h10c.3 0 .5.2.5.5S45.8 21 45.5 21zM49.5 21h-2c-.3 0-.5-.2-.5-.5s.2-.5.5-.5h2c.3 0 .5.2.5.5S49.8 21 49.5 21zM54.5 23h-10c-.3 0-.5-.2-.5-.5s.2-.5.5-.5h10c.3 0 .5.2.5.5S54.8 23 54.5 23zM42.5 23h-1c-.3 0-.5-.2-.5-.5s.2-.5.5-.5h1c.3 0 .5.2.5.5S42.8 23 42.5 23zM39.4 23h-1.9c-.3 0-.5-.2-.5-.5s.2-.5.5-.5h1.9c.3 0 .5.2.5.5S39.7 23 39.4 23zM48.5 19h-5c-.3 0-.5-.2-.5-.5s.2-.5.5-.5h5c.3 0 .5.2.5.5S48.8 19 48.5 19zM45.5 25h-2c-.3 0-.5-.2-.5-.5s.2-.5.5-.5h2c.3 0 .5.2.5.5S45.8 25 45.5 25z"/></g></svg>