<svg xmlns="http://www.w3.org/2000/svg"  viewBox="0 0 100 100" width="200px" height="200px"><path fill="#ee3e54" d="M13 27A2 2 0 1 0 13 31A2 2 0 1 0 13 27Z"/><path fill="#f1bc19" d="M77 12A1 1 0 1 0 77 14A1 1 0 1 0 77 12Z"/><path fill="#fce0a2" d="M50 13A37 37 0 1 0 50 87A37 37 0 1 0 50 13Z"/><path fill="#f1bc19" d="M83 11A4 4 0 1 0 83 19A4 4 0 1 0 83 11Z"/><path fill="#ee3e54" d="M87 22A2 2 0 1 0 87 26A2 2 0 1 0 87 22Z"/><path fill="#fbcd59" d="M81 74A2 2 0 1 0 81 78 2 2 0 1 0 81 74zM15 59A4 4 0 1 0 15 67 4 4 0 1 0 15 59z"/><path fill="#ee3e54" d="M25 85A2 2 0 1 0 25 89A2 2 0 1 0 25 85Z"/><path fill="#fff" d="M18.5 51A2.5 2.5 0 1 0 18.5 56A2.5 2.5 0 1 0 18.5 51Z"/><path fill="#f1bc19" d="M21 66A1 1 0 1 0 21 68A1 1 0 1 0 21 66Z"/><path fill="#fff" d="M80 33A1 1 0 1 0 80 35A1 1 0 1 0 80 33Z"/><g><path fill="#88ae45" d="M69.112,31.392c1.326-0.335,2.686,0.475,2.881,1.245l5.378,21.258 c0.476,1.88-0.335,3.239-1.66,3.575l-42.355,10.71c-0.774,0.196-1.561,0.001-2.147-0.459"/><path fill="#472b29" d="M32.741,69c-0.714,0-1.411-0.238-1.991-0.693c-0.323-0.252-0.378-0.72-0.126-1.041 c0.252-0.324,0.721-0.378,1.041-0.126c0.433,0.339,0.982,0.457,1.507,0.323l42.355-10.709c0.46-0.116,0.814-0.4,1.025-0.82 c0.246-0.493,0.281-1.133,0.099-1.853l-5.378-21.259c-0.028-0.11-0.221-0.358-0.62-0.552c-0.432-0.208-0.929-0.265-1.358-0.156 c-0.392,0.101-0.802-0.139-0.902-0.537c-0.101-0.397,0.14-0.801,0.538-0.902c0.776-0.196,1.619-0.105,2.371,0.26 c0.732,0.355,1.26,0.924,1.411,1.523l5.378,21.259c0.27,1.069,0.198,2.066-0.21,2.882c-0.404,0.807-1.11,1.373-1.988,1.595 L33.537,68.902C33.273,68.966,33.005,69,32.741,69z"/><path fill="#c0d078" d="M69.966,55.791l-38.192,9.658c-2.455,0.621-4.972-0.88-5.594-3.334l-4.297-16.983 c-0.621-2.455,0.88-4.971,3.335-5.592l38.192-9.658c2.455-0.621,4.972,0.88,5.594,3.334l4.297,16.983 C73.923,52.653,72.423,55.17,69.966,55.791z"/><path fill="#472b29" d="M30.645,66.331c-0.951,0-1.891-0.256-2.735-0.76c-1.23-0.732-2.099-1.896-2.449-3.276 l-4.297-16.981c-0.723-2.857,1.015-5.77,3.873-6.494l38.191-9.657c2.864-0.721,5.772,1.014,6.496,3.871l4.297,16.981 c0.723,2.857-1.015,5.77-3.872,6.494l0,0l-38.192,9.658C31.523,66.277,31.083,66.331,30.645,66.331z M64.54,30.484 c-0.313,0-0.63,0.038-0.947,0.118l-38.191,9.657c-0.996,0.251-1.836,0.88-2.366,1.769s-0.684,1.927-0.432,2.922l4.297,16.981 c0.251,0.995,0.88,1.836,1.769,2.366c0.89,0.53,1.926,0.685,2.923,0.431l38.192-9.658c2.065-0.523,3.321-2.627,2.798-4.691 l-4.297-16.981C67.844,31.65,66.266,30.484,64.54,30.484z M69.968,55.791h0.011H69.968z"/><path fill="#88ae45" d="M53.825,36.379l-26.133,6.608c0.409,1.62-0.48,3.241-1.987,3.623l3.134,12.388 c1.508-0.382,3.062,0.623,3.472,2.244l35.183-8.897c-0.41-1.621,0.48-3.242,1.988-3.624l-3.134-12.388h-0.001 c-1.508,0.382-3.061-0.623-3.471-2.242l-3.16,0.799"/><path fill="#472b29" d="M32.311,61.584c-0.155,0-0.294-0.105-0.334-0.26c-0.362-1.435-1.738-2.33-3.052-1.994 c-0.187,0.049-0.372-0.066-0.42-0.249L25.37,46.694c-0.022-0.089-0.008-0.183,0.038-0.261c0.047-0.078,0.123-0.136,0.211-0.158 c1.321-0.333,2.1-1.77,1.739-3.203c-0.047-0.184,0.066-0.372,0.249-0.419l26.132-6.608c0.192-0.046,0.372,0.066,0.42,0.249 c0.047,0.185-0.066,0.373-0.249,0.42l-25.814,6.527c0.24,1.564-0.589,3.07-1.976,3.598l2.976,11.759 c1.475-0.183,2.919,0.737,3.451,2.229l34.546-8.736c-0.118-0.76,0.013-1.525,0.375-2.188c0.365-0.665,0.925-1.156,1.601-1.413 l-2.976-11.758c-0.718,0.096-1.443-0.07-2.08-0.48c-0.635-0.41-1.113-1.023-1.371-1.747l-2.841,0.72 c-0.189,0.05-0.372-0.066-0.42-0.249c-0.047-0.185,0.066-0.373,0.249-0.42l3.159-0.799c0.193-0.045,0.372,0.066,0.42,0.249 c0.363,1.434,1.739,2.329,3.052,1.994c0.19-0.047,0.372,0.066,0.42,0.249l3.135,12.388c0.022,0.089,0.008,0.183-0.038,0.261 c-0.047,0.078-0.123,0.136-0.211,0.158c-0.636,0.16-1.167,0.579-1.496,1.179c-0.333,0.607-0.42,1.327-0.243,2.025 c0.022,0.089,0.008,0.183-0.038,0.261c-0.047,0.078-0.123,0.136-0.211,0.158l-35.183,8.897 C32.367,61.581,32.339,61.584,32.311,61.584z"/><g><path fill="#472b29" d="M55.003,36.425c-0.155,0-0.294-0.105-0.334-0.26c-0.047-0.185,0.066-0.373,0.249-0.42l0.589-0.149 c0.19-0.045,0.372,0.066,0.42,0.249c0.047,0.185-0.066,0.373-0.249,0.42l-0.589,0.149C55.059,36.422,55.031,36.425,55.003,36.425z"/></g><g><path fill="#c0d078" d="M47.593 41.897000000000006A5.772 5.77 0 1 0 47.593 53.437A5.772 5.77 0 1 0 47.593 41.897000000000006Z"/><path fill="#472b29" d="M47.594,53.78c-2.733,0-5.23-1.848-5.931-4.615c-0.826-3.27,1.161-6.602,4.43-7.429 c3.277-0.821,6.604,1.161,7.431,4.429c0.826,3.269-1.161,6.601-4.431,7.428C48.592,53.72,48.089,53.78,47.594,53.78z M47.602,42.237c-0.446,0-0.896,0.056-1.34,0.169c-2.901,0.732-4.664,3.689-3.93,6.59c0.355,1.405,1.236,2.587,2.482,3.33 c1.245,0.742,2.706,0.956,4.109,0.599c2.902-0.732,4.665-3.689,3.931-6.589c-0.355-1.405-1.236-2.587-2.482-3.331 C49.521,42.498,48.569,42.237,47.602,42.237z"/></g><g><path fill="#c0d078" d="M36.622 48.306A1.823 1.822 0 1 0 36.622 51.95A1.823 1.822 0 1 0 36.622 48.306Z"/><path fill="#472b29" d="M36.618,52.294c-0.385,0-0.765-0.105-1.105-0.306c-0.498-0.297-0.85-0.769-0.992-1.331 c-0.142-0.56-0.056-1.143,0.241-1.64c0.296-0.498,0.769-0.85,1.331-0.992c0.56-0.141,1.145-0.056,1.641,0.24 c0.497,0.297,0.849,0.769,0.991,1.331c0.142,0.56,0.057,1.143-0.24,1.64c-0.297,0.498-0.77,0.85-1.332,0.992 C36.976,52.271,36.797,52.294,36.618,52.294z M36.625,48.647c-0.122,0-0.244,0.016-0.366,0.047 c-0.383,0.096-0.705,0.336-0.906,0.675c-0.203,0.339-0.261,0.737-0.163,1.119c0.096,0.383,0.336,0.706,0.676,0.907 c0.337,0.201,0.737,0.26,1.119,0.162c0.383-0.096,0.706-0.336,0.908-0.676c0.201-0.338,0.26-0.736,0.162-1.118c0,0,0,0,0-0.001 c-0.096-0.382-0.336-0.705-0.675-0.906C37.148,48.719,36.889,48.647,36.625,48.647z"/><g><path fill="#c0d078" d="M58.417 42.796A1.823 1.822 0 1 0 58.417 46.440000000000005A1.823 1.822 0 1 0 58.417 42.796Z"/><path fill="#472b29" d="M58.418,46.782c-0.969,0-1.854-0.654-2.103-1.634c-0.292-1.16,0.412-2.339,1.569-2.632 c1.158-0.288,2.339,0.411,2.634,1.569l0,0c0.292,1.157-0.412,2.338-1.569,2.632C58.771,46.76,58.593,46.782,58.418,46.782z M58.415,43.138c-0.12,0-0.242,0.015-0.363,0.046c-0.79,0.199-1.27,1.004-1.071,1.794c0.2,0.789,1.009,1.272,1.796,1.069 c0.789-0.199,1.269-1.005,1.07-1.793l0,0C59.68,43.584,59.076,43.138,58.415,43.138z"/></g></g></g><g><path fill="#fbcd59" d="M72.836 47.128A6.634 6.634 0 1 0 72.836 60.396A6.634 6.634 0 1 0 72.836 47.128Z"/><path fill="#472b29" d="M72.836,60.927c-3.951,0-7.165-3.213-7.165-7.164s3.214-7.165,7.165-7.165S80,49.812,80,53.763 S76.787,60.927,72.836,60.927z M72.836,47.659c-3.365,0-6.103,2.737-6.103,6.103c0,3.364,2.737,6.102,6.103,6.102 c3.364,0,6.102-2.737,6.102-6.102C78.937,50.397,76.2,47.659,72.836,47.659z"/><path fill="#f1bc19" d="M72.836 49.424A4.338 4.338 0 1 0 72.836 58.1A4.338 4.338 0 1 0 72.836 49.424Z"/><path fill="#472b29" d="M72.836,58.364c-2.539,0-4.603-2.065-4.603-4.602c0-2.539,2.065-4.603,4.603-4.603 s4.603,2.065,4.603,4.603C77.439,56.299,75.374,58.364,72.836,58.364z M72.836,49.69c-2.245,0-4.072,1.827-4.072,4.072 c0,2.244,1.827,4.071,4.072,4.071s4.072-1.827,4.072-4.071C76.908,51.517,75.081,49.69,72.836,49.69z"/><path fill="#fbcd59" d="M62.165 54.753A6.634 6.634 0 1 0 62.165 68.021A6.634 6.634 0 1 0 62.165 54.753Z"/><path fill="#472b29" d="M62.165,69C58.214,69,55,65.685,55,61.611s3.214-7.388,7.165-7.388s7.165,3.314,7.165,7.388 C69.33,65.685,66.116,69,62.165,69z M62.165,55.286c-3.365,0-6.103,2.737-6.103,6.102c0,3.365,2.737,6.103,6.103,6.103 s6.103-2.737,6.103-6.103C68.268,58.023,65.53,55.286,62.165,55.286z"/><g><path fill="#f1bc19" d="M62.165 57.05A4.338 4.338 0 1 0 62.165 65.726A4.338 4.338 0 1 0 62.165 57.05Z"/><path fill="#472b29" d="M62.165,65.99c-2.539,0-4.603-2.065-4.603-4.603c0-2.539,2.065-4.603,4.603-4.603 c2.539,0,4.603,2.065,4.603,4.603C66.768,63.926,64.704,65.99,62.165,65.99z M62.165,57.315c-2.245,0-4.072,1.827-4.072,4.072 c0,2.245,1.827,4.072,4.072,4.072c2.245,0,4.072-1.827,4.072-4.072C66.237,59.142,64.41,57.315,62.165,57.315z"/></g><g><path fill="#472b29" d="M61.6,62.547c0.006,0,0.018,0.006,0.036,0.018l-0.01-0.004c0.087,0.06,0.165,0.107,0.234,0.141 c0.069,0.034,0.142,0.058,0.22,0.073v-1.396l-0.081-0.045c-0.099-0.054-0.193-0.111-0.283-0.171 c-0.09-0.06-0.171-0.125-0.242-0.198c-0.072-0.071-0.133-0.148-0.182-0.228s-0.083-0.169-0.101-0.265 c-0.012-0.048-0.019-0.092-0.02-0.135c-0.001-0.043-0.002-0.087-0.002-0.135c0-0.14,0.023-0.264,0.069-0.368 c0.047-0.105,0.111-0.194,0.191-0.267c0.081-0.073,0.176-0.132,0.287-0.175s0.232-0.072,0.363-0.087V59.18 c0-0.06,0.014-0.111,0.04-0.153c0.027-0.043,0.077-0.063,0.148-0.063h0.018c0.155,0,0.241,0.077,0.256,0.228l-0.004,0.121 c0.084,0.015,0.17,0.038,0.258,0.07c0.088,0.032,0.188,0.071,0.299,0.119l-0.013-0.008c0.051,0.018,0.09,0.04,0.119,0.067 c0.029,0.027,0.046,0.07,0.052,0.13v0.027c0,0.021-0.005,0.048-0.016,0.081c-0.011,0.033-0.027,0.065-0.047,0.095 c-0.021,0.03-0.045,0.056-0.072,0.079c-0.027,0.022-0.057,0.034-0.09,0.034c-0.027,0-0.052-0.002-0.074-0.007 c-0.022-0.004-0.049-0.017-0.079-0.038v0.004l-0.049-0.027c-0.087-0.045-0.183-0.081-0.287-0.107v1.226l0.018,0.01 c0.242,0.123,0.429,0.259,0.561,0.409s0.219,0.305,0.26,0.468c0.018,0.069,0.031,0.132,0.038,0.188 c0.007,0.057,0.012,0.115,0.012,0.175c0,0.138-0.022,0.262-0.068,0.373c-0.045,0.111-0.106,0.207-0.184,0.29 c-0.078,0.082-0.171,0.15-0.281,0.202c-0.109,0.053-0.228,0.088-0.357,0.105V63.6c0,0.06-0.012,0.111-0.036,0.153 c-0.023,0.041-0.073,0.063-0.148,0.063h-0.027c-0.075,0-0.135-0.02-0.18-0.061c-0.045-0.04-0.068-0.1-0.068-0.177v-0.301 c-0.162-0.018-0.301-0.054-0.418-0.107c-0.117-0.054-0.237-0.121-0.359-0.202c-0.033-0.027-0.055-0.052-0.068-0.077 c-0.012-0.023-0.026-0.056-0.04-0.099v-0.027c0-0.027,0.008-0.057,0.024-0.091c0.016-0.035,0.036-0.068,0.061-0.099 c0.024-0.032,0.049-0.058,0.077-0.081c0.027-0.022,0.052-0.034,0.077-0.034c0.033,0,0.062,0.01,0.088,0.03 c0.026,0.019,0.05,0.039,0.073,0.061H61.6c0.006,0.003,0.011,0.004,0.013,0.004L61.6,62.547z M61.83,60.638 c0.07,0.066,0.153,0.124,0.25,0.175v-0.984c-0.114,0.024-0.208,0.07-0.285,0.139s-0.115,0.162-0.115,0.278 c0,0.018,0.001,0.037,0.002,0.058c0.001,0.021,0.005,0.047,0.012,0.077C61.715,60.486,61.76,60.572,61.83,60.638z M62.754,61.821 c-0.06-0.073-0.132-0.137-0.216-0.191v1.119c0.104-0.043,0.192-0.106,0.262-0.193s0.105-0.188,0.105-0.305 c0-0.033-0.003-0.063-0.009-0.09c-0.006-0.027-0.012-0.055-0.018-0.085C62.856,61.979,62.813,61.894,62.754,61.821z"/></g><g><path fill="#472b29" d="M72.138,54.921c0.006,0,0.018,0.006,0.036,0.018l-0.01-0.004c0.087,0.06,0.165,0.107,0.234,0.141 c0.069,0.034,0.142,0.058,0.22,0.073v-1.396l-0.081-0.045c-0.099-0.054-0.193-0.111-0.283-0.171 c-0.09-0.06-0.171-0.125-0.242-0.198c-0.072-0.071-0.133-0.148-0.182-0.228c-0.049-0.081-0.083-0.169-0.101-0.265 c-0.012-0.048-0.019-0.092-0.02-0.135c-0.001-0.043-0.002-0.087-0.002-0.135c0-0.14,0.023-0.264,0.069-0.368 c0.047-0.105,0.111-0.194,0.191-0.267c0.081-0.073,0.176-0.132,0.287-0.175c0.111-0.044,0.232-0.072,0.363-0.087v-0.125 c0-0.06,0.014-0.111,0.04-0.153c0.027-0.043,0.077-0.063,0.148-0.063h0.018c0.155,0,0.241,0.077,0.256,0.228l-0.004,0.121 c0.084,0.015,0.17,0.038,0.258,0.07c0.088,0.032,0.188,0.071,0.299,0.119l-0.013-0.008c0.051,0.018,0.09,0.04,0.119,0.067 c0.029,0.027,0.046,0.07,0.052,0.13v0.027c0,0.021-0.005,0.048-0.016,0.081c-0.011,0.033-0.027,0.065-0.047,0.095 c-0.021,0.03-0.045,0.056-0.072,0.079c-0.027,0.022-0.057,0.034-0.09,0.034c-0.027,0-0.052-0.002-0.074-0.007 c-0.022-0.004-0.049-0.017-0.079-0.038v0.004l-0.049-0.027c-0.087-0.045-0.183-0.081-0.287-0.107v1.226l0.018,0.01 c0.242,0.123,0.429,0.259,0.561,0.409c0.132,0.15,0.219,0.305,0.26,0.468c0.018,0.069,0.031,0.132,0.038,0.188 c0.007,0.057,0.012,0.115,0.012,0.175c0,0.138-0.022,0.262-0.068,0.373c-0.045,0.111-0.106,0.207-0.184,0.29 c-0.078,0.082-0.171,0.15-0.281,0.202c-0.109,0.053-0.228,0.088-0.357,0.105v0.323c0,0.06-0.012,0.111-0.036,0.153 c-0.023,0.041-0.073,0.063-0.148,0.063h-0.027c-0.075,0-0.135-0.02-0.18-0.061c-0.045-0.04-0.068-0.1-0.068-0.177v-0.301 c-0.162-0.018-0.301-0.054-0.418-0.107c-0.117-0.054-0.237-0.121-0.359-0.202c-0.033-0.027-0.055-0.052-0.068-0.077 c-0.012-0.023-0.026-0.056-0.04-0.099v-0.031c0-0.027,0.009-0.057,0.024-0.091c0.016-0.035,0.036-0.068,0.061-0.099 c0.024-0.032,0.049-0.058,0.077-0.081c0.027-0.022,0.052-0.034,0.077-0.034c0.033,0,0.062,0.01,0.088,0.03 c0.026,0.019,0.05,0.039,0.073,0.061H72.138c0.006,0.003,0.011,0.004,0.013,0.004L72.138,54.921z M72.368,53.012 c0.07,0.066,0.153,0.124,0.25,0.175v-0.984c-0.114,0.024-0.208,0.07-0.285,0.139c-0.077,0.069-0.115,0.162-0.115,0.278 c0,0.018,0.001,0.037,0.002,0.058c0.001,0.021,0.005,0.047,0.012,0.077C72.253,52.861,72.298,52.946,72.368,53.012z M73.292,54.196c-0.06-0.073-0.132-0.137-0.216-0.191v1.119c0.104-0.043,0.192-0.106,0.262-0.193 c0.07-0.087,0.105-0.188,0.105-0.305c0-0.033-0.003-0.063-0.009-0.09c-0.006-0.027-0.012-0.055-0.018-0.085 C73.394,54.354,73.351,54.269,73.292,54.196z"/></g></g></svg>