<svg xmlns="http://www.w3.org/2000/svg" width="60.001" height="60" viewBox="0 0 60.001 60">
  <g id="_x33_93_x2C__Cash_x2C__Payment_x2C__Register_x2C__Shopping" transform="translate(-26 -26.003)">
    <g id="Group_16" data-name="Group 16" transform="translate(26 26.003)">
      <path id="Path_531" data-name="Path 531" d="M99.467,45.384a1.305,1.305,0,0,0-1.291-1.12H87.74V37.742h7.827a1.3,1.3,0,0,0,1.3-1.3V27.307a1.3,1.3,0,0,0-1.3-1.3H70.784a1.3,1.3,0,0,0-1.3,1.3v9.131a1.3,1.3,0,0,0,1.3,1.3H78.61v6.522H65.567V40.351a1.3,1.3,0,0,0-1.3-1.3H56.436a1.3,1.3,0,0,0-1.3,1.3v3.913H51.219a1.3,1.3,0,0,0-1.291,1.12C46,72.861,46,72.821,46,72.96V84.7a1.3,1.3,0,0,0,1.3,1.3h54.784a1.3,1.3,0,0,0,1.3-1.3c0-2.026,0-11.637,0-11.761S103.533,73.85,99.467,45.384ZM72.088,28.612H94.262v6.522H72.088Zm9.131,9.13h3.913v6.522H81.219ZM57.74,41.655h5.217V53.394H57.74ZM52.35,46.873h2.782v6.521h-1.3a1.3,1.3,0,1,0,0,2.609H66.871a1.3,1.3,0,0,0,0-2.609h-1.3V46.873H97.044l3.541,24.782H48.809ZM100.785,83.4H48.61V74.264h52.175V83.4Z" transform="translate(-43.392 -26.003)" fill="#ffb11d"/>
      <path id="Path_532" data-name="Path 532" d="M276.872,206H257.306a1.3,1.3,0,0,0-1.3,1.3v5.217a1.3,1.3,0,0,0,1.3,1.3h19.566a1.3,1.3,0,0,0,1.3-1.3v-5.217A1.3,1.3,0,0,0,276.872,206Zm-1.3,5.217H258.611v-2.608h16.957Z" transform="translate(-226.002 -182.524)" fill="#ffb11d"/>
      <path id="Path_533" data-name="Path 533" d="M276.872,276H257.306a1.3,1.3,0,0,0-1.3,1.3v3.913a1.3,1.3,0,0,0,1.3,1.3h10.436v2.609a1.3,1.3,0,0,0,1.3,1.3h7.827a1.3,1.3,0,0,0,1.3-1.3v-7.827A1.305,1.305,0,0,0,276.872,276Zm-1.3,3.913h-1.3v-1.3h1.3Zm-3.913,0h-1.3v-1.3h1.3Zm-13.043-1.3h1.3v1.3h-1.3Zm3.913,0h1.3v1.3h-1.3Zm3.913,0h1.3v1.3h-1.3Zm3.912,3.913h1.3v1.3h-1.3Zm5.218,1.3h-1.3v-1.3h1.3Z" transform="translate(-226.001 -243.394)" fill="#ffb11d"/>
      <path id="Path_534" data-name="Path 534" d="M237.305,428.613h5.217a1.3,1.3,0,1,0,0-2.609h-5.217a1.3,1.3,0,0,0,0,2.609Z" transform="translate(-208.609 -373.83)" fill="#ffb11d"/>
      <path id="Path_535" data-name="Path 535" d="M139.264,42.526A3.261,3.261,0,1,0,136,39.265,3.264,3.264,0,0,0,139.264,42.526Zm0-3.913a.652.652,0,1,1-.652.652A.653.653,0,0,1,139.264,38.613Z" transform="translate(-121.655 -34.7)" fill="#ffb11d"/>
      <path id="Path_536" data-name="Path 536" d="M33.827,89.916a3.913,3.913,0,1,0-3.913,3.913A3.918,3.918,0,0,0,33.827,89.916Zm-5.218,0a1.3,1.3,0,1,1,1.3,1.3A1.306,1.306,0,0,1,28.609,89.916Z" transform="translate(-26 -78.177)" fill="#ffb11d"/>
      <path id="Path_537" data-name="Path 537" d="M257.306,56a1.3,1.3,0,0,0-1.3,1.3v1.3a1.3,1.3,0,0,0,2.609,0v-1.3A1.3,1.3,0,0,0,257.306,56Z" transform="translate(-226.002 -52.092)" fill="#ffb11d"/>
      <path id="Path_538" data-name="Path 538" d="M288.611,57.31a1.3,1.3,0,0,0-2.609,0v1.3a1.3,1.3,0,0,0,2.609,0Z" transform="translate(-252.088 -52.093)" fill="#ffb11d"/>
      <path id="Path_539" data-name="Path 539" d="M317.309,59.919a1.3,1.3,0,0,0,1.3-1.3v-1.3a1.3,1.3,0,0,0-2.609,0v1.3A1.3,1.3,0,0,0,317.309,59.919Z" transform="translate(-278.178 -52.093)" fill="#ffb11d"/>
      <path id="Path_540" data-name="Path 540" d="M466.007,127.305a1.3,1.3,0,1,0,1.3-1.3A1.3,1.3,0,0,0,466.007,127.305Z" transform="translate(-408.614 -112.958)" fill="#ffb11d"/>
      <path id="Path_541" data-name="Path 541" d="M457.31,48.614a1.3,1.3,0,1,0-1.3-1.3A1.305,1.305,0,0,0,457.31,48.614Z" transform="translate(-399.918 -43.396)" fill="#ffb11d"/>
      <path id="Path_542" data-name="Path 542" d="M87.3,48.614a1.3,1.3,0,1,0-1.3-1.3A1.3,1.3,0,0,0,87.3,48.614Z" transform="translate(-78.173 -43.396)" fill="#ffb11d"/>
      <ellipse id="Ellipse_13" data-name="Ellipse 13" cx="1.137" cy="1.421" rx="1.137" ry="1.421" transform="translate(1.443 24.755)" fill="#ffb11d"/>
    </g>
  </g>
</svg>
