<?xml version="1.0" encoding="iso-8859-1"?>
<!-- Generator: Adobe Illustrator 16.0.0, SVG Export Plug-In . SVG Version: 6.00 Build 0)  -->
<!DOCTYPE svg PUBLIC "-//W3C//DTD SVG 1.1//EN" "http://www.w3.org/Graphics/SVG/1.1/DTD/svg11.dtd">
<svg version="1.1" xmlns="http://www.w3.org/2000/svg" xmlns:xlink="http://www.w3.org/1999/xlink" x="0px" y="0px" width="512px"
	 height="512px" viewBox="0 0 512 512" style="enable-background:new 0 0 512 512;" xml:space="preserve">
<g id="_x33_93_x2C__Cash_x2C__Payment_x2C__Register_x2C__Shopping">
	<g>
		<path d="M455.906,174.59c-0.707-4.931-4.931-8.586-9.901-8.586h-80.006V116h60.004c5.519,0,10.001-4.473,10.001-9.996v-70
			c0-5.523-4.482-10.001-10.001-10.001H236.001c-5.523,0-10.001,4.478-10.001,10.001v70c0,5.523,4.478,9.996,10.001,9.996h60.002
			v50.004h-100v-30.002c0-5.518-4.478-10-10.001-10h-60c-5.523,0-10.001,4.482-10.001,10v30.002H86.004
			c-4.98,0-9.199,3.656-9.901,8.586C46.016,385.244,46.001,384.936,46.001,386.001v89.997c0,5.528,4.478,10.001,10.001,10.001
			h420.005c5.519,0,9.991-4.473,9.991-10.001c0-15.529,0.01-89.22,0-90.166C485.979,384.786,487.074,392.824,455.906,174.59z
			 M246.002,46.004h170.001v49.999c-18.638,0-153.957,0-170.001,0V46.004z M316.005,116h30.002v50.004h-30.002V116z
			 M136.003,146.002h39.998c0,11.007,0,80.335,0,89.997h-39.998C136.003,225.471,136.003,160.276,136.003,146.002z M94.675,186.005
			h21.326V236h-10C100.478,236,96,240.482,96,246c0,5.528,4.478,10.001,10.001,10.001c11.684,0,89.394,0,100.002,0
			c5.523,0,9.996-4.473,9.996-10.001c0-5.518-4.473-10-9.996-10h-10v-49.994c15.056,0,231.923,0,241.326,0L464.473,376H67.532
			L94.675,186.005z M466.007,466.008H66.002v-70.006h400.004V466.008z"/>
		<path d="M416.003,206.002H266.001c-5.521,0-9.999,4.478-9.999,10.001v39.998c0,5.528,4.478,10.001,9.999,10.001h150.002
			c5.518,0,10-4.473,10-10.001v-39.998C426.003,210.479,421.521,206.002,416.003,206.002z M406.002,246h-130v-19.996h130V246z"/>
		<path d="M416.003,276.003c-16.476,0-127.191,0-150.002,0c-5.521,0-9.999,4.482-9.999,10v30.003c0,5.519,4.478,10.001,9.999,10.001
			c15.011,0,63.143,0,80.006,0v20.001c0,5.519,4.473,9.991,9.991,9.991c7.262,0,52.693,0,60.005,0c5.518,0,10-4.473,10-9.991
			c0-7.262,0-52.693,0-60.005C426.003,280.485,421.521,276.003,416.003,276.003z M406.002,306.005h-10.001v-10.001h10.001V306.005z
			 M375.999,306.005h-10v-10.001h10V306.005z M276.002,296.004h10v10.001h-10V296.004z M306.004,296.004h10.001v10.001h-10.001
			V296.004z M336.006,296.004h10.001v10.001h-10.001V296.004z M365.999,326.007h10v10h-10V326.007z M406.002,336.007h-10.001v-10
			h10.001V336.007z"/>
		<path d="M246.002,446.006h40c5.519,0,10.001-4.482,10.001-10.001c0-5.528-4.482-10.001-10.001-10.001h-40
			c-5.523,0-10.001,4.473-10.001,10.001C236.001,441.523,240.479,446.006,246.002,446.006z"/>
		<path d="M161,86.003c13.786,0,25.002-11.211,25.002-24.997c0-13.786-11.216-25.002-25.002-25.002s-24.997,11.216-24.997,25.002
			C136.003,74.792,147.214,86.003,161,86.003z M161,56.005c2.759,0,5,2.241,5,5c0,2.754-2.241,5-5,5c-2.754,0-5-2.246-5-5
			C156,58.247,158.246,56.005,161,56.005z"/>
		<path d="M86.004,116c0-16.535-13.462-29.997-30.002-29.997S26,99.465,26,116c0,16.545,13.462,30.002,30.002,30.002
			S86.004,132.545,86.004,116z M46.001,116c0-5.508,4.487-9.996,10.001-9.996c5.513,0,10,4.488,10,9.996
			c0,5.519-4.487,10.001-10,10.001C50.488,126.001,46.001,121.519,46.001,116z"/>
		<path d="M266.001,56.005c-5.521,0-9.999,4.472-9.999,10v10.001c0,5.519,4.478,9.996,9.999,9.996
			c5.528,0,10.001-4.478,10.001-9.996V66.006C276.002,60.478,271.529,56.005,266.001,56.005z"/>
		<path d="M306.004,66.006c0-5.528-4.482-10-10.001-10s-10.001,4.472-10.001,10v10.001c0,5.519,4.482,9.996,10.001,9.996
			s10.001-4.478,10.001-9.996V66.006z"/>
		<path d="M326.006,86.003c5.518,0,10-4.478,10-9.996V66.006c0-5.528-4.482-10-10-10c-5.528,0-10.001,4.472-10.001,10v10.001
			C316.005,81.525,320.478,86.003,326.006,86.003z"/>
		<path d="M466.007,136.001c0,5.528,4.472,10.001,10,10.001c5.519,0,9.991-4.473,9.991-10.001c0-5.518-4.473-10-9.991-10
			C470.479,126.001,466.007,130.483,466.007,136.001z"/>
		<path d="M466.007,66.006c5.518,0,10-4.482,10-10c0-5.528-4.482-10.001-10-10.001c-5.528,0-10.001,4.473-10.001,10.001
			C456.006,61.523,460.479,66.006,466.007,66.006z"/>
		<path d="M96,66.006c5.523,0,10.001-4.482,10.001-10c0-5.528-4.478-10.001-10.001-10.001s-10.001,4.473-10.001,10.001
			C85.999,61.523,90.477,66.006,96,66.006z"/>
		<circle cx="46.001" cy="226.004" r="10.001"/>
	</g>
</g>
<g id="Layer_1">
</g>
</svg>
