<svg xmlns="http://www.w3.org/2000/svg" width="60" height="55.548" viewBox="0 0 60 55.548">
  <g id="_5595339291637085972" data-name="5595339291637085972" transform="translate(-2 -4)">
    <path id="Path_504" data-name="Path 504" d="M62,38V34a1,1,0,0,0-1-1H57.975A26.036,26.036,0,0,0,34.769,8.149a3,3,0,1,0-5.538,0A26.036,26.036,0,0,0,6.025,33H3a1,1,0,0,0-1,1v4a3,3,0,0,0,3,3H21.878a15,15,0,0,0-7.718,2.138L12.723,44H12a1,1,0,0,0-1-1H3a1,1,0,0,0-1,1V58a1,1,0,0,0,1,1h8a1,1,0,0,0,1-1h7.531a6.987,6.987,0,0,1,.818.048l11.921,1.4a14.692,14.692,0,0,0,1.729.1,15.1,15.1,0,0,0,7.523-2.008L59.15,47.366a3.962,3.962,0,0,0,2-3.466,4.021,4.021,0,0,0-.535-2,3.966,3.966,0,0,0-.858-1.007A3,3,0,0,0,62,38ZM10,57H4V45h6ZM31,7a1,1,0,1,1,.293.707A1,1,0,0,1,31,7Zm1,3A24.027,24.027,0,0,1,55.975,33H8.025A24.027,24.027,0,0,1,32,10ZM46.634,45.35A4,4,0,0,0,43,43H31.162l-3.691-1.23A14.969,14.969,0,0,0,22.728,41H54.169Zm11.516.284L40.522,55.812A13.085,13.085,0,0,1,32.5,57.464l-11.92-1.4A9.015,9.015,0,0,0,19.531,56H12V46h1a1,1,0,0,0,.515-.143l1.674-1A13,13,0,0,1,21.878,43h.85a13,13,0,0,1,4.111.667l3.845,1.282A1,1,0,0,0,31,45H43a2,2,0,0,1,0,4H28v2H43a3.992,3.992,0,0,0,3.952-3.525l9.193-5.306a2,2,0,1,1,2.005,3.465ZM60,38a1,1,0,0,1-1,1H5a1,1,0,0,1-1-1V35H60Z" fill="#fff"/>
    <path id="Path_505" data-name="Path 505" d="M44.386,18.3a20.39,20.39,0,0,1,1.884,1.691l1.426-1.4a22.118,22.118,0,0,0-2.071-1.859Z" fill="#fff"/>
    <path id="Path_506" data-name="Path 506" d="M32,14a19.958,19.958,0,0,1,10.428,2.93l1.044-1.706A21.959,21.959,0,0,0,32,12Z" fill="#fff"/>
  </g>
</svg>
