<?xml version="1.0" encoding="UTF-8"?>
<svg viewBox="0 0 147 147" xmlns="http://www.w3.org/2000/svg">
<defs>
<linearGradient id="a" x1="1.111" x2=".045" y1="-.063" y2=".968">
<stop stop-color="#8dffff" offset="0"/>
<stop stop-color="#0045ff" offset="1"/>
</linearGradient>
<filter id="c" x="0" y="0" width="147" height="147" filterUnits="userSpaceOnUse">
<feOffset input="SourceAlpha"/>
<feGaussianBlur result="blur" stdDeviation="5"/>
<feFlood flood-color="#72dcff"/>
<feComposite in2="blur" operator="in"/>
<feComposite in="SourceGraphic"/>
</filter>
<filter id="b" x="0" y="0" width="147" height="147" filterUnits="userSpaceOnUse">
<feOffset dy="-3" input="SourceAlpha"/>
<feGaussianBlur result="blur-2" stdDeviation="3"/>
<feFlood flood-opacity=".161" result="color"/>
<feComposite in="SourceGraphic" in2="blur-2" operator="out"/>
<feComposite in="color" operator="in"/>
<feComposite in2="SourceGraphic" operator="in"/>
</filter>
</defs>
<g data-type="innerShadowGroup">
<g filter="url(#c)">
<rect transform="translate(15 15)" width="117" height="117" rx="18" fill="url(#a)" data-name="Rectangle 56"/>
</g>
<g filter="url(#b)">
<rect transform="translate(15 15)" width="117" height="117" rx="18" fill="#fff" data-name="Rectangle 56"/>
</g>
</g>
<path transform="translate(44.853 47.031)" d="M11.09,15.762a80.159,80.159,0,0,0,19.136,1.911,79.06,79.06,0,0,0,19.136-1.911c5.328-1.242,7.884-2.915,7.884-4.491,0-1.123-1.147-2.222-3.225-3.058a1.745,1.745,0,0,1,.836,1.41c0,1.6-2.413,2.915-7.263,4.014a81.278,81.278,0,0,1-17.2,1.672,83.993,83.993,0,0,1-17.058-1.625c-4.659-1.147-7.1-2.389-7.1-4.014,0-.669.311-1.242,1.242-1.911C4.568,8.881,2.992,9.837,2.992,11.27c.167,1.625,2.771,3.249,8.1,4.491Zm11.2-5.16c5.423-.478,7-3.966,13.355-4.539,3.13-.239,5.113.382,5.328,1.481.191,1.027-1.362,1.72-3.249,1.863-2.6.263-3.679-.669-3.894-1.553-1.935.215-2.246,1.027-2.15,1.6.215,1.1,2.556,2.2,6.57,1.816,4.539-.358,6.068-2.15,5.686-3.942-.478-2.341-3.966-4.3-10.225-3.7-8.027.717-7.979,4.444-13.45,4.9-2.246.215-3.488-.311-3.7-1.195-.143-.884.956-1.314,2.246-1.41a6.752,6.752,0,0,1,3.345.478c.5-.263.669-.526.621-.836-.239-.836-1.887-1.195-3.966-1.051-4.061.358-4.061,2.174-3.918,2.986.406,2.078,3.536,3.464,7.406,3.106Zm27.283,9.174A85.268,85.268,0,0,1,30.442,21.71a90.213,90.213,0,0,1-19.3-1.911c-4.491-1.147-6.88-2.413-7.717-3.727a44.975,44.975,0,0,0,2.126,8.481,11.747,11.747,0,0,0-3.106,2.8A10.8,10.8,0,0,0,.005,34.754,8.6,8.6,0,0,0,3.4,41.014a8.132,8.132,0,0,0,6.88,1.625,23.116,23.116,0,0,0,3.082-1,8.635,8.635,0,0,1-5.638-2.078,8.481,8.481,0,0,1-3.56-5.781,7.709,7.709,0,0,1,1.266-6.164,7.064,7.064,0,0,1,.932-.956A54.575,54.575,0,0,0,8.7,31.72c1.935,2.939,3.87,5.495,5.805,8.266a21.128,21.128,0,0,1,1.768,4.826A9.317,9.317,0,0,0,21.6,48.4a22.063,22.063,0,0,0,8.553,1.218h.311a24.368,24.368,0,0,0,8.816-1.242,9.986,9.986,0,0,0,5.16-3.56h.167a20.423,20.423,0,0,1,1.6-4.826c1.911-2.8,3.87-5.328,5.781-8.266A50.17,50.17,0,0,0,57.342,16.1C56.315,17.53,53.9,18.8,49.578,19.775Z" fill="#fff"/>
</svg>
