<?xml version="1.0" encoding="UTF-8" standalone="no"?> <svg width="64" height="64" viewBox="0 0 64 64" fill="none" xmlns="http://www.w3.org/2000/svg">
<path d="M62 38V34C62 33.7348 61.8946 33.4804 61.7071 33.2929C61.5196 33.1054 61.2652 33 61 33H57.975C57.7274 26.7641 55.2481 20.8246 50.9888 16.2633C46.7294 11.702 40.9734 8.82243 34.769 8.149C34.9215 7.78513 35 7.39454 35 7C35 6.20435 34.6839 5.44129 34.1213 4.87868C33.5587 4.31607 32.7956 4 32 4C31.2044 4 30.4413 4.31607 29.8787 4.87868C29.3161 5.44129 29 6.20435 29 7C29 7.39454 29.0785 7.78513 29.231 8.149C23.0266 8.82243 17.2706 11.702 13.0112 16.2633C8.75187 20.8246 6.2726 26.7641 6.025 33H3C2.73478 33 2.48043 33.1054 2.29289 33.2929C2.10536 33.4804 2 33.7348 2 34V38C2 38.7956 2.31607 39.5587 2.87868 40.1213C3.44129 40.6839 4.20435 41 5 41H21.878C19.1591 41 16.4914 41.739 14.16 43.138L12.723 44H12C12 43.7348 11.8946 43.4804 11.7071 43.2929C11.5196 43.1054 11.2652 43 11 43H3C2.73478 43 2.48043 43.1054 2.29289 43.2929C2.10536 43.4804 2 43.7348 2 44V58C2 58.2652 2.10536 58.5196 2.29289 58.7071C2.48043 58.8946 2.73478 59 3 59H11C11.2652 59 11.5196 58.8946 11.7071 58.7071C11.8946 58.5196 12 58.2652 12 58H19.531C19.8044 58 20.0775 58.016 20.349 58.048L32.27 59.448C32.8439 59.5153 33.4212 59.5487 33.999 59.548C36.6391 59.5478 39.233 58.8555 41.522 57.54L59.15 47.366C59.761 47.0178 60.2683 46.5132 60.6197 45.9041C60.9712 45.2949 61.1542 44.6032 61.15 43.9C61.1493 43.1981 60.9648 42.5085 60.615 41.9C60.3874 41.5187 60.0974 41.1783 59.757 40.893C60.3977 40.7259 60.9652 40.3516 61.3709 39.8283C61.7766 39.305 61.9978 38.6621 62 38V38ZM10 57H4V45H10V57ZM31 7C31 6.80222 31.0586 6.60888 31.1685 6.44443C31.2784 6.27998 31.4346 6.15181 31.6173 6.07612C31.8 6.00043 32.0011 5.98063 32.1951 6.01921C32.3891 6.0578 32.5673 6.15304 32.7071 6.29289C32.847 6.43275 32.9422 6.61093 32.9808 6.80491C33.0194 6.99889 32.9996 7.19996 32.9239 7.38268C32.8482 7.56541 32.72 7.72159 32.5556 7.83147C32.3911 7.94135 32.1978 8 32 8C31.7348 8 31.4804 7.89464 31.2929 7.70711C31.1054 7.51957 31 7.26522 31 7ZM32 10C38.1894 10.0077 44.137 12.4037 48.6034 16.6884C53.0698 20.9732 55.7104 26.8163 55.975 33H8.025C8.28955 26.8163 10.9302 20.9732 15.3966 16.6884C19.863 12.4037 25.8106 10.0077 32 10V10ZM46.634 45.35C46.3175 44.651 45.8066 44.0578 45.1623 43.6411C44.5179 43.2244 43.7673 43.0019 43 43H31.162L27.471 41.77C25.9418 41.2596 24.3402 40.9996 22.728 41H54.169L46.634 45.35ZM58.15 45.634L40.522 55.812C38.0937 57.2069 35.2819 57.786 32.5 57.464L20.58 56.064C20.2319 56.0223 19.8816 56.0009 19.531 56H12V46H13C13.1815 45.9999 13.3595 45.9505 13.515 45.857L15.189 44.857C17.2091 43.6431 19.5212 43.0012 21.878 43H22.728C24.1253 43 25.5134 43.2252 26.839 43.667L30.684 44.949C30.7859 44.9829 30.8926 45.0001 31 45H43C43.5304 45 44.0391 45.2107 44.4142 45.5858C44.7893 45.9609 45 46.4696 45 47C45 47.5304 44.7893 48.0391 44.4142 48.4142C44.0391 48.7893 43.5304 49 43 49H28V51H43C43.9757 50.9969 44.9165 50.6366 45.6446 49.9871C46.3728 49.3377 46.8379 48.444 46.952 47.475L56.145 42.169C56.449 41.9935 56.7938 41.9011 57.1447 41.9011C57.4957 41.901 57.8405 41.9933 58.1445 42.1687C58.4486 42.3441 58.701 42.5965 58.8767 42.9004C59.0523 43.2043 59.1448 43.549 59.145 43.9C59.1478 44.2513 59.0571 44.597 58.8823 44.9017C58.7074 45.2064 58.4547 45.4592 58.15 45.634ZM60 38C60 38.2652 59.8946 38.5196 59.7071 38.7071C59.5196 38.8946 59.2652 39 59 39H5C4.73478 39 4.48043 38.8946 4.29289 38.7071C4.10536 38.5196 4 38.2652 4 38V35H60V38Z" fill="black"/>
<path d="M44.386 18.2999C45.0484 18.824 45.6777 19.3888 46.27 19.9909L47.696 18.5909C47.0454 17.9284 46.3537 17.3075 45.625 16.7319L44.386 18.2999Z" fill="black"/>
<path d="M32 14C35.6796 13.9967 39.2886 15.0107 42.428 16.93L43.472 15.224C40.0183 13.1125 36.0481 11.9967 32 12V14Z" fill="black"/>
</svg>
