<svg xmlns="http://www.w3.org/2000/svg" width="27.26" height="31.154" viewBox="0 0 27.26 31.154">
  <path id="bell" d="M26.736,22.045c-1.175-1.263-3.375-3.164-3.375-9.389a9.61,9.61,0,0,0-7.785-9.441V1.947a1.946,1.946,0,1,0-3.893,0V3.215A9.609,9.609,0,0,0,3.9,12.656c0,6.225-2.2,8.125-3.375,9.389A1.9,1.9,0,0,0,0,23.365a1.949,1.949,0,0,0,1.953,1.947H25.307a1.949,1.949,0,0,0,1.953-1.947,1.9,1.9,0,0,0-.524-1.321Zm-22.627.347c1.291-1.7,2.7-4.522,2.71-9.7,0-.012,0-.023,0-.035a6.815,6.815,0,1,1,13.63,0c0,.012,0,.023,0,.035.007,5.178,1.418,8,2.71,9.7Zm9.521,8.762a3.894,3.894,0,0,0,3.893-3.894H9.737A3.893,3.893,0,0,0,13.63,31.154Z" transform="translate(-0.001)" fill="#fff"/>
</svg>
