<?xml version="1.0" encoding="UTF-8"?>
<svg viewBox="0 0 19.755 22.577" xmlns="http://www.w3.org/2000/svg">
<path transform="translate(-.001)" d="m19.376 15.976c-0.852-0.916-2.446-2.293-2.446-6.8a6.964 6.964 0 0 0-5.642-6.846v-0.919a1.41 1.41 0 1 0-2.821 0v0.919a6.963 6.963 0 0 0-5.641 6.842c0 4.511-1.594 5.888-2.446 6.8a1.376 1.376 0 0 0-0.38 0.961 1.413 1.413 0 0 0 1.415 1.411h16.925a1.412 1.412 0 0 0 1.415-1.411 1.376 1.376 0 0 0-0.379-0.957zm-16.4 0.251c0.936-1.234 1.959-3.277 1.964-7.03v-0.026a4.939 4.939 0 1 1 9.877 0v0.026c5e-3 3.753 1.028 5.8 1.964 7.03zm6.9 6.35a2.822 2.822 0 0 0 2.824-2.822h-5.643a2.821 2.821 0 0 0 2.821 2.822z" fill="#fff"/>
</svg>
