<?xml version="1.0" encoding="UTF-8" standalone="no"?> <svg width="64" height="64" viewBox="0 0 64 64" fill="none" xmlns="http://www.w3.org/2000/svg">
<path d="M32 9C31.2089 9 30.4355 9.2346 29.7777 9.67412C29.1199 10.1136 28.6072 10.7384 28.3045 11.4693C28.0017 12.2002 27.9225 13.0044 28.0769 13.7804C28.2312 14.5563 28.6122 15.269 29.1716 15.8284C29.731 16.3878 30.4437 16.7688 31.2196 16.9231C31.9956 17.0775 32.7998 16.9983 33.5307 16.6955C34.2616 16.3928 34.8864 15.8801 35.3259 15.2223C35.7654 14.5645 36 13.7911 36 13C36 11.9391 35.5786 10.9217 34.8284 10.1716C34.0783 9.42143 33.0609 9 32 9V9ZM32 15C31.6044 15 31.2178 14.8827 30.8889 14.6629C30.56 14.4432 30.3036 14.1308 30.1522 13.7654C30.0009 13.3999 29.9613 12.9978 30.0384 12.6098C30.1156 12.2219 30.3061 11.8655 30.5858 11.5858C30.8655 11.3061 31.2219 11.1156 31.6098 11.0384C31.9978 10.9613 32.3999 11.0009 32.7654 11.1522C33.1308 11.3036 33.4432 11.56 33.6629 11.8889C33.8827 12.2178 34 12.6044 34 13C34 13.5304 33.7893 14.0391 33.4142 14.4142C33.0391 14.7893 32.5304 15 32 15Z" fill="black"/>
<path d="M34 20C33.7348 20 33.4804 20.1054 33.2929 20.2929C33.1054 20.4804 33 20.7348 33 21V41C33 41.2652 33.1054 41.5196 33.2929 41.7071C33.4804 41.8946 33.7348 42 34 42C34.2652 42 34.5196 41.8946 34.7071 41.7071C34.8946 41.5196 35 41.2652 35 41V21C35 20.7348 34.8946 20.4804 34.7071 20.2929C34.5196 20.1054 34.2652 20 34 20Z" fill="black"/>
<path d="M30 20C29.7348 20 29.4804 20.1054 29.2929 20.2929C29.1054 20.4804 29 20.7348 29 21V41C29 41.2652 29.1054 41.5196 29.2929 41.7071C29.4804 41.8946 29.7348 42 30 42C30.2652 42 30.5196 41.8946 30.7071 41.7071C30.8946 41.5196 31 41.2652 31 41V21C31 20.7348 30.8946 20.4804 30.7071 20.2929C30.5196 20.1054 30.2652 20 30 20Z" fill="black"/>
<path d="M18 17C18.7911 17 19.5645 16.7654 20.2223 16.3259C20.8801 15.8864 21.3928 15.2616 21.6955 14.5307C21.9983 13.7998 22.0775 12.9956 21.9231 12.2196C21.7688 11.4437 21.3878 10.731 20.8284 10.1716C20.269 9.61216 19.5563 9.2312 18.7804 9.07686C18.0044 8.92252 17.2002 9.00173 16.4693 9.30448C15.7384 9.60723 15.1136 10.1199 14.6741 10.7777C14.2346 11.4355 14 12.2089 14 13C14 14.0609 14.4214 15.0783 15.1716 15.8284C15.9217 16.5786 16.9391 17 18 17ZM18 11C18.3956 11 18.7822 11.1173 19.1111 11.3371C19.44 11.5568 19.6964 11.8692 19.8478 12.2346C19.9991 12.6001 20.0387 13.0022 19.9616 13.3902C19.8844 13.7781 19.6939 14.1345 19.4142 14.4142C19.1345 14.6939 18.7781 14.8844 18.3902 14.9616C18.0022 15.0387 17.6001 14.9991 17.2346 14.8478C16.8692 14.6964 16.5568 14.44 16.3371 14.1111C16.1173 13.7822 16 13.3956 16 13C16 12.4696 16.2107 11.9609 16.5858 11.5858C16.9609 11.2107 17.4696 11 18 11V11Z" fill="black"/>
<path d="M16 20C15.7348 20 15.4804 20.1054 15.2929 20.2929C15.1054 20.4804 15 20.7348 15 21V35C15 35.2652 15.1054 35.5196 15.2929 35.7071C15.4804 35.8946 15.7348 36 16 36C16.2652 36 16.5196 35.8946 16.7071 35.7071C16.8946 35.5196 17 35.2652 17 35V21C17 20.7348 16.8946 20.4804 16.7071 20.2929C16.5196 20.1054 16.2652 20 16 20Z" fill="black"/>
<path d="M46 17C46.7911 17 47.5645 16.7654 48.2223 16.3259C48.8801 15.8864 49.3928 15.2616 49.6955 14.5307C49.9983 13.7998 50.0775 12.9956 49.9231 12.2196C49.7688 11.4437 49.3878 10.731 48.8284 10.1716C48.269 9.61216 47.5563 9.2312 46.7804 9.07686C46.0044 8.92252 45.2002 9.00173 44.4693 9.30448C43.7384 9.60723 43.1136 10.1199 42.6741 10.7777C42.2346 11.4355 42 12.2089 42 13C42 14.0609 42.4214 15.0783 43.1716 15.8284C43.9217 16.5786 44.9391 17 46 17ZM46 11C46.3956 11 46.7822 11.1173 47.1111 11.3371C47.44 11.5568 47.6964 11.8692 47.8478 12.2346C47.9991 12.6001 48.0387 13.0022 47.9616 13.3902C47.8844 13.7781 47.6939 14.1345 47.4142 14.4142C47.1345 14.6939 46.7781 14.8844 46.3902 14.9616C46.0022 15.0387 45.6001 14.9991 45.2346 14.8478C44.8692 14.6964 44.5568 14.44 44.3371 14.1111C44.1173 13.7822 44 13.3956 44 13C44 12.4696 44.2107 11.9609 44.5858 11.5858C44.9609 11.2107 45.4696 11 46 11V11Z" fill="black"/>
<path d="M48 20C47.7348 20 47.4804 20.1054 47.2929 20.2929C47.1054 20.4804 47 20.7348 47 21V35C47 35.2652 47.1054 35.5196 47.2929 35.7071C47.4804 35.8946 47.7348 36 48 36C48.2652 36 48.5196 35.8946 48.7071 35.7071C48.8946 35.5196 49 35.2652 49 35V21C49 20.7348 48.8946 20.4804 48.7071 20.2929C48.5196 20.1054 48.2652 20 48 20Z" fill="black"/>
<path d="M60 37H54V7C54 6.20435 53.6839 5.44129 53.1213 4.87868C52.5587 4.31607 51.7956 4 51 4H41C40.2599 4.00441 39.5476 4.28221 39 4.78C38.4524 4.28221 37.7401 4.00441 37 4H27C26.2599 4.00441 25.5476 4.28221 25 4.78C24.4524 4.28221 23.7401 4.00441 23 4H13C12.2044 4 11.4413 4.31607 10.8787 4.87868C10.3161 5.44129 10 6.20435 10 7V37H4C3.20435 37 2.44129 37.3161 1.87868 37.8787C1.31607 38.4413 1 39.2044 1 40V57C1 57.7956 1.31607 58.5587 1.87868 59.1213C2.44129 59.6839 3.20435 60 4 60H60C60.7956 60 61.5587 59.6839 62.1213 59.1213C62.6839 58.5587 63 57.7956 63 57V40C63 39.2044 62.6839 38.4413 62.1213 37.8787C61.5587 37.3161 60.7956 37 60 37ZM40 7C40 6.73478 40.1054 6.48043 40.2929 6.29289C40.4804 6.10536 40.7348 6 41 6H51C51.2652 6 51.5196 6.10536 51.7071 6.29289C51.8946 6.48043 52 6.73478 52 7V37H46.69C46.0862 37.0026 45.4972 37.1873 45 37.53V21C45 20.7348 44.8946 20.4804 44.7071 20.2929C44.5196 20.1054 44.2652 20 44 20C43.7348 20 43.4804 20.1054 43.2929 20.2929C43.1054 20.4804 43 20.7348 43 21V40C43.0038 40.1738 43.0528 40.3436 43.1423 40.4926C43.2317 40.6417 43.3584 40.7649 43.51 40.85L43.29 42.17C43.2495 42.4048 43.1265 42.6174 42.9432 42.7696C42.7599 42.9218 42.5282 43.0035 42.29 43H40V7ZM26 7C26 6.73478 26.1054 6.48043 26.2929 6.29289C26.4804 6.10536 26.7348 6 27 6H37C37.2652 6 37.5196 6.10536 37.7071 6.29289C37.8946 6.48043 38 6.73478 38 7V43H26V7ZM12 7C12 6.73478 12.1054 6.48043 12.2929 6.29289C12.4804 6.10536 12.7348 6 13 6H23C23.2652 6 23.5196 6.10536 23.7071 6.29289C23.8946 6.48043 24 6.73478 24 7V43H21.69C21.4518 43.0035 21.2201 42.9218 21.0368 42.7696C20.8535 42.6174 20.7305 42.4048 20.69 42.17L20.47 40.85C20.6253 40.7674 20.756 40.6454 20.8491 40.4961C20.9422 40.3469 20.9942 40.1758 21 40V21C21 20.7348 20.8946 20.4804 20.7071 20.2929C20.5196 20.1054 20.2652 20 20 20C19.7348 20 19.4804 20.1054 19.2929 20.2929C19.1054 20.4804 19 20.7348 19 21V37.53C18.5028 37.1873 17.9138 37.0026 17.31 37H12V7ZM54 58H10V53C10 52.7348 10.1054 52.4804 10.2929 52.2929C10.4804 52.1054 10.7348 52 11 52H53C53.2652 52 53.5196 52.1054 53.7071 52.2929C53.8946 52.4804 54 52.7348 54 53V58ZM61 57C61 57.2652 60.8946 57.5196 60.7071 57.7071C60.5196 57.8946 60.2652 58 60 58H56V53C56 52.2044 55.6839 51.4413 55.1213 50.8787C54.5587 50.3161 53.7956 50 53 50H11C10.2044 50 9.44129 50.3161 8.87868 50.8787C8.31607 51.4413 8 52.2044 8 53V58H4C3.73478 58 3.48043 57.8946 3.29289 57.7071C3.10536 57.5196 3 57.2652 3 57V40C3 39.7348 3.10536 39.4804 3.29289 39.2929C3.48043 39.1054 3.73478 39 4 39H17.31C17.5482 38.9965 17.7799 39.0782 17.9632 39.2304C18.1465 39.3826 18.2695 39.5952 18.31 39.83L18.76 42.49C18.8772 43.198 19.2443 43.8406 19.7947 44.3012C20.3451 44.7617 21.0424 45.0096 21.76 45H42.31C43.019 44.9977 43.7043 44.7443 44.2444 44.2849C44.7844 43.8254 45.1442 43.1895 45.26 42.49L45.71 39.83C45.7505 39.5952 45.8735 39.3826 46.0568 39.2304C46.2401 39.0782 46.4718 38.9965 46.71 39H60C60.2652 39 60.5196 39.1054 60.7071 39.2929C60.8946 39.4804 61 39.7348 61 40V57Z" fill="black"/>
<path d="M46 54H18C17.7348 54 17.4804 54.1054 17.2929 54.2929C17.1054 54.4804 17 54.7348 17 55C17 55.2652 17.1054 55.5196 17.2929 55.7071C17.4804 55.8946 17.7348 56 18 56H46C46.2652 56 46.5196 55.8946 46.7071 55.7071C46.8946 55.5196 47 55.2652 47 55C47 54.7348 46.8946 54.4804 46.7071 54.2929C46.5196 54.1054 46.2652 54 46 54Z" fill="black"/>
</svg>
