<svg xmlns="http://www.w3.org/2000/svg" width="62" height="56" viewBox="0 0 62 56">
  <g id="pages" transform="translate(-1 -4)">
    <path id="Path_545" data-name="Path 545" d="M32,9a4,4,0,1,0,2.828,1.172A4,4,0,0,0,32,9Zm0,6a2,2,0,1,1,1.414-.586A2,2,0,0,1,32,15Z" fill="#ffb11d"/>
    <path id="Path_546" data-name="Path 546" d="M34,20a1,1,0,0,0-1,1V41a1,1,0,0,0,2,0V21a1,1,0,0,0-1-1Z" fill="#ffb11d"/>
    <path id="Path_547" data-name="Path 547" d="M30,20a1,1,0,0,0-1,1V41a1,1,0,0,0,2,0V21a1,1,0,0,0-1-1Z" fill="#ffb11d"/>
    <path id="Path_548" data-name="Path 548" d="M18,17a4,4,0,1,0-2.828-1.172A4,4,0,0,0,18,17Zm0-6a2,2,0,1,1-1.414.586A2,2,0,0,1,18,11Z" fill="#ffb11d"/>
    <path id="Path_549" data-name="Path 549" d="M16,20a1,1,0,0,0-1,1V35a1,1,0,0,0,2,0V21a1,1,0,0,0-1-1Z" fill="#ffb11d"/>
    <path id="Path_550" data-name="Path 550" d="M46,17a4,4,0,1,0-2.828-1.172A4,4,0,0,0,46,17Zm0-6a2,2,0,1,1-1.414.586A2,2,0,0,1,46,11Z" fill="#ffb11d"/>
    <path id="Path_551" data-name="Path 551" d="M48,20a1,1,0,0,0-1,1V35a1,1,0,0,0,2,0V21a1,1,0,0,0-1-1Z" fill="#ffb11d"/>
    <path id="Path_552" data-name="Path 552" d="M60,37H54V7a3,3,0,0,0-3-3H41a3,3,0,0,0-2,.78A3,3,0,0,0,37,4H27a3,3,0,0,0-2,.78A3,3,0,0,0,23,4H13a3,3,0,0,0-3,3V37H4a3,3,0,0,0-3,3V57a3,3,0,0,0,3,3H60a3,3,0,0,0,3-3V40a3,3,0,0,0-3-3ZM40,7a1,1,0,0,1,1-1H51a1,1,0,0,1,1,1V37H46.69a3,3,0,0,0-1.69.53V21a1,1,0,0,0-2,0V40a1,1,0,0,0,.51.85l-.22,1.32a1,1,0,0,1-1,.83H40ZM26,7a1,1,0,0,1,1-1H37a1,1,0,0,1,1,1V43H26ZM12,7a1,1,0,0,1,1-1H23a1,1,0,0,1,1,1V43H21.69a1,1,0,0,1-1-.83l-.22-1.32A1,1,0,0,0,21,40V21a1,1,0,0,0-2,0V37.53A3,3,0,0,0,17.31,37H12ZM54,58H10V53a1,1,0,0,1,1-1H53a1,1,0,0,1,1,1Zm7-1a1,1,0,0,1-1,1H56V53a3,3,0,0,0-3-3H11a3,3,0,0,0-3,3v5H4a1,1,0,0,1-1-1V40a1,1,0,0,1,1-1H17.31a1,1,0,0,1,1,.83l.45,2.66a3,3,0,0,0,3,2.51H42.31a3,3,0,0,0,2.95-2.51l.45-2.66a1,1,0,0,1,1-.83H60a1,1,0,0,1,1,1Z" fill="#ffb11d"/>
    <path id="Path_553" data-name="Path 553" d="M46,54H18a1,1,0,0,0,0,2H46a1,1,0,0,0,0-2Z" fill="#ffb11d"/>
  </g>
</svg>
