<svg xmlns="http://www.w3.org/2000/svg" width="71.519" height="60" viewBox="0 0 71.519 60">
  <path id="products" d="M71.519,55.024a.919.919,0,0,0-.028-.215V46.876a.9.9,0,0,0-.017-.168c0-.013,0-.025-.007-.037a.942.942,0,0,0-.047-.152l-.007-.014a.894.894,0,0,0-.045-.091L65.221,35.789V33.846A2.522,2.522,0,0,0,62.7,31.327H43.117A2.522,2.522,0,0,0,40.6,33.846v1.945L34.452,46.413a.946.946,0,0,0-.043.088l-.009.019a.927.927,0,0,0-.047.15c0,.013-.006.027-.008.04a.94.94,0,0,0-.017.163h0v22.44H30.552V61.455a7.981,7.981,0,0,0-2.26-5.581,5.117,5.117,0,0,1-1.72-3.259h0A.919.919,0,0,0,27.5,51.7V48.19a2.221,2.221,0,0,0-2.218-2.218H18.754a2.221,2.221,0,0,0-2.218,2.218V51.7a.919.919,0,0,0,.919.919h.09a5.114,5.114,0,0,1-1.721,3.258,7.982,7.982,0,0,0-2.26,5.581v7.859H10.034a6.572,6.572,0,0,0-6.564,6.564v9.578H3.405A3.409,3.409,0,0,0,0,88.861v1.528a.919.919,0,0,0,.919.919h46.4v.019H70.572a.919.919,0,0,0,.919-.919V82.432a.909.909,0,0,0,.028-.215V55.024ZM36.168,47.793H57.113V54.1H36.168ZM64.3,37.872l4.676,8.082H59.626ZM58.951,55.943h10.7V81.3h-10.7Zm0-1.838V47.793h10.7V54.1ZM42.436,33.846a.681.681,0,0,1,.681-.681H62.7a.682.682,0,0,1,.681.681v1.273H42.436Zm-.389,3.111h20.66l-5.205,9H36.842Zm-5.88,18.985H57.113V81.3H45.319V76.072a7.567,7.567,0,1,0-6.246-7.451c0,.236.015.47.036.7-.118-.006-.236-.01-.355-.01H36.167V55.943Zm2.587,15.209a4.731,4.731,0,0,1,4.726,4.726v9.578H31.688V75.878a6.544,6.544,0,0,0-2.015-4.726h9.081Zm2.157-2.532a5.739,5.739,0,1,1,4.169,5.51,6.592,6.592,0,0,0-4.062-4.414A5.775,5.775,0,0,1,40.911,68.62ZM18.374,48.189a.38.38,0,0,1,.38-.38h6.524a.38.38,0,0,1,.38.38v2.587H18.374Zm-1.229,8.963a6.905,6.905,0,0,0,2.242-4.537H24.73a6.905,6.905,0,0,0,2.242,4.537,6.155,6.155,0,0,1,1.742,4.3v7.859H15.4V61.454A6.153,6.153,0,0,1,17.144,57.152ZM5.308,75.878a4.731,4.731,0,0,1,4.726-4.726H25.124a4.731,4.731,0,0,1,4.726,4.726v9.578H5.308ZM46.4,89.47H1.838v-.609a1.569,1.569,0,0,1,1.567-1.567H44.838A1.569,1.569,0,0,1,46.4,88.861v.609Zm-1.086-3.976V83.137H57.113v6.352h-8.87v-.628A3.408,3.408,0,0,0,45.319,85.494Zm13.633,4V83.137h10.7v6.352Z" transform="translate(0 -31.327)" fill="#ffb11d"/>
</svg>
