<svg xmlns="http://www.w3.org/2000/svg"  viewBox="0 0 100 100" width="200px" height="200px"><path fill="#ee3e54" d="M13 27A2 2 0 1 0 13 31A2 2 0 1 0 13 27Z"/><path fill="#f1bc19" d="M77 12A1 1 0 1 0 77 14A1 1 0 1 0 77 12Z"/><path fill="#fce0a2" d="M50 13A37 37 0 1 0 50 87A37 37 0 1 0 50 13Z"/><path fill="#f1bc19" d="M83 11A4 4 0 1 0 83 19A4 4 0 1 0 83 11Z"/><path fill="#ee3e54" d="M87 22A2 2 0 1 0 87 26A2 2 0 1 0 87 22Z"/><path fill="#fbcd59" d="M81 74A2 2 0 1 0 81 78 2 2 0 1 0 81 74zM15 59A4 4 0 1 0 15 67 4 4 0 1 0 15 59z"/><path fill="#ee3e54" d="M25 85A2 2 0 1 0 25 89A2 2 0 1 0 25 85Z"/><path fill="#fff" d="M18.5 51A2.5 2.5 0 1 0 18.5 56A2.5 2.5 0 1 0 18.5 51Z"/><path fill="#f1bc19" d="M21 66A1 1 0 1 0 21 68A1 1 0 1 0 21 66Z"/><path fill="#fff" d="M80 33A1 1 0 1 0 80 35A1 1 0 1 0 80 33Z"/><path fill="#88cdd7" d="M35,72.3c-4.025,0-7.3-3.274-7.3-7.3V35c0-4.025,3.274-7.3,7.3-7.3h30c4.025,0,7.3,3.274,7.3,7.3 v30c0,4.025-3.274,7.3-7.3,7.3H35z"/><path fill="#472b29" d="M65,28.4c3.639,0,6.6,2.961,6.6,6.6v30c0,3.639-2.961,6.6-6.6,6.6H35c-3.639,0-6.6-2.961-6.6-6.6 V35c0-3.639,2.961-6.6,6.6-6.6H65 M65,27H35c-4.4,0-8,3.6-8,8v30c0,4.4,3.6,8,8,8h30c4.4,0,8-3.6,8-8V35C73,30.6,69.4,27,65,27 L65,27z"/><path fill="#88cdd7" d="M40.375,32.5c1.726,0,3.125,1.399,3.125,3.125v4.75c0,1.726-1.399,3.125-3.125,3.125h-4.75 c-1.726,0-3.125-1.399-3.125-3.125v-4.75c0-1.726,1.399-3.125,3.125-3.125"/><path fill="#472b29" d="M40.375,44h-4.75C33.626,44,32,42.374,32,40.375v-4.75C32,33.626,33.626,32,35.625,32 c0.276,0,0.5,0.224,0.5,0.5s-0.224,0.5-0.5,0.5C34.178,33,33,34.178,33,35.625v4.75C33,41.822,34.178,43,35.625,43h4.75 C41.822,43,43,41.822,43,40.375v-4.75C43,34.178,41.822,33,40.375,33c-0.276,0-0.5-0.224-0.5-0.5s0.224-0.5,0.5-0.5 C42.374,32,44,33.626,44,35.625v4.75C44,42.374,42.374,44,40.375,44z"/><path fill="#472b29" d="M38.396,33h-1c-0.276,0-0.5-0.224-0.5-0.5s0.224-0.5,0.5-0.5h1c0.276,0,0.5,0.224,0.5,0.5 S38.672,33,38.396,33z"/><path fill="#48bed8" d="M39.08,40.5H36.92c-0.784,0-1.42-0.636-1.42-1.42V36.92c0-0.784,0.636-1.42,1.42-1.42h2.159 c0.784,0,1.42,0.636,1.42,1.42v2.159C40.5,39.864,39.864,40.5,39.08,40.5z"/><path fill="#472b29" d="M39.079,40.75h-2.158C36,40.75,35.25,40,35.25,39.079v-2.158c0-0.921,0.75-1.671,1.671-1.671h2.158 c0.921,0,1.671,0.75,1.671,1.671v2.158C40.75,40,40,40.75,39.079,40.75z M36.921,35.75c-0.646,0-1.171,0.525-1.171,1.171v2.158 c0,0.646,0.525,1.171,1.171,1.171h2.158c0.646,0,1.171-0.525,1.171-1.171v-2.158c0-0.646-0.525-1.171-1.171-1.171H36.921z"/><path fill="#88cdd7" d="M67.5,40.375c0,1.726-1.399,3.125-3.125,3.125h-4.75c-1.726,0-3.125-1.399-3.125-3.125v-4.75 c0-1.726,1.399-3.125,3.125-3.125h4.75c1.726,0,3.125,1.399,3.125,3.125v2.562"/><path fill="#472b29" d="M64.375,44h-4.75C57.626,44,56,42.374,56,40.375v-4.75C56,33.626,57.626,32,59.625,32h4.75 C66.374,32,68,33.626,68,35.625v2.563c0,0.276-0.224,0.5-0.5,0.5s-0.5-0.224-0.5-0.5v-2.563C67,34.178,65.822,33,64.375,33h-4.75 C58.178,33,57,34.178,57,35.625v4.75C57,41.822,58.178,43,59.625,43h4.75C65.822,43,67,41.822,67,40.375c0-0.276,0.224-0.5,0.5-0.5 s0.5,0.224,0.5,0.5C68,42.374,66.374,44,64.375,44z"/><path fill="#48bed8" d="M63.08,40.5H60.92c-0.784,0-1.42-0.636-1.42-1.42V36.92c0-0.784,0.636-1.42,1.42-1.42h2.159 c0.784,0,1.42,0.636,1.42,1.42v2.159C64.5,39.864,63.864,40.5,63.08,40.5z"/><path fill="#472b29" d="M63.079,40.75h-2.158C60,40.75,59.25,40,59.25,39.079v-2.158c0-0.921,0.75-1.671,1.671-1.671h2.158 c0.921,0,1.671,0.75,1.671,1.671v2.158C64.75,40,64,40.75,63.079,40.75z M60.921,35.75c-0.646,0-1.171,0.525-1.171,1.171v2.158 c0,0.646,0.525,1.171,1.171,1.171h2.158c0.646,0,1.171-0.525,1.171-1.171v-2.158c0-0.646-0.525-1.171-1.171-1.171H60.921z"/><path fill="#88cdd7" d="M40.375,67.5h-4.75c-1.726,0-3.125-1.399-3.125-3.125v-4.75c0-1.726,1.399-3.125,3.125-3.125h4.75 c1.726,0,3.125,1.399,3.125,3.125v4.75C43.5,66.101,42.101,67.5,40.375,67.5z"/><path fill="#472b29" d="M40.375,68h-4.75C33.626,68,32,66.374,32,64.375v-4.75C32,57.626,33.626,56,35.625,56h4.75 C42.374,56,44,57.626,44,59.625v4.75C44,66.374,42.374,68,40.375,68z M35.625,57C34.178,57,33,58.178,33,59.625v4.75 C33,65.822,34.178,67,35.625,67h4.75C41.822,67,43,65.822,43,64.375v-4.75C43,58.178,41.822,57,40.375,57H35.625z"/><path fill="#48bed8" d="M39.08,64.5H36.92c-0.784,0-1.42-0.636-1.42-1.42V60.92c0-0.784,0.636-1.42,1.42-1.42h2.159 c0.784,0,1.42,0.636,1.42,1.42v2.159C40.5,63.864,39.864,64.5,39.08,64.5z"/><path fill="#472b29" d="M39.079 64.75h-2.158C36 64.75 35.25 64 35.25 63.079v-2.158c0-.921.75-1.671 1.671-1.671h2.158c.921 0 1.671.75 1.671 1.671v2.158C40.75 64 40 64.75 39.079 64.75zM36.921 59.75c-.646 0-1.171.525-1.171 1.171v2.158c0 .646.525 1.171 1.171 1.171h2.158c.646 0 1.171-.525 1.171-1.171v-2.158c0-.646-.525-1.171-1.171-1.171H36.921zM67.148 56h-1.295C65.382 56 65 55.618 65 55.148v-1.295C65 53.382 65.382 53 65.852 53h1.295C67.618 53 68 53.382 68 53.852v1.295C68 55.618 67.618 56 67.148 56zM61.148 56h-1.295C59.382 56 59 55.618 59 55.148v-1.295C59 53.382 59.382 53 59.852 53h1.295C61.618 53 62 53.382 62 53.852v1.295C62 55.618 61.618 56 61.148 56zM55.148 56h-1.295C53.382 56 53 55.618 53 55.148v-1.295C53 53.382 53.382 53 53.852 53h1.295C55.618 53 56 53.382 56 53.852v1.295C56 55.618 55.618 56 55.148 56zM49.148 56h-1.295C47.382 56 47 55.618 47 55.148v-1.295C47 53.382 47.382 53 47.852 53h1.295C49.618 53 50 53.382 50 53.852v1.295C50 55.618 49.618 56 49.148 56zM49.148 62h-1.295C47.382 62 47 61.618 47 61.148v-1.295C47 59.382 47.382 59 47.852 59h1.295C49.618 59 50 59.382 50 59.852v1.295C50 61.618 49.618 62 49.148 62zM49.148 68h-1.295C47.382 68 47 67.618 47 67.148v-1.295C47 65.382 47.382 65 47.852 65h1.295C49.618 65 50 65.382 50 65.852v1.295C50 67.618 49.618 68 49.148 68zM52.148 59h-1.295C50.382 59 50 58.618 50 58.148v-1.295C50 56.382 50.382 56 50.852 56h1.295C52.618 56 53 56.382 53 56.852v1.295C53 58.618 52.618 59 52.148 59zM52.148 65h-1.295C50.382 65 50 64.618 50 64.148v-1.295C50 62.382 50.382 62 50.852 62h1.295C52.618 62 53 62.382 53 62.852v1.295C53 64.618 52.618 65 52.148 65z"/><g><path fill="#472b29" d="M55.148,62h-1.295C53.382,62,53,61.618,53,61.148v-1.295C53,59.382,53.382,59,53.852,59h1.295 C55.618,59,56,59.382,56,59.852v1.295C56,61.618,55.618,62,55.148,62z"/></g><g><path fill="#472b29" d="M58.148,65h-1.295C56.382,65,56,64.618,56,64.148v-1.295C56,62.382,56.382,62,56.852,62h1.295 C58.618,62,59,62.382,59,62.852v1.295C59,64.618,58.618,65,58.148,65z"/></g><g><path fill="#472b29" d="M67.148,62h-1.295C65.382,62,65,61.618,65,61.148v-1.295C65,59.382,65.382,59,65.852,59h1.295 C67.618,59,68,59.382,68,59.852v1.295C68,61.618,67.618,62,67.148,62z"/></g><g><path fill="#472b29" d="M52.148,47h-1.295C50.382,47,50,46.618,50,46.148v-1.295C50,44.382,50.382,44,50.852,44h1.295 C52.618,44,53,44.382,53,44.852v1.295C53,46.618,52.618,47,52.148,47z"/></g><g><path fill="#472b29" d="M52.148,41h-1.295C50.382,41,50,40.618,50,40.148v-1.295C50,38.382,50.382,38,50.852,38h1.295 C52.618,38,53,38.382,53,38.852v1.295C53,40.618,52.618,41,52.148,41z"/></g><g><path fill="#472b29" d="M49.148,38h-1.295C47.382,38,47,37.618,47,37.148v-1.295C47,35.382,47.382,35,47.852,35h1.295 C49.618,35,50,35.382,50,35.852v1.295C50,37.618,49.618,38,49.148,38z"/></g><g><path fill="#472b29" d="M52.148,35h-1.295C50.382,35,50,34.618,50,34.148v-1.295C50,32.382,50.382,32,50.852,32h1.295 C52.618,32,53,32.382,53,32.852v1.295C53,34.618,52.618,35,52.148,35z"/></g><g><path fill="#472b29" d="M40.148,50h-1.295C38.382,50,38,49.618,38,49.148v-1.295C38,47.382,38.382,47,38.852,47h1.295 C40.618,47,41,47.382,41,47.852v1.295C41,49.618,40.618,50,40.148,50z"/></g><g><path fill="#472b29" d="M37.148,53h-1.295C35.382,53,35,52.618,35,52.148v-1.295C35,50.382,35.382,50,35.852,50h1.295 C37.618,50,38,50.382,38,50.852v1.295C38,52.618,37.618,53,37.148,53z"/></g><g><path fill="#472b29" d="M43.148,53h-1.295C41.382,53,41,52.618,41,52.148v-1.295C41,50.382,41.382,50,41.852,50h1.295 C43.618,50,44,50.382,44,50.852v1.295C44,52.618,43.618,53,43.148,53z"/></g><g><path fill="#472b29" d="M34.148,50h-1.295C32.382,50,32,49.618,32,49.148v-1.295C32,47.382,32.382,47,32.852,47h1.295 C34.618,47,35,47.382,35,47.852v1.295C35,49.618,34.618,50,34.148,50z"/></g><g><path fill="#472b29" d="M64.148,53h-1.295C62.382,53,62,52.618,62,52.148v-1.295C62,50.382,62.382,50,62.852,50h1.295 C64.618,50,65,50.382,65,50.852v1.295C65,52.618,64.618,53,64.148,53z"/></g><g><path fill="#472b29" d="M67.148,50h-1.295C65.382,50,65,49.618,65,49.148v-1.295C65,47.382,65.382,47,65.852,47h1.295 C67.618,47,68,47.382,68,47.852v1.295C68,49.618,67.618,50,67.148,50z"/></g><g><path fill="#472b29" d="M65,56.852v8.295C65,65.618,64.618,66,64.148,66h-1.295C62.382,66,62,65.618,62,65.148v-8.295 C62,56.382,62.382,56,62.852,56h1.295C64.618,56,65,56.382,65,56.852z"/></g><g><path fill="#472b29" d="M67.148,68H54.852C54.382,68,54,67.618,54,67.148v-1.295C54,65.382,54.382,65,54.852,65h12.295 C67.618,65,68,65.382,68,65.852v1.295C68,67.618,67.618,68,67.148,68z"/></g><g><path fill="#472b29" d="M58.148,53h-7.295C50.382,53,50,52.618,50,52.148v-1.295C50,50.382,50.382,50,50.852,50h7.295 C58.618,50,59,50.382,59,50.852v1.295C59,52.618,58.618,53,58.148,53z"/></g><g><path fill="#472b29" d="M55.148,50H44.852C44.382,50,44,49.618,44,49.148v-1.295C44,47.382,44.382,47,44.852,47h10.295 C55.618,47,56,47.382,56,47.852v1.295C56,49.618,55.618,50,55.148,50z"/></g></svg>