<svg xmlns="http://www.w3.org/2000/svg" width="93.62" height="68.5" viewBox="0 0 93.62 68.5">
  <g id="Group_2" data-name="Group 2" transform="translate(-3817 -5880)">
    <g id="refresh" transform="translate(3813.499 5865.249)">
      <path id="Path_1" data-name="Path 1" d="M70,57.75l12.5-12,12.5,12" fill="none" stroke="#fff" stroke-linecap="round" stroke-linejoin="round" stroke-miterlimit="10" stroke-width="3"/>
      <g id="Group_1" data-name="Group 1">
        <path id="Path_2" data-name="Path 2" d="M83.854,45.613a1.5,1.5,0,0,0-2.988.275c.09.97.135,1.956.135,2.929A31.4,31.4,0,0,1,49.7,80.251a31.036,31.036,0,0,1-22.134-9.205,1.5,1.5,0,0,0-2.125,2.118A34.014,34.014,0,0,0,49.7,83.251,34.408,34.408,0,0,0,84,48.817C84,47.752,83.95,46.674,83.854,45.613Z" fill="#fff"/>
        <path id="Path_3" data-name="Path 3" d="M31.082,44.712a1.5,1.5,0,0,0-2.121-.043L18.513,54.7a31.31,31.31,0,0,1,30.81-36.949,31.121,31.121,0,0,1,22.118,9.143A1.5,1.5,0,0,0,73.56,24.77,34.323,34.323,0,0,0,15,49.068a34.624,34.624,0,0,0,.3,4.488L6.04,44.669a1.5,1.5,0,1,0-2.078,2.164l12.5,12a1.5,1.5,0,0,0,2.078,0l12.5-12A1.5,1.5,0,0,0,31.082,44.712Z" fill="#fff"/>
      </g>
    </g>
  </g>
</svg>
