<?xml version="1.0" encoding="UTF-8"?>
<svg viewBox="0 0 147 148" xmlns="http://www.w3.org/2000/svg">
<defs>
<linearGradient id="a" x1="1.192" x2=".045" y1="-.182" y2=".968">
<stop stop-color="#ffdc8d" offset="0"/>
<stop stop-color="#ff9d00" offset="1"/>
</linearGradient>
<filter id="c" x="0" y="0" width="147" height="148" filterUnits="userSpaceOnUse">
<feOffset input="SourceAlpha"/>
<feGaussianBlur result="blur" stdDeviation="5"/>
<feFlood flood-color="#ffc860"/>
<feComposite in2="blur" operator="in"/>
<feComposite in="SourceGraphic"/>
</filter>
<filter id="b" x="0" y="0" width="147" height="148" filterUnits="userSpaceOnUse">
<feOffset dy="-3" input="SourceAlpha"/>
<feGaussianBlur result="blur-2" stdDeviation="3"/>
<feFlood flood-opacity=".161" result="color"/>
<feComposite in="SourceGraphic" in2="blur-2" operator="out"/>
<feComposite in="color" operator="in"/>
<feComposite in2="SourceGraphic" operator="in"/>
</filter>
</defs>
<g data-type="innerShadowGroup">
<g filter="url(#c)">
<rect transform="translate(15 15)" width="117" height="118" rx="18" fill="url(#a)" data-name="Rectangle 54"/>
</g>
<g filter="url(#b)">
<rect transform="translate(15 15)" width="117" height="118" rx="18" fill="#fff" data-name="Rectangle 54"/>
</g>
</g>
<g transform="translate(41.269 42.002)" fill="#fff">
<path transform="translate(12.999 5)" d="M28.754,39.749,16.875,27.87V7.875h4.25V26.106L31.749,36.751Z" data-name="Path 314"/>
<path transform="translate(0)" d="M32,2.25a29.618,29.618,0,0,0-21.246,8.986l0-8.986H6.5v17h17V15H13.045A25.5,25.5,0,1,1,6.5,32H2.25A29.749,29.749,0,1,0,32,2.25Z" data-name="Path 315"/>
</g>
</svg>
