<?xml version="1.0" encoding="UTF-8" standalone="no"?> <svg xmlns="http://www.w3.org/2000/svg" viewBox="0 0 64 64"><g id="Insurance"><path d="M61.71,14.34,49.69,2.29a1.009,1.009,0,0,0-.7-.29H19a3.009,3.009,0,0,0-3,3V6.05A12.98,12.98,0,0,0,10.1,30H5a1,1,0,0,0-1,1v5H3a1,1,0,0,0-1,1v6a1,1,0,0,0,1,1H4v4H3a1,1,0,0,0-1,1v6a1,1,0,0,0,1,1H4v5a1,1,0,0,0,1,1H29a1,1,0,0,0,1-1V58H59a3.009,3.009,0,0,0,3-3V15.05A.99.99,0,0,0,61.71,14.34ZM50,5.43,58.54,14H51a1,1,0,0,1-1-1ZM6,19A11,11,0,1,1,17,30,11.007,11.007,0,0,1,6,19ZM26,38v4H22V38Zm-2-2V32h4v4Zm4,8v4H24V44Zm-6-8H18V32h4Zm-6,2h4v4H16Zm-4-2V32h4v4Zm6,8h4v4H18Zm-4-6v4H10V38Zm2,6v4H12V44ZM6,32h4v4H6ZM4,38H8v4H4Zm6,6v4H6V44ZM4,54V50H8v4Zm6,6H6V56h4Zm0-10h4v4H10Zm6,10H12V56h4Zm0-10h4v4H16Zm6,10H18V56h4Zm0-10h4v4H22Zm6,10H24V56h4Zm32-5a1,1,0,0,1-1,1H30V55a1,1,0,0,0-1-1H28V50h1a1,1,0,0,0,1-1V43a1,1,0,0,0-1-1H28V38h1a1,1,0,0,0,1-1V31a1,1,0,0,0-1-1H23.9a12.959,12.959,0,0,0,2.46-20H30V8H26V9.64a12.953,12.953,0,0,0-8-3.59V5a1,1,0,0,1,1-1H48v9a3.009,3.009,0,0,0,3,3h9Z"/><rect x="32" y="8" width="14" height="2"/><rect x="32" y="12" width="14" height="2"/><rect x="38" y="18" width="4" height="2"/><rect x="44" y="18" width="14" height="2"/><rect x="38" y="22" width="4" height="2"/><rect x="44" y="22" width="14" height="2"/><path d="M17,14a2,2,0,0,1,2,2h2a4,4,0,0,0-3-3.858V10H16v2.142A3.992,3.992,0,0,0,17,20a2,2,0,1,1-2,2H13a4,4,0,0,0,3,3.858V28h2V25.858A3.992,3.992,0,0,0,17,18a2,2,0,0,1,0-4Z"/><path d="M43.878,37.464l-1.414,1.414,2.829,2.829a1,1,0,0,0,1.414,0l5.657-5.657L50.95,34.636,46,39.586Z"/><path d="M55.41,32.09l-9-4a.979.979,0,0,0-.82,0l-9,4A.987.987,0,0,0,36,33v6a7.6,7.6,0,0,0,2.34,5.51l6.94,7.18a.991.991,0,0,0,1.44,0l6.94-7.18A7.583,7.583,0,0,0,56,39V33A.987.987,0,0,0,55.41,32.09ZM54,39a5.655,5.655,0,0,1-1.77,4.11L46,49.56l-6.23-6.45-.01-.01A5.645,5.645,0,0,1,38,39V33.65l8-3.56,8,3.56Z"/></g></svg>
