<svg xmlns="http://www.w3.org/2000/svg" width="61.266" height="65" viewBox="0 0 61.266 65"><g transform="translate(9831 7307)"><g transform="translate(-9829 -7305)" fill="none" stroke-linecap="round"><path d="M.624,0H56.642a.624.624,0,0,1,.624.624V50.556a.624.624,0,0,1-.624.624H.624A.624.624,0,0,1,0,50.556V.624A.624.624,0,0,1,.624,0Z" stroke="none"/><path d="M 0.6241531372070312 -3.814697265625e-06 C 0.2794418334960938 -3.814697265625e-06 3.814697265625e-06 0.2794380187988281 3.814697265625e-06 0.6241569519042969 L 3.814697265625e-06 50.55625534057617 C 3.814697265625e-06 50.90096664428711 0.2794418334960938 51.18040466308594 0.6241531372070312 51.18040466308594 L 56.64173126220703 51.18040466308594 C 56.98644256591797 51.18040466308594 57.2658805847168 50.90096664428711 57.2658805847168 50.55625534057617 L 57.2658805847168 0.6241569519042969 C 57.2658805847168 0.2794380187988281 56.98644256591797 -3.814697265625e-06 56.64173126220703 -3.814697265625e-06 L 0.6241531372070312 -3.814697265625e-06 M 0.6241531372070312 -2.000003814697266 L 56.64173126220703 -2.000003814697266 C 58.08869171142578 -2.000003814697266 59.2658805847168 -0.82281494140625 59.2658805847168 0.6241569519042969 L 59.2658805847168 50.55625534057617 C 59.2658805847168 52.00321578979492 58.08869171142578 53.18040466308594 56.64173126220703 53.18040466308594 L 0.6241531372070312 53.18040466308594 C -0.8228073120117188 53.18040466308594 -1.999996185302734 52.00321578979492 -1.999996185302734 50.55625534057617 L -1.999996185302734 0.6241569519042969 C -1.999996185302734 -0.82281494140625 -0.8228073120117188 -2.000003814697266 0.6241531372070312 -2.000003814697266 Z" stroke="none" fill="#000"/></g><rect width="29" height="21" rx="1" transform="translate(-9815 -7298)" fill="none" stroke="#000" stroke-width="2"/><rect width="7" height="5" rx="1" transform="translate(-9825 -7282)" fill="none" stroke="#000" stroke-linecap="round" stroke-linejoin="round" stroke-width="2"/><rect width="7" height="5" rx="1" transform="translate(-9825 -7298)" fill="none" stroke="#000" stroke-linecap="round" stroke-linejoin="round" stroke-width="2"/><rect width="7" height="5" rx="1" transform="translate(-9825 -7290)" fill="none" stroke="#000" stroke-linecap="round" stroke-linejoin="round" stroke-width="2"/><rect width="7" height="5" rx="1" transform="translate(-9783 -7282)" fill="none" stroke="#000" stroke-linecap="round" stroke-linejoin="round" stroke-width="2"/><rect width="7" height="5" rx="1" transform="translate(-9783 -7298)" fill="none" stroke="#000" stroke-linecap="round" stroke-linejoin="round" stroke-width="2"/><rect width="7" height="5" rx="1" transform="translate(-9783 -7290)" fill="none" stroke="#000" stroke-linecap="round" stroke-linejoin="round" stroke-width="2"/><rect width="41" height="5" rx="2.5" transform="translate(-9821 -7270)"/><circle cx="1.5" cy="1.5" r="1.5" transform="translate(-9812 -7283)"/><circle cx="1.5" cy="1.5" r="1.5" transform="translate(-9807 -7283)"/><circle cx="1.5" cy="1.5" r="1.5" transform="translate(-9802 -7283)"/><circle cx="1.5" cy="1.5" r="1.5" transform="translate(-9797 -7283)"/><circle cx="1.5" cy="1.5" r="1.5" transform="translate(-9792 -7283)"/><g transform="translate(-9817 -7269)" fill="#fff" stroke="#000" stroke-width="2"><path d="M0,0H33a0,0,0,0,1,0,0V25a2,2,0,0,1-2,2H2a2,2,0,0,1-2-2V0A0,0,0,0,1,0,0Z" stroke="none"/><path d="M1,1H32a0,0,0,0,1,0,0V25a1,1,0,0,1-1,1H2a1,1,0,0,1-1-1V1A0,0,0,0,1,1,1Z" fill="none"/></g><line x1="22.938" transform="translate(-9811.835 -7262.884)" fill="none" stroke="#000" stroke-linecap="round" stroke-width="2"/><line x1="22.86" transform="translate(-9811.758 -7258.203)" fill="none" stroke="#000" stroke-linecap="round" stroke-width="2"/><line x1="22.938" transform="translate(-9811.835 -7253.522)" fill="none" stroke="#000" stroke-linecap="round" stroke-width="2"/><line x1="22.86" transform="translate(-9811.758 -7248.841)" fill="none" stroke="#000" stroke-linecap="round" stroke-width="2"/></g></svg>