<svg xmlns="http://www.w3.org/2000/svg" width="58.49" height="58.5" viewBox="0 0 58.49 58.5">
  <g id="setting" transform="translate(-2.75 -2.75)">
    <path id="Path_543" data-name="Path 543" d="M32,17.46a14.55,14.55,0,1,0,10.278,4.262A14.54,14.54,0,0,0,32,17.46ZM32,44a12.05,12.05,0,1,1,8.471-3.529A12,12,0,0,1,32,44Z" fill="#ffb11d"/>
    <path id="Path_544" data-name="Path 544" d="M56.78,25.45a2,2,0,0,1-1.87-1.39,22.617,22.617,0,0,0-1.1-2.64,2,2,0,0,1,.35-2.32,4.48,4.48,0,0,0,0-6.31L51.21,9.85a4.48,4.48,0,0,0-6.32,0,2,2,0,0,1-2.31.34,24.131,24.131,0,0,0-2.64-1.1,2,2,0,0,1-1.39-1.87,4.47,4.47,0,0,0-4.47-4.47H29.92a4.47,4.47,0,0,0-4.47,4.47,2,2,0,0,1-1.39,1.87,24.13,24.13,0,0,0-2.64,1.1,2,2,0,0,1-2.32-.35,4.48,4.48,0,0,0-6.31,0L9.85,12.79a4.48,4.48,0,0,0,0,6.32,2,2,0,0,1,.34,2.31,24.13,24.13,0,0,0-1.1,2.64,2,2,0,0,1-1.87,1.39,4.47,4.47,0,0,0-4.47,4.47v4.16a4.47,4.47,0,0,0,4.47,4.47,2,2,0,0,1,1.87,1.39,24.131,24.131,0,0,0,1.1,2.64,2,2,0,0,1-.35,2.32,4.48,4.48,0,0,0,0,6.31l2.94,2.94a4.47,4.47,0,0,0,6.32,0,2,2,0,0,1,2.31-.34,24.128,24.128,0,0,0,2.64,1.1,2,2,0,0,1,1.39,1.87,4.47,4.47,0,0,0,4.47,4.47h4.16a4.47,4.47,0,0,0,4.47-4.47,2,2,0,0,1,1.39-1.87,24.128,24.128,0,0,0,2.64-1.1,2,2,0,0,1,2.32.35,4.47,4.47,0,0,0,6.31,0l2.94-2.94a4.48,4.48,0,0,0,0-6.32,2,2,0,0,1-.34-2.31,22.616,22.616,0,0,0,1.1-2.64,2,2,0,0,1,1.87-1.39,4.47,4.47,0,0,0,4.47-4.47V29.92a4.47,4.47,0,0,0-4.46-4.47Zm2,8.63a2,2,0,0,1-2,2,4.52,4.52,0,0,0-4.24,3.07,19.392,19.392,0,0,1-1,2.37,4.53,4.53,0,0,0,.83,5.18,2,2,0,0,1,0,2.78l-2.93,2.93a2,2,0,0,1-2.79,0,4.52,4.52,0,0,0-5.17-.82,19.391,19.391,0,0,1-2.37,1,4.52,4.52,0,0,0-3.07,4.24,2,2,0,0,1-2,2H29.92a2,2,0,0,1-2-2,4.52,4.52,0,0,0-3.07-4.24,19.391,19.391,0,0,1-2.37-1,4.67,4.67,0,0,0-2-.47,4.49,4.49,0,0,0-3.16,1.3,2,2,0,0,1-2.78,0l-2.93-2.93a2,2,0,0,1,0-2.79,4.52,4.52,0,0,0,.82-5.17,19.391,19.391,0,0,1-1-2.37h0a4.52,4.52,0,0,0-4.24-3.07,2,2,0,0,1-2-2V29.92a2,2,0,0,1,2-2,4.52,4.52,0,0,0,4.24-3.07,19.391,19.391,0,0,1,1-2.37,4.53,4.53,0,0,0-.83-5.18,2,2,0,0,1,0-2.78l2.93-2.93a2,2,0,0,1,2.79,0,4.52,4.52,0,0,0,5.17.82,19.391,19.391,0,0,1,2.37-1A4.52,4.52,0,0,0,28,7.22a2,2,0,0,1,2-2h4.16a2,2,0,0,1,2,2,4.52,4.52,0,0,0,3.07,4.24,19.391,19.391,0,0,1,2.37,1,4.53,4.53,0,0,0,5.18-.83,2,2,0,0,1,2.78,0l2.93,2.93a2,2,0,0,1,0,2.79,4.52,4.52,0,0,0-.82,5.17,19.39,19.39,0,0,1,1,2.37A4.52,4.52,0,0,0,56.78,28a2,2,0,0,1,2,2Z" fill="#ffb11d"/>
  </g>
</svg>
