<svg xmlns="http://www.w3.org/2000/svg" width="54" height="64" viewBox="0 0 54 64">
  <path id="sms" d="M13,0A7.008,7.008,0,0,0,6,7V57a7.008,7.008,0,0,0,7,7H35a7.008,7.008,0,0,0,7-7V46.328A10.373,10.373,0,0,0,44.766,42H57a3.006,3.006,0,0,0,3-3V17a3.006,3.006,0,0,0-3-3H42V7a7.008,7.008,0,0,0-7-7Zm0,2H35a5,5,0,0,1,5,5V8H8V7A5,5,0,0,1,13,2Zm6,2a1,1,0,0,0,0,2h2a1,1,0,0,0,0-2Zm6,0a1,1,0,0,0,0,2h4a1,1,0,0,0,0-2ZM8,10H40v4H31a3.006,3.006,0,0,0-3,3V39a3.006,3.006,0,0,0,3,3h5.215a12,12,0,0,1-1.145,5.629A1,1,0,0,0,36,49a.854.854,0,0,0,.141-.012A11.416,11.416,0,0,0,40,47.754V52H8Zm23,6H57a1,1,0,0,1,1,1V39a1,1,0,0,1-1,1H44a1,1,0,0,0-.984.828,7.869,7.869,0,0,1-5.465,5.8c1.258-4.039.453-5.859.344-6.078A1.006,1.006,0,0,0,37,40H31a1,1,0,0,1-1-1V17A1,1,0,0,1,31,16Zm5,10a2,2,0,1,0,2,2A2,2,0,0,0,36,26Zm8,0a2,2,0,1,0,2,2A2,2,0,0,0,44,26Zm8,0a2,2,0,1,0,2,2A2,2,0,0,0,52,26ZM12,44a1,1,0,0,0-1,1v2a1,1,0,0,0,2,0V45A1,1,0,0,0,12,44Zm5,0a1,1,0,0,0-1,1v2a1,1,0,0,0,2,0V45A1,1,0,0,0,17,44Zm5,0a1,1,0,0,0-1,1v2a1,1,0,0,0,2,0V45A1,1,0,0,0,22,44Zm5,0a1,1,0,0,0-1,1v2a1,1,0,0,0,2,0V45A1,1,0,0,0,27,44Zm5,0a1,1,0,0,0-1,1v2a1,1,0,0,0,2,0V45A1,1,0,0,0,32,44ZM8,54H40v3a5,5,0,0,1-5,5H13a5,5,0,0,1-5-5Zm16,2a2,2,0,1,0,2,2A2,2,0,0,0,24,56Z" transform="translate(-6)" fill="#ffb11c"/>
</svg>
