<svg xmlns="http://www.w3.org/2000/svg"  viewBox="0 0 64 64" width="128px" height="128px"><path d="M 13 0 C 9.140625 0 6 3.140625 6 7 L 6 57 C 6 60.859375 9.140625 64 13 64 L 35 64 C 38.859375 64 42 60.859375 42 57 L 42 46.328125 C 43.652344 44.800781 44.429688 43.023438 44.765625 42 L 57 42 C 58.652344 42 60 40.652344 60 39 L 60 17 C 60 15.347656 58.652344 14 57 14 L 42 14 L 42 7 C 42 3.140625 38.859375 0 35 0 Z M 13 2 L 35 2 C 37.757813 2 40 4.242188 40 7 L 40 8 L 8 8 L 8 7 C 8 4.242188 10.242188 2 13 2 Z M 19 4 C 18.445313 4 18 4.445313 18 5 C 18 5.554688 18.445313 6 19 6 L 21 6 C 21.554688 6 22 5.554688 22 5 C 22 4.445313 21.554688 4 21 4 Z M 25 4 C 24.445313 4 24 4.445313 24 5 C 24 5.554688 24.445313 6 25 6 L 29 6 C 29.554688 6 30 5.554688 30 5 C 30 4.445313 29.554688 4 29 4 Z M 8 10 L 40 10 L 40 14 L 31 14 C 29.347656 14 28 15.347656 28 17 L 28 39 C 28 40.652344 29.347656 42 31 42 L 36.214844 42 C 36.3125 42.84375 36.269531 44.636719 35.070313 47.628906 C 34.9375 47.960938 34.992188 48.335938 35.214844 48.617188 C 35.40625 48.859375 35.695313 49 36 49 C 36.046875 49 36.09375 48.996094 36.140625 48.988281 C 37.675781 48.769531 38.945313 48.324219 40 47.753906 L 40 52 L 8 52 Z M 31 16 L 57 16 C 57.550781 16 58 16.449219 58 17 L 58 39 C 58 39.550781 57.550781 40 57 40 L 44 40 C 43.515625 40 43.101563 40.351563 43.015625 40.828125 C 42.980469 41.023438 42.199219 45.164063 37.550781 46.628906 C 38.808594 42.589844 38.003906 40.769531 37.894531 40.550781 C 37.722656 40.214844 37.378906 40 37 40 L 31 40 C 30.449219 40 30 39.550781 30 39 L 30 17 C 30 16.449219 30.449219 16 31 16 Z M 36 26 C 34.894531 26 34 26.894531 34 28 C 34 29.105469 34.894531 30 36 30 C 37.105469 30 38 29.105469 38 28 C 38 26.894531 37.105469 26 36 26 Z M 44 26 C 42.894531 26 42 26.894531 42 28 C 42 29.105469 42.894531 30 44 30 C 45.105469 30 46 29.105469 46 28 C 46 26.894531 45.105469 26 44 26 Z M 52 26 C 50.894531 26 50 26.894531 50 28 C 50 29.105469 50.894531 30 52 30 C 53.105469 30 54 29.105469 54 28 C 54 26.894531 53.105469 26 52 26 Z M 12 44 C 11.445313 44 11 44.445313 11 45 L 11 47 C 11 47.554688 11.445313 48 12 48 C 12.554688 48 13 47.554688 13 47 L 13 45 C 13 44.445313 12.554688 44 12 44 Z M 17 44 C 16.445313 44 16 44.445313 16 45 L 16 47 C 16 47.554688 16.445313 48 17 48 C 17.554688 48 18 47.554688 18 47 L 18 45 C 18 44.445313 17.554688 44 17 44 Z M 22 44 C 21.445313 44 21 44.445313 21 45 L 21 47 C 21 47.554688 21.445313 48 22 48 C 22.554688 48 23 47.554688 23 47 L 23 45 C 23 44.445313 22.554688 44 22 44 Z M 27 44 C 26.445313 44 26 44.445313 26 45 L 26 47 C 26 47.554688 26.445313 48 27 48 C 27.554688 48 28 47.554688 28 47 L 28 45 C 28 44.445313 27.554688 44 27 44 Z M 32 44 C 31.445313 44 31 44.445313 31 45 L 31 47 C 31 47.554688 31.445313 48 32 48 C 32.554688 48 33 47.554688 33 47 L 33 45 C 33 44.445313 32.554688 44 32 44 Z M 8 54 L 40 54 L 40 57 C 40 59.757813 37.757813 62 35 62 L 13 62 C 10.242188 62 8 59.757813 8 57 Z M 24 56 C 22.894531 56 22 56.894531 22 58 C 22 59.105469 22.894531 60 24 60 C 25.105469 60 26 59.105469 26 58 C 26 56.894531 25.105469 56 24 56 Z"/></svg>