<svg xmlns="http://www.w3.org/2000/svg" xmlns:xlink="http://www.w3.org/1999/xlink" width="72" height="72" viewBox="0 0 72 72">
  <defs>
    <linearGradient id="linear-gradient" x1="1.19" y1="-0.18" x2="0.045" y2="0.968" gradientUnits="objectBoundingBox">
      <stop offset="0" stop-color="#74ff74"/>
      <stop offset="1" stop-color="#36b20f"/>
    </linearGradient>
    <filter id="Rectangle_704" x="0" y="0" width="72" height="72" filterUnits="userSpaceOnUse">
      <feOffset input="SourceAlpha"/>
      <feGaussianBlur stdDeviation="2.5" result="blur"/>
      <feFlood flood-color="#13d81b"/>
      <feComposite operator="in" in2="blur"/>
      <feComposite in="SourceGraphic"/>
    </filter>
    <filter id="Rectangle_704-2" x="0" y="0" width="72" height="72" filterUnits="userSpaceOnUse">
      <feOffset dy="-3" input="SourceAlpha"/>
      <feGaussianBlur stdDeviation="3" result="blur-2"/>
      <feFlood flood-opacity="0.161" result="color"/>
      <feComposite operator="out" in="SourceGraphic" in2="blur-2"/>
      <feComposite operator="in" in="color"/>
      <feComposite operator="in" in2="SourceGraphic"/>
    </filter>
  </defs>
  <g id="Group_16" data-name="Group 16" transform="translate(-352.075 -651.629)">
    <g data-type="innerShadowGroup">
      <g transform="matrix(1, 0, 0, 1, 352.08, 651.63)" filter="url(#Rectangle_704)">
        <rect id="Rectangle_704-3" data-name="Rectangle 704" width="57" height="57" rx="12" transform="translate(7.5 7.5)" fill="url(#linear-gradient)"/>
      </g>
      <g transform="matrix(1, 0, 0, 1, 352.08, 651.63)" filter="url(#Rectangle_704-2)">
        <rect id="Rectangle_704-4" data-name="Rectangle 704" width="57" height="57" rx="12" transform="translate(7.5 7.5)" fill="#fff"/>
      </g>
    </g>
    <path id="stockup" d="M30.4,34.721H4.354a4.184,4.184,0,0,1-3.069-1.271A4.174,4.174,0,0,1,.015,30.38V4.34A4.184,4.184,0,0,1,1.286,1.271,4.177,4.177,0,0,1,4.355,0H30.4a4.184,4.184,0,0,1,3.069,1.271A4.177,4.177,0,0,1,34.737,4.34V30.381a4.341,4.341,0,0,1-4.34,4.34Zm0-26.041a4.184,4.184,0,0,0-1.271-3.069,4.177,4.177,0,0,0-3.069-1.271H8.695A4.184,4.184,0,0,0,5.626,5.611,4.177,4.177,0,0,0,4.354,8.68V26.04a4.184,4.184,0,0,0,1.271,3.069A4.177,4.177,0,0,0,8.695,30.38h17.36a4.341,4.341,0,0,0,4.34-4.34V8.68ZM26.631,19.463,24.6,17.428,18.222,23.8a2.476,2.476,0,0,1-.373.543,2.088,2.088,0,0,1-2.95,0L13.034,22.48l-2.984,2.95a2.088,2.088,0,0,1-2.95,0,2.088,2.088,0,0,1,0-2.95l4.137-4.137a2.185,2.185,0,0,0,.237-.373,2.088,2.088,0,0,1,2.95,0l1.831,1.865,5.357-5.357-2.068-2.068v-.2q0-.475.017-.712a.7.7,0,0,1,.764-.645h6.307a1.545,1.545,0,0,1,1.136.458,1.5,1.5,0,0,1,.458,1.1v6.273a.7.7,0,0,1-.645.764q-.237.016-.712.017h-.237Z" transform="translate(370.7 670.268)" fill="#fff"/>
  </g>
</svg>
