<svg xmlns="http://www.w3.org/2000/svg" width="67.925" height="60" viewBox="0 0 67.925 60">
  <g id="store" transform="translate(-16 -72)">
    <path id="Path_521" data-name="Path 521" d="M81.377,72H76.359a8.293,8.293,0,0,0-8.283,8.283v39.046c-.12.069-.238.142-.353.218H65.811V79.925a1.132,1.132,0,0,0-1.132-1.132H42.038a1.132,1.132,0,0,0-1.132,1.132V99.17H19.4a1.132,1.132,0,0,0-1.132,1.132v19.262A2.55,2.55,0,0,0,16,122.094v1.7a2.55,2.55,0,0,0,2.547,2.547h4.389a4.528,4.528,0,1,0,8.77,0h33.07a6.792,6.792,0,1,0,10.093-7.011V80.883a2.093,2.093,0,0,1,2.091-2.091h4.419a2.55,2.55,0,0,0,2.547-2.547v-1.7A2.55,2.55,0,0,0,81.377,72ZM52.226,81.057h2.264v2.7l-.626-.313a1.132,1.132,0,0,0-1.013,0l-.626.313Zm-9.057,0h6.792v4.528A1.132,1.132,0,0,0,51.6,86.6l1.758-.879,1.758.879a1.132,1.132,0,0,0,1.638-1.012V81.057h6.792V99.17H43.17Zm11.321,20.377v2.7l-.626-.313a1.132,1.132,0,0,0-1.013,0l-.626.313v-2.7Zm-11.321,0h6.792v4.528a1.132,1.132,0,0,0,1.638,1.013l1.758-.879,1.758.879a1.132,1.132,0,0,0,1.638-1.013v-4.528h6.792v18.113H43.17Zm-13.585,0h2.264v2.7l-.626-.313a1.132,1.132,0,0,0-1.013,0l-.626.313Zm-9.057,0h6.792v4.528a1.132,1.132,0,0,0,1.638,1.013l1.758-.879,1.758.879a1.132,1.132,0,0,0,1.638-1.013v-4.528h6.792v18.113H20.528Zm6.792,28.3a2.264,2.264,0,1,1,2.264-2.264A2.267,2.267,0,0,1,27.321,129.736Zm37.455-5.66H30.311a4.516,4.516,0,0,0-5.981,0H18.547a.283.283,0,0,1-.283-.283v-1.7a.283.283,0,0,1,.283-.283H65.593A6.742,6.742,0,0,0,64.775,124.075ZM76,125.208a4.528,4.528,0,1,1-4.528-4.528A4.533,4.533,0,0,1,76,125.208Zm1.132-48.679h-.173A4.36,4.36,0,0,0,72.6,80.883v37.628a6.717,6.717,0,0,0-2.264,0V80.283a6.026,6.026,0,0,1,6.019-6.019h.773Zm4.528-.283a.283.283,0,0,1-.283.283H79.4V74.264h1.981a.283.283,0,0,1,.283.283Z" fill="#ffb11d"/>
    <path id="Path_522" data-name="Path 522" d="M220.528,360h-3.4A1.132,1.132,0,0,0,216,361.132v3.4a1.132,1.132,0,0,0,1.132,1.132h3.4a1.132,1.132,0,0,0,1.132-1.132v-3.4A1.132,1.132,0,0,0,220.528,360Zm-1.132,3.4h-1.132v-1.132H219.4Z" transform="translate(-171.698 -247.245)" fill="#ffb11d"/>
    <path id="Path_523" data-name="Path 523" d="M315.4,360h-2.264a1.132,1.132,0,0,0,0,2.264H315.4a1.132,1.132,0,0,0,0-2.264Z" transform="translate(-254.113 -247.245)" fill="#ffb11d"/>
    <path id="Path_524" data-name="Path 524" d="M315.4,384h-2.264a1.132,1.132,0,0,0,0,2.264H315.4a1.132,1.132,0,0,0,0-2.264Z" transform="translate(-254.113 -267.849)" fill="#ffb11d"/>
    <path id="Path_525" data-name="Path 525" d="M220.528,216h-3.4A1.132,1.132,0,0,0,216,217.132v3.4a1.132,1.132,0,0,0,1.132,1.132h3.4a1.132,1.132,0,0,0,1.132-1.132v-3.4A1.132,1.132,0,0,0,220.528,216Zm-1.132,3.4h-1.132v-1.132H219.4Z" transform="translate(-171.698 -123.623)" fill="#ffb11d"/>
    <path id="Path_526" data-name="Path 526" d="M313.132,218.264H315.4a1.132,1.132,0,0,0,0-2.264h-2.264a1.132,1.132,0,0,0,0,2.264Z" transform="translate(-254.113 -123.623)" fill="#ffb11d"/>
    <path id="Path_527" data-name="Path 527" d="M313.132,242.264H315.4a1.132,1.132,0,0,0,0-2.264h-2.264a1.132,1.132,0,0,0,0,2.264Z" transform="translate(-254.113 -144.226)" fill="#ffb11d"/>
    <path id="Path_528" data-name="Path 528" d="M60.528,360h-3.4A1.132,1.132,0,0,0,56,361.132v3.4a1.132,1.132,0,0,0,1.132,1.132h3.4a1.132,1.132,0,0,0,1.132-1.132v-3.4A1.132,1.132,0,0,0,60.528,360ZM59.4,363.4H58.264v-1.132H59.4Z" transform="translate(-34.34 -247.245)" fill="#ffb11d"/>
    <path id="Path_529" data-name="Path 529" d="M155.4,360h-2.264a1.132,1.132,0,0,0,0,2.264H155.4a1.132,1.132,0,0,0,0-2.264Z" transform="translate(-116.755 -247.245)" fill="#ffb11d"/>
    <path id="Path_530" data-name="Path 530" d="M155.4,384h-2.264a1.132,1.132,0,0,0,0,2.264H155.4a1.132,1.132,0,0,0,0-2.264Z" transform="translate(-116.755 -267.849)" fill="#ffb11d"/>
    <circle id="Ellipse_12" data-name="Ellipse 12" cx="2.5" cy="2.5" r="2.5" transform="translate(68.977 123)" fill="#ffb11d"/>
  </g>
</svg>
