<?xml version="1.0" encoding="utf-8"?>
<!-- Generator: Adobe Illustrator 26.0.2, SVG Export Plug-In . SVG Version: 6.00 Build 0)  -->
<svg version="1.1" id="outline" xmlns="http://www.w3.org/2000/svg" xmlns:xlink="http://www.w3.org/1999/xlink" x="0px" y="0px"
	 viewBox="0 0 512 512" enable-background="new 0 0 512 512" xml:space="preserve">
<g>
	<path d="M478,72h-35.465C410.259,72,384,98.259,384,130.535v275.922c-0.847,0.491-1.68,1.002-2.494,1.542H368V128
		c0-4.418-3.582-8-8-8H200c-4.418,0-8,3.582-8,8v136H40c-4.418,0-8,3.582-8,8v136.118c-8.986,0.999-16,8.634-16,17.882v12
		c0,9.925,8.075,18,18,18h31.013c-0.661,2.558-1.013,5.239-1.013,8c0,17.645,14.355,32,32,32s32-14.355,32-32
		c0-2.761-0.352-5.442-1.013-8h233.692c3.821,22.671,23.579,40,47.321,40c26.468,0,48-21.532,48-48c0-17.728-9.667-33.23-24-41.542
		V134.774c0-8.146,6.628-14.774,14.774-14.774H478c9.925,0,18-8.075,18-18V90C496,80.075,487.925,72,478,72z M272,136h16v19.056
		l-4.422-2.211C282.451,152.281,281.226,152,280,152s-2.451,0.281-3.578,0.845L272,155.056V136z M208,136h48v32
		c0,2.772,1.436,5.348,3.794,6.806c2.359,1.458,5.303,1.589,7.784,0.35L280,168.944l12.422,6.211
		c1.13,0.564,2.354,0.845,3.578,0.845c1.462,0,2.921-0.4,4.206-1.194c2.358-1.458,3.794-4.033,3.794-6.806v-32h48v128H208V136z
		 M288,280v19.056l-4.422-2.211C282.451,296.281,281.226,296,280,296s-2.451,0.281-3.578,0.845L272,299.056V280H288z M208,280h48v32
		c0,2.772,1.436,5.348,3.794,6.806c2.359,1.457,5.303,1.59,7.784,0.35L280,312.944l12.422,6.211c1.13,0.564,2.354,0.845,3.578,0.845
		c1.462,0,2.921-0.4,4.206-1.194c2.358-1.458,3.794-4.033,3.794-6.806v-32h48v128H208V280z M112,280h16v19.056l-4.422-2.211
		C122.451,296.281,121.226,296,120,296s-2.451,0.281-3.578,0.845L112,299.056V280z M48,280h48v32c0,2.772,1.436,5.348,3.794,6.806
		c2.358,1.457,5.302,1.59,7.784,0.35L120,312.944l12.422,6.211c1.13,0.564,2.354,0.845,3.578,0.845c1.462,0,2.921-0.4,4.206-1.194
		c2.358-1.458,3.794-4.033,3.794-6.806v-32h48v128H48V280z M96,480c-8.822,0-16-7.178-16-16s7.178-16,16-16s16,7.178,16,16
		S104.822,480,96,480z M360.679,440H117.132c-5.641-4.973-13.038-8-21.132-8s-15.49,3.027-21.132,8H34c-1.103,0-2-0.897-2-2v-12
		c0-1.103,0.897-2,2-2h6h320h6.458C363.638,428.862,361.647,434.258,360.679,440z M440,448c0,17.645-14.355,32-32,32
		s-32-14.355-32-32s14.355-32,32-32S440,430.355,440,448z M448,104h-1.226C429.806,104,416,117.806,416,134.774v265.905
		c-2.604-0.439-5.273-0.679-8-0.679s-5.396,0.24-8,0.679V130.535C400,107.081,419.081,88,442.535,88H448V104z M480,102
		c0,1.103-0.897,2-2,2h-14V88h14c1.103,0,2,0.897,2,2V102z"/>
	<path d="M248,360h-24c-4.418,0-8,3.582-8,8v24c0,4.418,3.582,8,8,8h24c4.418,0,8-3.582,8-8v-24C256,363.582,252.418,360,248,360z
		 M240,384h-8v-8h8V384z"/>
	<path d="M336,360h-16c-4.418,0-8,3.582-8,8s3.582,8,8,8h16c4.418,0,8-3.582,8-8S340.418,360,336,360z"/>
	<path d="M336,384h-16c-4.418,0-8,3.582-8,8s3.582,8,8,8h16c4.418,0,8-3.582,8-8S340.418,384,336,384z"/>
	<path d="M248,216h-24c-4.418,0-8,3.582-8,8v24c0,4.418,3.582,8,8,8h24c4.418,0,8-3.582,8-8v-24C256,219.582,252.418,216,248,216z
		 M240,240h-8v-8h8V240z"/>
	<path d="M320,232h16c4.418,0,8-3.582,8-8s-3.582-8-8-8h-16c-4.418,0-8,3.582-8,8S315.582,232,320,232z"/>
	<path d="M320,256h16c4.418,0,8-3.582,8-8s-3.582-8-8-8h-16c-4.418,0-8,3.582-8,8S315.582,256,320,256z"/>
	<path d="M88,360H64c-4.418,0-8,3.582-8,8v24c0,4.418,3.582,8,8,8h24c4.418,0,8-3.582,8-8v-24C96,363.582,92.418,360,88,360z
		 M80,384h-8v-8h8V384z"/>
	<path d="M176,360h-16c-4.418,0-8,3.582-8,8s3.582,8,8,8h16c4.418,0,8-3.582,8-8S180.418,360,176,360z"/>
	<path d="M176,384h-16c-4.418,0-8,3.582-8,8s3.582,8,8,8h16c4.418,0,8-3.582,8-8S180.418,384,176,384z"/>
	<circle cx="408" cy="448" r="16"/>
</g>
</svg>
