<?xml version="1.0" encoding="UTF-8"?>
<svg viewBox="0 0 108.13 103.37" xmlns="http://www.w3.org/2000/svg">
<path transform="translate(-86.074 -86)" d="M105.7,86.2c59.353,0,1.753-.092,88.5-.13,0,56.794-48.775,103.307-108.128,103.307,0-94.782.032-27.894.032-84.688C87.276,94.564,97.461,86.4,105.7,86.2Z" fill="#ffebbf" data-name="Path 350"/>
<path transform="translate(-86.074 -86.066)" d="m103.89 86.184c53.891 0 1.592-0.083 80.357-0.118 0 51.332-44.286 93.371-98.177 93.371 0-85.666 0.029-25.211 0.029-76.543 1.063-9.148 10.311-16.53 17.791-16.71z" fill="#ffd880" data-name="Path 349"/>
<path transform="translate(-86.074 -86)" d="M101.87,86.176c47.773,0,1.411-.077,71.234-.11,0,47.773-39.258,86.9-87.031,86.9,0-79.726.026-23.463.026-71.236C87.042,93.214,95.239,86.343,101.87,86.176Z" fill="#ffc74a" data-name="Path 348"/>
</svg>
