<svg xmlns="http://www.w3.org/2000/svg" xmlns:xlink="http://www.w3.org/1999/xlink" width="52.19" height="53.828" viewBox="0 0 52.19 53.828"><defs><filter id="a" x="0" y="14.203" width="45.148" height="39.625" filterUnits="userSpaceOnUse"><feOffset input="SourceAlpha"/><feGaussianBlur stdDeviation="4.5" result="b"/><feFlood flood-opacity="0.161"/><feComposite operator="in" in2="b"/><feComposite in="SourceGraphic"/></filter><filter id="c" x="2.367" y="0" width="39.625" height="39.625" filterUnits="userSpaceOnUse"><feOffset input="SourceAlpha"/><feGaussianBlur stdDeviation="4.5" result="d"/><feFlood flood-opacity="0.161"/><feComposite operator="in" in2="d"/><feComposite in="SourceGraphic"/></filter><filter id="e" x="19.465" y="14.717" width="32.726" height="36.334" filterUnits="userSpaceOnUse"><feOffset input="SourceAlpha"/><feGaussianBlur stdDeviation="4.5" result="f"/><feFlood flood-opacity="0.161"/><feComposite operator="in" in2="f"/><feComposite in="SourceGraphic"/></filter><filter id="g" x="17.597" y="2.506" width="32.97" height="37.321" filterUnits="userSpaceOnUse"><feOffset input="SourceAlpha"/><feGaussianBlur stdDeviation="4.5" result="h"/><feFlood flood-opacity="0.161"/><feComposite operator="in" in2="h"/><feComposite in="SourceGraphic"/></filter></defs><g transform="translate(9486.329 10628.914)"><g transform="matrix(1, 0, 0, 1, -9486.33, -10628.91)" filter="url(#a)"><g transform="translate(13.5 27.7)" fill="none" stroke="#fff" stroke-width="2"><ellipse cx="9.074" cy="6.312" rx="9.074" ry="6.312" stroke="none"/><ellipse cx="9.074" cy="6.312" rx="8.074" ry="5.312" fill="none"/></g></g><g transform="matrix(1, 0, 0, 1, -9486.33, -10628.91)" filter="url(#c)"><g transform="translate(15.87 13.5)" fill="none" stroke="#fff" stroke-width="2"><ellipse cx="6.313" cy="6.312" rx="6.313" ry="6.312" stroke="none"/><ellipse cx="6.313" cy="6.312" rx="5.313" ry="5.312" fill="none"/></g></g><g transform="matrix(1, 0, 0, 1, -9486.33, -10628.91)" filter="url(#e)"><path d="M-9766.881-11780.973s3.582.324,3.582,3.433-3.582,3.672-3.582,3.672" transform="translate(9800.99 11810.28)" fill="none" stroke="rgba(255,255,255,0.84)" stroke-linecap="round" stroke-linejoin="round" stroke-width="2"/></g><g transform="matrix(1, 0, 0, 1, -9486.33, -10628.91)" filter="url(#g)"><path d="M-9770.655-11796.67a4.111,4.111,0,0,1,3.917,4.181,3.966,3.966,0,0,1-3.917,4.063" transform="translate(9802.8 11813.73)" fill="none" stroke="rgba(255,255,255,0.84)" stroke-linecap="round" stroke-linejoin="round" stroke-width="2"/></g></g></svg>