<svg xmlns="http://www.w3.org/2000/svg" width="29.079" height="33.912" viewBox="0 0 29.079 33.912"><g transform="translate(1.25 1.25)"><path d="M7.875,7.875l1.51,24.163A2.425,2.425,0,0,0,11.8,34.454H25.7a2.431,2.431,0,0,0,2.416-2.416l1.51-24.163" transform="translate(-5.459 -3.042)" fill="none" stroke="#3f5d99" stroke-linecap="round" stroke-linejoin="round" stroke-width="2.5"/><path d="M5.625,7.875H32.2" transform="translate(-5.625 -3.042)" fill="none" stroke="#3f5d99" stroke-linecap="round" stroke-miterlimit="10" stroke-width="2.5"/><path d="M13.5,8.208V5.188h0a1.807,1.807,0,0,1,1.813-1.813h6.041a1.807,1.807,0,0,1,1.813,1.813h0V8.209" transform="translate(-5.043 -3.375)" fill="none" stroke="#3f5d99" stroke-linecap="round" stroke-linejoin="round" stroke-width="2.5"/><path d="M18,12.375V29.289" transform="translate(-4.711 -2.71)" fill="none" stroke="#3f5d99" stroke-linecap="round" stroke-linejoin="round" stroke-width="2.5"/><path d="M12.938,12.375l.6,16.914" transform="translate(-5.085 -2.71)" fill="none" stroke="#3f5d99" stroke-linecap="round" stroke-linejoin="round" stroke-width="2.5"/><path d="M23.1,12.375l-.6,16.914" transform="translate(-4.378 -2.71)" fill="none" stroke="#3f5d99" stroke-linecap="round" stroke-linejoin="round" stroke-width="2.5"/></g></svg>