<svg xmlns="http://www.w3.org/2000/svg" width="9.567" height="9.568" viewBox="0 0 9.567 9.568">
  <path id="history" d="M3.022,6.578v-.3L4.246,4.625a.589.589,0,0,1,.57-.439.585.585,0,0,1,.355.117.572.572,0,0,1,.215.3L7.208,6.877v.3h-.3l-2.1-1.691L3.321,6.578h-.3Zm1.794,2.99A4.7,4.7,0,0,1,2.97,9.2,4.783,4.783,0,0,1,1.433,8.166l.85-.841A3.572,3.572,0,0,0,3.433,8.1a3.6,3.6,0,0,0,3.181-.206A3.562,3.562,0,0,0,7.922,6.583a3.514,3.514,0,0,0,.481-1.8,3.512,3.512,0,0,0-.481-1.8A3.565,3.565,0,0,0,6.614,1.677a3.508,3.508,0,0,0-1.8-.481,3.435,3.435,0,0,0-1.635.4A3.713,3.713,0,0,0,1.919,2.682l.5.5a.388.388,0,0,1-.117.285.377.377,0,0,1-.276.117H.434a.388.388,0,0,1-.285-.117.388.388,0,0,1-.117-.285V1.6a.377.377,0,0,1,.117-.276.388.388,0,0,1,.285-.117l.635.626A4.756,4.756,0,0,1,2.713.491,4.636,4.636,0,0,1,4.816,0,4.693,4.693,0,0,1,6.675.378,4.681,4.681,0,0,1,9.221,2.924a4.758,4.758,0,0,1,0,3.719A4.681,4.681,0,0,1,6.675,9.189a4.694,4.694,0,0,1-1.859.378Z" transform="translate(-0.032)" fill="#fff"/>
</svg>
