<svg xmlns="http://www.w3.org/2000/svg" width="13.398" height="15.459" viewBox="0 0 13.398 15.459">
  <g id="trash" transform="translate(-3.375)">
    <path id="Path_502" data-name="Path 502" d="M11.765,12.375a.515.515,0,0,1,.515.515v6.184a.515.515,0,0,1-1.031,0V12.89A.515.515,0,0,1,11.765,12.375Zm2.576,0a.515.515,0,0,1,.515.515v6.184a.515.515,0,1,1-1.031,0V12.89A.515.515,0,0,1,14.342,12.375Zm3.092.515a.515.515,0,0,0-1.031,0v6.184a.515.515,0,0,0,1.031,0Z" transform="translate(-4.268 -6.707)" fill="#fff"/>
    <path id="Path_503" data-name="Path 503" d="M16.773,3.092a1.031,1.031,0,0,1-1.031,1.031h-.515V13.4a2.061,2.061,0,0,1-2.061,2.061H6.982A2.061,2.061,0,0,1,4.921,13.4V4.122H4.406A1.031,1.031,0,0,1,3.375,3.092V2.061A1.031,1.031,0,0,1,4.406,1.031H8.013A1.031,1.031,0,0,1,9.043,0H11.1a1.031,1.031,0,0,1,1.031,1.031h3.607a1.031,1.031,0,0,1,1.031,1.031ZM6.073,4.122l-.122.061V13.4a1.031,1.031,0,0,0,1.031,1.031h6.184A1.031,1.031,0,0,0,14.2,13.4V4.183l-.121-.061ZM4.406,3.092V2.061H15.742V3.092Z" transform="translate(0 0)" fill="#fff" fill-rule="evenodd"/>
  </g>
</svg>
