<svg xmlns="http://www.w3.org/2000/svg" width="254.128" height="346.872" viewBox="0 0 254.128 346.872">
  <g id="noun-trash-1041985" transform="translate(-159.494 -19.956)">
    <path id="Path_994" data-name="Path 994" d="M259.25,326.008h.135a7.471,7.471,0,0,0,7.339-7.6l-3.736-212.082a7.306,7.306,0,0,0-7.6-7.337,7.471,7.471,0,0,0-7.339,7.6l3.736,212.082a7.474,7.474,0,0,0,7.464,7.337Zm54.626,0a7.475,7.475,0,0,0,7.467-7.339l3.736-212.082a7.467,7.467,0,0,0-7.339-7.6h-.14a7.475,7.475,0,0,0-7.467,7.339L306.4,318.408a7.467,7.467,0,0,0,7.339,7.6Zm73.38-227.022a7.379,7.379,0,0,0-7.707,7.227l-7.475,232.331a13.351,13.351,0,0,1-13.324,13.345H214.4A13.419,13.419,0,0,1,201.05,338.3l-7.469-232.091a7.471,7.471,0,0,0-7.462-7.23h-.242a7.474,7.474,0,0,0-7.227,7.707l7.467,231.851A28.316,28.316,0,0,0,214.4,366.828H358.751a28.251,28.251,0,0,0,28.26-28.047L394.48,106.69a7.472,7.472,0,0,0-7.227-7.7Zm18.9-37.35H166.964a7.469,7.469,0,0,0,0,14.939H406.151a7.471,7.471,0,1,0,0-14.941ZM228.55,49.836a7.472,7.472,0,0,0,7.469-7.469,7.477,7.477,0,0,1,7.469-7.469h86.139a7.477,7.477,0,0,1,7.469,7.469,7.469,7.469,0,1,0,14.939,0,22.434,22.434,0,0,0-22.411-22.411H243.481A22.434,22.434,0,0,0,221.07,42.367a7.471,7.471,0,0,0,7.472,7.469Z" fill="#c60000"/>
  </g>
</svg>
