<svg xmlns="http://www.w3.org/2000/svg" width="102.583" height="81.085" viewBox="0 0 102.583 81.085">
  <g id="upload" transform="translate(0 -3.044)">
    <path id="Path_391" data-name="Path 391" d="M3.206,45.661a3.206,3.206,0,0,1,3.206,3.206v22.44a6.411,6.411,0,0,0,6.411,6.411H89.76a6.411,6.411,0,0,0,6.411-6.411V48.866a3.206,3.206,0,1,1,6.411,0v22.44A12.823,12.823,0,0,1,89.76,84.129H12.823A12.823,12.823,0,0,1,0,71.306V48.866a3.206,3.206,0,0,1,3.206-3.206ZM32.057,25.489a3.206,3.206,0,0,0,4.534,0l14.7-14.706,14.7,14.7a3.206,3.206,0,1,0,4.534-4.531L53.56,3.986a3.206,3.206,0,0,0-4.539,0L32.057,20.952a3.206,3.206,0,0,0,0,4.539Z" transform="translate(0 0)" fill="#b9b9b9" fill-rule="evenodd"/>
    <path id="Path_392" data-name="Path 392" d="M20.081,4.5a3.206,3.206,0,0,1,3.206,3.206V59a3.206,3.206,0,0,1-6.411,0V7.706A3.206,3.206,0,0,1,20.081,4.5Z" transform="translate(31.211 2.692)" fill="#b9b9b9" fill-rule="evenodd"/>
  </g>
</svg>
