<?xml version="1.0" encoding="UTF-8" standalone="no" ?>
<!DOCTYPE svg PUBLIC "-//W3C//DTD SVG 1.1//EN" "http://www.w3.org/Graphics/SVG/1.1/DTD/svg11.dtd">
<svg xmlns="http://www.w3.org/2000/svg" xmlns:xlink="http://www.w3.org/1999/xlink" version="1.1" width="1080" height="1080" viewBox="0 0 1080 1080" xml:space="preserve">
<desc>Created with Fabric.js 5.2.4</desc>
<defs>
</defs>
<rect x="0" y="0" width="100%" height="100%" fill="transparent"></rect>
<g transform="matrix(1 0 0 1 540 540)" id="28469094-40f3-48da-8fc8-dbd9b991a8a9"  >
<rect style="stroke: none; stroke-width: 1; stroke-dasharray: none; stroke-linecap: butt; stroke-dashoffset: 0; stroke-linejoin: miter; stroke-miterlimit: 4; fill: rgb(255,255,255); fill-rule: nonzero; opacity: 1; visibility: hidden;" vector-effect="non-scaling-stroke"  x="-540" y="-540" rx="0" ry="0" width="1080" height="1080" />
</g>
<g transform="matrix(1 0 0 1 540 540)" id="0d1ee4b6-3e21-488e-b7c1-72ed6a983222"  >
</g>
<g transform="matrix(16.14 0 0 16.14 568.16 540)" id="518fa236-f3e3-49ef-b716-ff27d64f6b18"  >
<path style="stroke: rgb(0,0,0); stroke-width: 0; stroke-dasharray: none; stroke-linecap: butt; stroke-dashoffset: 0; stroke-linejoin: miter; stroke-miterlimit: 4; fill: rgb(255,255,255); fill-rule: nonzero; opacity: 1;" vector-effect="non-scaling-stroke"  transform=" translate(-24, -25.98)" d="M 10.5 7 C 6.9280619 7 4 9.9280619 4 13.5 L 4 30.5 C 4 34.071938 6.9280619 37 10.5 37 L 12 37 L 12 42.5 C 12 44.46599 14.427297 45.67893 16 44.5 L 26 37 L 37.5 37 C 41.071938 37 44 34.071938 44 30.5 L 44 13.5 C 44 9.9280619 41.071938 7 37.5 7 L 10.5 7 z M 10.5 10 L 37.5 10 C 39.450062 10 41 11.549938 41 13.5 L 41 30.5 C 41 32.450062 39.450062 34 37.5 34 L 25.5 34 C 25.175223561097596 34.000151478179966 24.85926755556095 34.10569847198746 24.599609 34.300781 L 15 41.5 L 15 35.5 C 14.999917173141975 34.671607185687314 14.328392814312688 34.000082826858026 13.499999999999998 34 L 10.5 34 C 8.5499381 34 7 32.450062 7 30.5 L 7 13.5 C 7 11.549938 8.5499381 10 10.5 10 z M 15.5 16.998047 C 14.959046125133643 16.990396565681767 14.455877953142583 17.274609944253992 14.183168417770215 17.741856274571493 C 13.910458882397847 18.209102604888994 13.910458882397846 18.786991395111006 14.183168417770215 19.254237725428506 C 14.455877953142583 19.721484055746007 14.959046125133643 20.005697434318233 15.5 19.998047 L 32.5 19.998047 C 33.040953874866354 20.005697434318233 33.54412204685742 19.721484055746007 33.81683158222979 19.254237725428506 C 34.08954111760215 18.786991395111006 34.08954111760215 18.209102604888994 33.81683158222979 17.741856274571493 C 33.54412204685742 17.274609944253992 33.040953874866354 16.990396565681767 32.5 16.998047 L 15.5 16.998047 z M 15.5 23.998047 C 14.959046125133643 23.990396565681767 14.455877953142583 24.274609944253992 14.183168417770215 24.741856274571493 C 13.910458882397847 25.209102604888994 13.910458882397846 25.786991395111006 14.183168417770215 26.254237725428506 C 14.455877953142583 26.721484055746007 14.959046125133643 27.005697434318233 15.5 26.998047 L 28.5 26.998047 C 29.040953874866357 27.005697434318233 29.544122046857417 26.721484055746007 29.816831582229785 26.254237725428506 C 30.089541117602153 25.786991395111006 30.089541117602153 25.209102604888994 29.816831582229785 24.741856274571493 C 29.544122046857417 24.274609944253992 29.040953874866357 23.990396565681767 28.5 23.998047 L 15.5 23.998047 z" stroke-linecap="round" />
</g>
</svg>