<svg xmlns="http://www.w3.org/2000/svg" width="60" height="60.011" viewBox="0 0 60 60.011">
  <g id="user-add" transform="translate(-2 -2)">
    <path id="Path_1" data-name="Path 1" d="M34.2,31.51a13.15,13.15,0,1,0-15.77,0A24.36,24.36,0,0,0,2,54.52c0,2.2.25,5.3,2.44,6.75,2.48,1.63,5.63.29,9.62-1.42,3.47-1.48,7.8-3.33,12.26-3.33s8.79,1.85,12.27,3.33c2.72,1.16,5,2.16,7,2.16a4.59,4.59,0,0,0,2.59-.74c2.18-1.45,2.44-4.55,2.44-6.75A24.37,24.37,0,0,0,34.2,31.51ZM26.31,11.87a9.16,9.16,0,1,1-6.46,2.676,9.16,9.16,0,0,1,6.46-2.676ZM46,57.93c-.69.45-3.78-.88-5.84-1.75-3.81-1.63-8.55-3.66-13.84-3.66s-10,2-13.84,3.66c-2.05.87-5.15,2.2-5.83,1.75,0,0-.65-.46-.65-3.41a20.33,20.33,0,0,1,40.65,0C46.65,57.47,46,57.93,46,57.93Z" fill="#fff"/>
    <path id="Path_2" data-name="Path 2" d="M60,10.5H53.5V4a2,2,0,1,0-4,0v6.5H43a2,2,0,0,0,0,4h6.5V21a2,2,0,0,0,4,0V14.5H60a2,2,0,0,0,0-4Z" fill="#fff"/>
  </g>
</svg>
